<?xml version="1.0" encoding="UTF-8" standalone="no"?>
<!DOCTYPE svg PUBLIC "-//W3C//DTD SVG 1.1//EN" "http://www.w3.org/Graphics/SVG/1.1/DTD/svg11.dtd">
<svg width="100%" height="100%" viewBox="0 0 526 717" version="1.1" xmlns="http://www.w3.org/2000/svg" xmlns:xlink="http://www.w3.org/1999/xlink" xml:space="preserve" xmlns:serif="http://www.serif.com/" style="fill-rule:evenodd;clip-rule:evenodd;stroke-linejoin:round;stroke-miterlimit:2;">
    <g transform="matrix(1,0,0,1,-696.521,-179.968)">
        <g id="logo" transform="matrix(0.725922,0,0,0.75038,597.71,150.933)">
            <g id="graphics">
                <g transform="matrix(1,0,0,1,0,133.962)">
                    <path d="M602.844,210.332C601.382,208.511 600.51,206.215 600.51,203.719C600.51,197.803 605.412,193.007 611.457,193.007C617.504,193.007 622.406,197.803 622.406,203.719C622.406,208.013 619.824,211.716 616.097,213.425C632.359,238.173 641.792,267.625 641.792,299.232C641.792,386.985 569.084,458.123 479.395,458.123C389.705,458.123 316.998,386.985 316.998,299.232C316.998,267.631 326.427,238.184 342.684,213.439C338.94,211.736 336.345,208.024 336.345,203.719C336.345,197.803 341.247,193.007 347.292,193.007C353.34,193.007 358.241,197.803 358.241,203.719C358.241,206.051 357.48,208.209 356.187,209.967L356.221,209.967C337.308,234.908 326.121,265.792 326.121,299.232C326.121,382.057 394.744,449.197 479.395,449.197C564.046,449.197 632.668,382.057 632.668,299.232C632.668,265.954 621.59,235.208 602.844,210.332Z" style="fill:rgb(116,32,160);"/>
                </g>
                <g transform="matrix(1,0,0,1,0,133.962)">
                    <path d="M340.157,262.634C340.157,262.634 358.513,271.988 369.914,271.988C396.572,271.988 407.32,262.634 407.32,262.634C407.32,262.634 420.948,271.988 449.287,271.988C451.939,271.988 454.534,271.894 457.043,271.732L457.043,292.537L433.778,292.537L434.355,317.098L444.068,324.707L431.819,400.217C406.73,403.011 389.727,406.98 387.137,407.605C355.425,381.734 335.244,342.789 335.244,299.232C335.244,286.573 335.685,274.307 340.157,262.634ZM618.634,262.634C622.686,274.048 623.545,286.573 623.545,299.232C623.545,342.631 603.511,381.451 571.997,407.323L571.997,407.242C571.997,407.242 556.253,403.109 530.619,400.206L518.361,324.651L528.085,317.107L528.662,292.537L505.397,292.537L505.397,307.713L494.449,307.713L494.449,292.537L468.903,292.537L468.903,307.713L460.236,307.713L460.236,271.486C475.641,271.486 486.237,262.634 486.237,262.634C486.237,262.634 498.205,271.988 525.924,271.988C550.174,271.988 558.312,262.634 558.312,262.634C558.312,262.634 571.913,271.988 590.701,271.988C609.488,271.988 618.634,262.634 618.634,262.634ZM519.547,399.097L515.432,372.43C515.432,372.43 512.695,368.412 505.397,368.412C496.272,368.412 493.993,372.43 493.993,372.43L493.507,397.596C502.827,397.858 511.551,398.399 519.547,399.097ZM585.227,354.8C585.227,356.155 584.103,357.254 582.718,357.254C581.332,357.254 580.208,356.155 580.208,354.8C580.208,353.444 581.332,352.345 582.718,352.345C584.103,352.345 585.227,353.444 585.227,354.8ZM597.087,333.376C597.087,336.459 594.535,338.956 591.385,338.956C588.235,338.956 585.683,336.459 585.683,333.376C585.683,330.295 588.235,327.798 591.385,327.798C594.535,327.798 597.087,330.295 597.087,333.376ZM601.648,305.035C601.648,313.415 594.705,320.211 586.138,320.211C577.573,320.211 570.629,313.415 570.629,305.035C570.629,296.654 577.573,289.86 586.138,289.86C594.705,289.86 601.648,296.654 601.648,305.035Z" style="fill:url(#_Linear1);"/>
                </g>
                <g transform="matrix(1.21127,0,-7.07014e-32,1.18512,-8263.02,-8032.01)">
                    <path d="M7201.76,7080.03L7199.12,7080.03L7199.12,7119.71L7201.76,7119.5L7201.76,7080.03Z" style="fill:rgb(116,32,160);fill-rule:nonzero;"/>
                    <path d="M7200.63,7083.8C7200.63,7083.8 7202.89,7082.67 7204.02,7091.71C7205.15,7100.75 7201.39,7104.51 7201.39,7104.51C7201.39,7104.51 7216.45,7091.71 7224.36,7091.71C7232.27,7091.71 7220.59,7099.62 7226.99,7099.62C7233.4,7099.62 7246.95,7090.2 7246.95,7090.2C7246.95,7090.2 7231.51,7095.48 7231.51,7089.45C7231.51,7083.43 7235.74,7080 7229.63,7077.78C7225.49,7076.27 7216.07,7074.01 7200.63,7083.8" style="fill:rgb(116,32,160);fill-rule:nonzero;"/>
                    <path d="M7204.02,7076.9C7204.02,7078.84 7202.45,7080.41 7200.51,7080.41C7198.56,7080.41 7196.99,7078.84 7196.99,7076.9C7196.99,7074.95 7198.56,7073.38 7200.51,7073.38C7202.45,7073.38 7204.02,7074.95 7204.02,7076.9" style="fill:rgb(116,32,160);fill-rule:nonzero;"/>
                </g>
                <g transform="matrix(1.97822,0,0,1.91374,-755.311,-134.586)">
                    <path d="M499.299,237.706C499.347,232.866 498.449,217.578 484.792,222.463C468.64,228.24 438.214,245.033 456.058,205.615C473.902,166.197 529.074,84.947 645.265,90.85C761.457,96.752 821.377,192.259 816.187,273.1C809.048,384.289 744.07,412.606 744.07,412.606C744.07,412.606 761.484,400.211 770.494,389.559C788.671,368.068 805.742,335.97 807.139,285.536C808.233,246.061 797.333,239.307 797.333,239.307L793.271,260.494C793.271,260.494 798.38,233.167 754.904,183.913C736.207,162.731 709.152,153.744 709.152,153.744L715.432,161.724C701.689,149.113 612.105,123.52 558.105,156.949C531.247,173.576 518.382,189.572 521.259,191.603C543.032,163.53 578.343,144.776 626.256,144.739C774.669,144.624 798.491,287.087 770.05,345.812C728.614,431.366 655.625,428.331 551.268,492.324C501.233,523.005 526.118,586.386 558.045,587.03C577.461,587.422 588.719,571.498 588.56,558.107C588.344,539.969 576.143,529.961 563.203,527.981C555.107,526.741 549.853,528.603 549.853,528.603C549.853,528.603 554.264,525.961 559.661,526.208C583.554,527.305 591.672,547.96 590.745,559.006C588.997,579.841 571.861,589.403 558.209,589.138C521.547,588.428 498.197,523.776 547.03,489.424C634.323,428.018 713.899,408.347 736.982,340.251C741.925,325.67 744.525,306.327 741.857,286.217C741.696,285.001 747.804,289 747.804,289C747.804,289 742.362,284.052 741.23,282.913C735.836,277.49 733.19,276.092 726.036,281.791L711.374,295.462C711.374,295.462 711.731,289.35 710.256,279.18C709.667,275.12 707.67,270.061 705.585,265.612C706.474,265.42 707.947,265.041 708.97,264.463C710.026,263.866 711.471,263.011 712.293,262.522C714.814,264.804 717.335,267.526 719.719,270.635C719.719,270.635 704.487,238.028 710.175,230.298C711.986,227.836 720.123,230.309 724.84,232.014C726.924,232.767 733.859,235.559 733.859,235.559C733.859,235.559 723.162,229.095 722.815,228.517C704.994,198.899 673.998,176.255 625.48,176.103C588.601,175.988 560.352,188.943 540.421,209.358C540.015,209.773 527.724,215.067 527.724,215.067C527.724,215.067 532.348,214.01 537.691,212.462L559.169,206.71C544.735,222.989 542.396,240.364 547.219,254.995C547.219,254.995 544.844,259.536 540.719,270.892C539.261,274.907 538.532,279.229 538.2,283.138C537.602,283.112 536.981,283.123 536.438,283.21C535.773,283.317 534.969,283.456 534.223,283.588C534.131,282.555 534.066,281.443 534.033,280.247C533.685,267.699 540.307,256.303 540.307,256.303C536.668,251.325 534.487,246.624 534.445,233.402L519.907,238.147C503.356,270.512 501.646,309.787 515.575,341.174C515.874,341.848 517.101,344.381 517.101,344.381L506.419,337.42C506.419,337.42 506.918,328.024 504.059,319.88C494.422,292.428 492.965,263.735 499.299,237.706ZM595.748,405.905L557.266,379.918C557.266,379.918 544.138,366.841 535.796,360.063C527.453,353.284 524.639,352.608 524.639,352.608C524.639,352.608 518.425,356.625 517.283,360.889C516.142,365.153 515.14,367.553 515.14,367.553C515.14,367.553 513.959,356.679 515.261,353.397C516.563,350.115 517.187,348.732 517.187,348.732L502.571,339.067L506.621,347.352C506.312,349.045 502.504,348.398 494.161,344.718L506.172,353.756C499.962,358.318 490.572,355.634 481.311,353.241L504.189,363.117C497.303,366.228 480.137,361.546 468.956,358.612L501.756,370.034C493.371,373.471 465.897,368.023 451.753,364.944L511.818,381.841C511.818,381.841 525.509,385.25 531.906,385.657C538.302,386.063 546.89,384.806 551.946,387.601C557.001,390.396 583.284,407.322 583.284,407.322C583.284,407.322 581.307,410.457 584.115,411.76C586.922,413.062 605.47,412.436 595.748,405.905ZM585.142,408.317C585.142,408.317 584.3,409.736 585.277,410.218C587.168,411.151 590.367,409.98 590.367,409.98L585.142,408.317ZM540.704,382.542C540.704,382.542 533.466,382.072 530.036,380.683C526.607,379.294 524.831,377.477 524.831,377.477L527.143,373.731L540.704,382.542ZM538.092,284.61C537.689,291.06 538.31,296.052 538.31,296.052C538.31,296.052 535.458,293.689 534.398,285.229C535.203,285.048 536.143,284.856 537.048,284.718C537.42,284.661 537.769,284.627 538.092,284.61ZM704.762,263.895C702.269,258.801 699.897,254.881 699.897,254.881C703.086,255.797 706.817,257.919 710.617,261.07C709.84,261.588 708.81,262.248 707.804,262.807C706.464,263.553 705.353,263.808 704.762,263.895Z" style="fill:rgb(116,32,160);"/>
                </g>
                <g transform="matrix(2.89535,-2.27633,2.35303,2.80097,-2503.18,653.287)">
                    <path d="M540.289,528.451C540.289,528.451 545.078,525.322 551.817,525.163C558.556,525.004 561.599,530.103 561.599,530.103C561.599,530.103 560.566,528.652 558.27,528.473C555.974,528.294 556.586,529.346 556.586,529.346C556.586,529.346 555.156,527.911 552.402,527.183C548.796,526.23 547.172,526.848 547.172,526.848C547.172,526.848 549.186,527.317 551.329,528.319C553.838,529.491 554.369,530.853 554.369,530.853C554.369,530.853 552.174,531.397 551.755,533.004C551.176,535.223 551.931,539.723 551.931,539.723C551.931,539.723 547.92,531.476 540.289,528.451Z" style="fill:rgb(116,32,160);"/>
                </g>
            </g>
            <g transform="matrix(1.97822,0,0,1.91374,253.062,264.707)">
                <g id="purple-kingdom-games" serif:id="purple kingdom games">
                    <g>
                        <g transform="matrix(3.44625,0,0,3.44625,-1913,-890.361)">
                            <path d="M603.723,339.819C603.723,339.456 603.648,339.169 603.498,338.958C603.349,338.748 603.153,338.587 602.91,338.474C602.668,338.36 602.397,338.288 602.098,338.255C601.799,338.223 601.5,338.207 601.201,338.207C601.112,338.207 601.031,338.209 600.959,338.213C600.886,338.217 600.809,338.219 600.728,338.219L600.352,338.219C600.263,338.219 600.181,338.217 600.104,338.213C600.027,338.209 599.944,338.207 599.855,338.207L598.271,338.207L597.065,338.184C597.065,338.184 598.233,338.389 598.648,338.527C598.969,338.634 599.54,338.772 599.54,339.302L599.54,343.857C599.54,344.01 599.49,344.314 599.267,344.542C599.085,344.728 598.867,344.826 598.867,344.826C598.867,344.826 599.793,344.855 600.201,344.863C600.609,344.871 601.019,344.875 601.431,344.875C601.488,344.875 601.716,344.877 601.716,344.877C601.716,344.877 601.021,344.704 600.813,344.511C600.661,344.371 600.643,343.832 600.643,343.832L600.643,338.74C600.74,338.708 600.839,338.682 600.94,338.661C601.041,338.641 601.148,338.631 601.262,338.631C601.48,338.631 601.68,338.676 601.862,338.765C602.044,338.853 602.199,338.971 602.328,339.116C602.458,339.262 602.559,339.431 602.632,339.625C602.704,339.819 602.741,340.025 602.741,340.244C602.741,340.478 602.7,340.684 602.619,340.862C602.539,341.04 602.428,341.189 602.286,341.311C602.145,341.432 601.979,341.525 601.789,341.589C601.599,341.654 601.395,341.686 601.177,341.686L600.946,341.686C600.866,341.686 600.599,341.621 600.599,341.621C600.599,341.621 600.881,341.903 601.201,341.941C601.299,341.952 601.399,341.965 601.504,341.965C601.795,341.965 602.076,341.909 602.347,341.795C602.617,341.682 602.854,341.529 603.056,341.335C603.258,341.141 603.42,340.912 603.541,340.65C603.662,340.387 603.723,340.11 603.723,339.819Z" style="fill:white;fill-rule:nonzero;"/>
                        </g>
                        <g transform="matrix(3.44625,0,0,3.44625,-1912.19,-886.401)">
                            <path d="M599.54,339.302C599.54,339.302 599.742,338.207 599.653,338.207L598.271,338.207L597.469,338.184C597.469,338.184 598.046,338.279 598.461,338.417C598.782,338.524 599.54,338.772 599.54,339.302Z" style="fill:white;fill-rule:nonzero;"/>
                        </g>
                        <g transform="matrix(3.44625,0,0,3.44625,-1913,-890.361)">
                            <path d="M611.803,338.595C611.929,338.53 612.185,338.267 612.185,338.267C611.83,338.243 611.474,338.227 611.118,338.219C610.763,338.211 609.635,338.207 609.635,338.207C609.635,338.207 610.381,338.526 610.433,338.534C610.486,338.542 610.532,338.56 610.573,338.589C610.613,338.617 610.647,338.659 610.676,338.716C610.704,338.773 610.718,338.849 610.718,338.946L610.718,339.892C610.718,340.207 610.722,340.518 610.73,340.826C610.738,341.141 610.742,341.456 610.742,341.771L610.742,342.705C610.742,342.996 610.686,343.25 610.573,343.469C610.46,343.687 610.308,343.871 610.118,344.02C609.928,344.17 609.71,344.283 609.463,344.36C609.217,344.436 608.964,344.475 608.706,344.475C608.447,344.475 608.198,344.438 607.96,344.366C607.722,344.293 607.509,344.184 607.324,344.038C607.138,343.893 606.988,343.713 606.875,343.499C606.762,343.285 606.705,343.036 606.705,342.753C606.705,342.438 606.707,342.121 606.711,341.802C606.715,341.482 606.717,341.161 606.717,340.838L606.717,338.934C606.717,338.756 606.774,338.641 606.887,338.589C607,338.536 607.372,338.288 607.299,338.28C606.628,338.231 605.153,338.207 604.491,338.207C604.491,338.207 605.349,338.542 605.45,338.583C605.551,338.623 605.602,338.744 605.602,338.946L605.602,342.535C605.602,342.584 605.608,342.64 605.62,342.705C605.632,342.769 605.638,342.838 605.638,342.911L605.638,342.899C605.638,343.262 605.737,343.578 605.935,343.844C606.133,344.111 606.384,344.331 606.687,344.505C606.99,344.679 607.321,344.808 607.681,344.893C608.041,344.978 608.382,345.02 608.706,345.02C609.102,345.02 609.478,344.956 609.833,344.826C610.189,344.697 610.498,344.513 610.761,344.275C611.023,344.036 611.231,343.749 611.385,343.414C611.539,343.079 611.615,342.705 611.615,342.293L611.615,338.934C611.615,338.773 611.678,338.659 611.803,338.595Z" style="fill:white;fill-rule:nonzero;"/>
                        </g>
                        <g transform="matrix(3.44625,0,0,3.44625,-1913,-890.361)">
                            <path d="M621.133,346.625C621.717,346.617 622.054,346.225 622.054,346.225C621.09,346.21 620.237,345.467 619.684,344.778C618.633,343.47 618.296,342.879 618.102,342.644C617.98,342.499 617.861,342.359 617.744,342.226C617.627,342.093 617.508,341.965 617.386,341.844C617.524,341.723 617.659,341.587 617.792,341.438C617.926,341.288 618.047,341.129 618.156,340.959C618.265,340.789 618.354,340.611 618.423,340.425C618.492,340.24 618.526,340.054 618.526,339.868C618.526,339.496 618.439,339.201 618.265,338.983C618.091,338.765 617.871,338.599 617.605,338.486C617.338,338.373 617.041,338.3 616.713,338.267C616.386,338.235 616.073,338.219 615.774,338.219C615.685,338.219 613.151,338.207 613.151,338.207C613.086,338.207 613.699,338.311 614.083,338.595C614.158,338.651 614.21,338.752 614.21,338.946L614.21,343.869C614.21,344.022 614.243,344.315 614.113,344.451C613.945,344.625 613.365,344.818 613.438,344.826C613.85,344.851 615.689,344.875 616.101,344.875C616.174,344.875 615.566,344.689 615.44,344.42C615.332,344.189 615.325,343.877 615.325,343.844L615.325,342.244C615.39,342.236 615.432,342.234 615.453,342.238C615.473,342.242 615.515,342.244 615.58,342.244C615.758,342.244 615.954,342.258 616.168,342.286C616.382,342.315 616.558,342.39 616.695,342.511C616.849,342.64 616.994,342.786 617.132,342.947C617.269,343.109 617.728,343.721 618.162,344.287C619.071,345.469 620.159,346.638 621.133,346.625ZM617.386,340.316C617.386,340.729 617.285,341.056 617.083,341.298C616.881,341.541 616.582,341.662 616.186,341.662C616.049,341.662 615.905,341.658 615.756,341.65C615.606,341.642 615.463,341.63 615.325,341.614L615.325,338.692C615.503,338.643 615.689,338.619 615.883,338.619C616.109,338.619 616.315,338.666 616.501,338.758C616.687,338.851 616.847,338.975 616.98,339.128C617.114,339.282 617.215,339.462 617.283,339.668C617.352,339.874 617.386,340.09 617.386,340.316Z" style="fill:white;fill-rule:nonzero;"/>
                        </g>
                        <g transform="matrix(3.44625,0,0,3.44625,-1917.18,-890.361)">
                            <path d="M627.061,339.819C627.061,339.456 626.986,339.169 626.837,338.958C626.687,338.748 626.491,338.587 626.249,338.474C626.006,338.36 625.736,338.288 625.437,338.255C625.137,338.223 624.838,338.207 624.539,338.207C624.45,338.207 624.37,338.209 624.297,338.213C624.224,338.217 624.147,338.219 624.067,338.219L623.691,338.219C623.602,338.219 623.519,338.217 623.442,338.213C623.365,338.209 623.283,338.207 623.194,338.207L621.807,338.207C621.743,338.207 622.666,338.552 622.751,338.589C622.836,338.625 622.878,338.728 622.878,338.898L622.878,343.857C622.878,344.01 622.916,344.249 622.781,344.432C622.614,344.661 622.309,344.826 622.309,344.826L624.77,344.875C624.77,344.875 624.338,344.756 624.151,344.511C623.966,344.268 623.982,343.857 623.982,343.832L623.982,338.74C624.079,338.708 624.178,338.682 624.279,338.661C624.38,338.641 624.487,338.631 624.6,338.631C624.818,338.631 625.018,338.676 625.2,338.765C625.382,338.853 625.538,338.971 625.667,339.116C625.796,339.262 625.897,339.431 625.97,339.625C626.043,339.819 626.079,340.025 626.079,340.244C626.079,340.478 626.039,340.684 625.958,340.862C625.877,341.04 625.766,341.189 625.624,341.311C625.483,341.432 625.317,341.525 625.127,341.589C624.937,341.654 624.733,341.686 624.515,341.686L623.881,341.686C623.8,341.686 624.442,341.925 624.539,341.941C624.636,341.957 624.737,341.965 624.842,341.965C625.133,341.965 625.414,341.909 625.685,341.795C625.956,341.682 626.192,341.529 626.394,341.335C626.596,341.141 626.758,340.912 626.879,340.65C627,340.387 627.061,340.11 627.061,339.819Z" style="fill:white;fill-rule:nonzero;"/>
                        </g>
                        <g transform="matrix(3.44625,0,0,3.44625,-1917.18,-890.361)">
                            <path d="M632.953,343.699C632.953,343.675 632.93,343.295 632.93,343.295C632.93,343.295 632.317,344.03 632.038,344.184C631.759,344.337 631.47,344.414 631.171,344.414C631.026,344.414 630.882,344.394 630.741,344.354C630.599,344.313 630.474,344.253 630.365,344.172C630.256,344.091 630.167,343.99 630.098,343.869C630.029,343.747 629.995,343.606 629.995,343.444L629.995,338.922C629.995,338.777 630.046,338.666 630.147,338.589C630.248,338.512 630.735,338.231 630.735,338.231L627.821,338.207C627.764,338.207 628.464,338.367 628.752,338.589C628.828,338.647 628.88,338.748 628.88,338.934L628.88,343.857C628.88,344.067 628.843,344.24 628.771,344.378C628.698,344.515 628.241,344.806 628.322,344.814C628.718,344.839 632.634,344.847 632.82,344.863C632.82,344.863 632.889,344.335 632.905,344.178C632.921,344.02 632.937,343.861 632.953,343.699Z" style="fill:white;fill-rule:nonzero;"/>
                        </g>
                        <g transform="matrix(3.44625,0,0,3.44625,-1913.69,-856.936)">
                            <path d="M591.15,347.255C591.885,347.228 592.319,346.829 592.177,346.831C590.843,346.933 589.279,346.172 587.754,345.098C586.561,344.259 584.907,342.333 584.616,342.05C584.454,341.888 584.296,341.733 584.143,341.583C583.989,341.434 583.844,341.302 583.706,341.189C583.86,341.068 584.005,340.941 584.143,340.807C584.28,340.674 584.442,340.514 584.628,340.328C584.846,340.126 585.068,339.918 585.295,339.704C585.521,339.49 585.749,339.296 585.98,339.122C586.21,338.948 586.438,338.801 586.665,338.68C586.891,338.558 587.113,338.49 587.331,338.474C587.412,338.465 587.453,338.433 587.453,338.377C587.453,338.312 587.412,338.276 587.331,338.267C587.162,338.251 586.988,338.243 586.81,338.243L586.301,338.243C586.147,338.243 585.998,338.241 585.852,338.237C585.707,338.233 585.557,338.227 585.404,338.219C585.339,338.219 585.295,338.237 585.27,338.274C585.246,338.31 585.254,338.348 585.295,338.389C585.327,338.421 585.343,338.482 585.343,338.571C585.343,338.659 585.288,338.775 585.179,338.916C585.07,339.058 584.931,339.213 584.761,339.383C584.591,339.553 584.405,339.728 584.203,339.91C584.001,340.092 583.803,340.268 583.609,340.438C583.488,340.551 583.369,340.656 583.252,340.753C583.134,340.85 583.031,340.947 582.943,341.044C582.934,340.696 582.928,340.351 582.924,340.007C582.92,339.664 582.918,339.334 582.918,339.019C582.918,338.866 582.979,338.738 583.1,338.637C583.221,338.536 583.702,338.267 583.702,338.267C583.702,338.267 580.93,338.219 580.542,338.219C580.477,338.219 581.41,338.455 581.676,338.607C581.757,338.653 581.803,338.76 581.803,338.946L581.803,343.869C581.803,344.022 581.785,344.276 581.706,344.445C581.592,344.686 581.233,344.839 581.233,344.839C581.233,344.839 583.242,344.875 583.646,344.875C583.727,344.875 583.183,344.724 582.991,344.445C582.887,344.294 582.918,344.014 582.918,343.844L582.918,341.735C583.088,341.872 583.231,342.004 583.349,342.129C583.466,342.254 583.63,342.422 583.84,342.632C584.114,342.907 585.716,344.675 586.811,345.514C588.78,347.022 590.456,347.281 591.15,347.255Z" style="fill:white;fill-rule:nonzero;"/>
                        </g>
                        <g transform="matrix(3.44625,0,0,3.44625,-1913.69,-856.936)">
                            <path d="M592.084,344.875C592.084,344.875 591.672,344.707 591.502,344.523C591.317,344.324 591.32,343.865 591.32,343.832L591.32,338.934C591.32,338.74 591.377,338.619 591.49,338.571C591.603,338.522 591.963,338.263 591.89,338.255C591.704,338.239 589.243,338.255 589.243,338.255C589.243,338.255 589.92,338.52 590.053,338.589C590.186,338.657 590.253,338.773 590.253,338.934L590.253,343.869C590.253,343.933 590.252,344.323 590.077,344.529C589.914,344.723 589.647,344.863 589.647,344.863C589.647,344.863 591.948,344.867 592.084,344.875Z" style="fill:white;fill-rule:nonzero;"/>
                        </g>
                        <g transform="matrix(3.44625,0,0,3.44625,-1913.69,-856.936)">
                            <path d="M600.886,338.494C601.022,338.396 601.315,338.218 601.315,338.218C601.024,338.202 599.104,338.207 599.104,338.207C599.039,338.207 599.673,338.564 599.722,338.601C599.77,338.637 599.811,338.694 599.843,338.771C599.875,338.847 599.892,338.95 599.892,339.08L599.892,339.819C599.892,339.949 599.89,340.074 599.886,340.195C599.882,340.316 599.879,340.442 599.879,340.571C599.879,340.773 599.884,340.987 599.892,341.214C599.9,341.44 599.912,341.654 599.928,341.856C599.936,342.107 599.944,342.351 599.952,342.59C599.96,342.828 599.96,343.073 599.952,343.323C599.047,342.434 598.138,341.555 597.224,340.686C596.311,339.817 595.39,338.954 594.46,338.098C594.444,338.082 594.109,337.896 594.109,337.96L594.109,344.087C594.109,344.249 594.06,344.372 593.963,344.457C593.866,344.542 593.43,344.778 593.43,344.778L595.782,344.863C595.782,344.863 595.262,344.671 595.097,344.402C594.98,344.213 594.957,344.018 594.957,343.881C594.957,343.574 594.953,343.271 594.945,342.971C594.937,342.672 594.925,342.373 594.909,342.074C594.893,341.767 594.878,341.464 594.866,341.165C594.854,340.866 594.848,340.563 594.848,340.256L594.848,340.025C594.848,339.953 594.852,339.88 594.86,339.807L595.491,340.425L595.479,340.425C596.254,341.209 597.045,341.987 597.849,342.759C598.653,343.531 599.508,344.257 600.413,344.936C600.461,344.96 600.635,345.113 600.643,345.065C600.692,344.556 600.724,343.846 600.74,343.341C600.756,342.836 600.765,342.325 600.765,341.808C600.765,341.581 600.763,341.329 600.758,341.05C600.754,340.771 600.752,340.514 600.752,340.28C600.744,340.029 600.74,339.783 600.74,339.54L600.74,338.777C600.74,338.688 600.8,338.555 600.886,338.494Z" style="fill:white;fill-rule:nonzero;"/>
                        </g>
                        <g transform="matrix(3.44625,0,0,3.44625,-1913.69,-856.936)">
                            <path d="M618.768,341.456L618.768,341.117C618.768,340.995 618.76,340.878 618.744,340.765C618.704,340.409 618.548,340.074 618.277,339.759C618.007,339.443 617.685,339.171 617.314,338.94C616.942,338.71 616.55,338.528 616.138,338.395C615.725,338.261 615.358,338.195 615.034,338.195C614.865,338.195 610.694,338.207 610.694,338.207C610.694,338.207 611.584,338.344 611.796,338.526C611.876,338.595 611.955,338.736 611.955,338.898L611.955,343.82C611.955,344.095 611.906,344.277 611.852,344.39C611.708,344.688 611.328,344.826 611.409,344.826C611.66,344.818 614.206,344.948 614.44,344.948C615.014,344.948 615.564,344.887 616.089,344.766C616.614,344.645 617.075,344.447 617.471,344.172C617.867,343.897 618.182,343.537 618.417,343.093C618.651,342.648 618.768,342.103 618.768,341.456ZM617.665,341.795C617.665,342.28 617.576,342.691 617.398,343.026C617.221,343.361 616.982,343.636 616.683,343.85C616.384,344.065 616.037,344.22 615.64,344.317C615.244,344.414 614.832,344.463 614.404,344.463C614.202,344.463 614.02,344.455 613.858,344.438C613.697,344.422 613.557,344.382 613.44,344.317C613.323,344.253 613.234,344.156 613.173,344.026C613.113,343.897 613.082,343.719 613.082,343.493L613.082,338.813C613.244,338.765 613.406,338.732 613.567,338.716C613.729,338.7 613.891,338.692 614.052,338.692C614.529,338.692 614.986,338.756 615.422,338.886C615.859,339.015 616.243,339.207 616.574,339.462C616.905,339.716 617.17,340.04 617.368,340.432C617.566,340.824 617.665,341.278 617.665,341.795Z" style="fill:white;fill-rule:nonzero;"/>
                        </g>
                        <g transform="matrix(3.44625,0,0,3.44625,-1913.69,-856.936)">
                            <path d="M627.74,341.723C627.74,341.222 627.637,340.745 627.431,340.292C627.225,339.839 626.948,339.443 626.6,339.104C626.253,338.765 625.851,338.494 625.394,338.292C624.937,338.09 624.459,337.989 623.957,337.989C623.448,337.989 622.949,338.065 622.46,338.219C621.971,338.373 621.535,338.597 621.151,338.892C620.767,339.187 620.456,339.549 620.217,339.977C619.979,340.405 619.86,340.894 619.86,341.444C619.86,341.945 619.969,342.412 620.187,342.844C620.405,343.277 620.692,343.65 621.048,343.966C621.403,344.281 621.814,344.529 622.278,344.711C622.743,344.893 623.218,344.984 623.703,344.984C624.188,344.984 624.671,344.915 625.152,344.778C625.633,344.641 626.065,344.434 626.449,344.16C626.833,343.885 627.144,343.543 627.382,343.135C627.621,342.727 627.74,342.256 627.74,341.723ZM626.661,341.698C626.661,342.111 626.596,342.489 626.467,342.832C626.338,343.176 626.154,343.471 625.915,343.717C625.677,343.964 625.39,344.154 625.055,344.287C624.719,344.42 624.345,344.487 623.933,344.487C623.489,344.487 623.084,344.4 622.721,344.226C622.357,344.053 622.044,343.818 621.781,343.523C621.518,343.228 621.314,342.887 621.169,342.499C621.023,342.111 620.951,341.703 620.951,341.274C620.951,340.854 621.019,340.476 621.157,340.141C621.294,339.805 621.486,339.518 621.733,339.28C621.979,339.041 622.274,338.857 622.618,338.728C622.961,338.599 623.335,338.534 623.739,338.534C624.176,338.534 624.574,338.619 624.933,338.789C625.293,338.958 625.6,339.189 625.855,339.48C626.109,339.771 626.307,340.108 626.449,340.492C626.59,340.876 626.661,341.278 626.661,341.698Z" style="fill:white;fill-rule:nonzero;"/>
                        </g>
                        <g transform="matrix(3.44625,0,0,3.44625,-1917.87,-823.51)">
                            <path d="M608.002,341.844C608.132,341.787 608.782,341.517 608.782,341.517C608.386,341.5 607.588,341.49 607.196,341.486C606.804,341.482 604.992,341.48 604.588,341.48C604.515,341.48 606.201,341.815 606.351,341.884C606.662,342.026 606.693,342.061 606.693,342.174L606.693,344.087C606.531,344.216 606.348,344.299 606.141,344.335C605.935,344.372 605.735,344.39 605.541,344.39C605.097,344.39 604.664,344.313 604.244,344.16C603.824,344.006 603.452,343.79 603.129,343.511C602.805,343.232 602.545,342.897 602.347,342.505C602.149,342.113 602.05,341.678 602.05,341.201C602.05,340.765 602.139,340.379 602.316,340.044C602.494,339.708 602.731,339.425 603.026,339.195C603.321,338.965 603.656,338.791 604.032,338.674C604.408,338.556 604.794,338.498 605.19,338.498C605.424,338.498 605.661,338.522 605.899,338.571C606.137,338.619 606.356,338.698 606.554,338.807C606.752,338.916 606.923,339.06 607.069,339.237C607.214,339.415 607.311,339.633 607.36,339.892C607.376,339.932 607.413,340.115 607.413,340.115C607.413,340.115 607.681,339.856 607.718,339.71C607.754,339.565 607.782,339.405 607.802,339.231C607.823,339.058 607.835,338.892 607.839,338.734C607.843,338.577 607.845,338.47 607.845,338.413C607.845,338.348 607.804,338.316 607.724,338.316C607.578,338.3 606.299,338.132 605.996,338.104C605.693,338.075 605.4,338.061 605.117,338.061C604.608,338.061 604.107,338.124 603.614,338.249C603.121,338.375 602.68,338.571 602.292,338.837C601.904,339.104 601.589,339.445 601.346,339.862C601.104,340.278 600.983,340.773 600.983,341.347C600.983,341.848 601.072,342.311 601.249,342.735C601.427,343.159 601.674,343.529 601.989,343.844C602.304,344.16 602.676,344.412 603.104,344.602C603.533,344.792 603.994,344.903 604.487,344.936C604.64,344.944 604.79,344.95 604.935,344.954C605.081,344.958 605.23,344.96 605.384,344.96C605.578,344.96 605.78,344.954 605.99,344.942C606.2,344.929 606.408,344.907 606.614,344.875C606.82,344.843 607.02,344.794 607.214,344.729C607.408,344.665 607.586,344.58 607.748,344.475C607.764,344.467 607.778,344.453 607.79,344.432C607.802,344.412 607.808,344.394 607.808,344.378L607.808,342.159C607.808,342.006 607.873,341.901 608.002,341.844Z" style="fill:white;fill-rule:nonzero;"/>
                        </g>
                        <g transform="matrix(3.44625,0,0,3.44625,-1908.34,-856.916)">
                            <path d="M608.002,341.844C608.132,341.787 608.782,341.517 608.782,341.517C608.386,341.5 607.588,341.49 607.196,341.486C606.804,341.482 606.204,341.48 605.8,341.48C605.727,341.48 606.143,341.616 606.293,341.684C606.605,341.827 606.693,342.022 606.693,342.135L606.693,344.087C606.531,344.216 606.348,344.299 606.141,344.335C605.935,344.372 605.735,344.39 605.541,344.39C605.097,344.39 604.664,344.313 604.244,344.16C603.824,344.006 603.452,343.79 603.129,343.511C602.805,343.232 602.545,342.897 602.347,342.505C602.149,342.113 602.05,341.678 602.05,341.201C602.05,340.765 602.139,340.379 602.316,340.044C602.494,339.708 602.731,339.425 603.026,339.195C603.321,338.965 603.656,338.791 604.032,338.674C604.408,338.556 604.794,338.498 605.19,338.498C605.424,338.498 605.661,338.522 605.899,338.571C606.137,338.619 606.356,338.698 606.554,338.807C606.752,338.916 606.923,339.06 607.069,339.237C607.214,339.415 607.311,339.633 607.36,339.892C607.376,339.932 607.413,340.115 607.413,340.115C607.413,340.115 607.681,339.856 607.718,339.71C607.754,339.565 607.782,339.405 607.802,339.231C607.823,339.058 607.835,338.892 607.839,338.734C607.843,338.577 607.845,338.47 607.845,338.413C607.845,338.348 607.804,338.316 607.724,338.316C607.578,338.3 606.299,338.132 605.996,338.104C605.693,338.075 605.4,338.061 605.117,338.061C604.608,338.061 604.107,338.124 603.614,338.249C603.121,338.375 602.68,338.571 602.292,338.837C601.904,339.104 601.589,339.445 601.346,339.862C601.104,340.278 600.983,340.773 600.983,341.347C600.983,341.848 601.072,342.311 601.249,342.735C601.427,343.159 601.674,343.529 601.989,343.844C602.304,344.16 602.676,344.412 603.104,344.602C603.533,344.792 603.994,344.903 604.487,344.936C604.64,344.944 604.79,344.95 604.935,344.954C605.081,344.958 605.23,344.96 605.384,344.96C605.578,344.96 605.78,344.954 605.99,344.942C606.2,344.929 606.408,344.907 606.614,344.875C606.82,344.843 607.02,344.794 607.214,344.729C607.408,344.665 607.586,344.58 607.748,344.475C607.764,344.467 607.778,344.453 607.79,344.432C607.802,344.412 607.808,344.394 607.808,344.378L607.808,342.159C607.808,342.006 607.873,341.901 608.002,341.844Z" style="fill:white;fill-rule:nonzero;"/>
                        </g>
                        <g transform="matrix(3.44625,0,0,3.44625,-1917.87,-823.51)">
                            <path d="M616.635,344.822C616.635,344.822 616.272,344.611 616.113,344.494C615.969,344.388 615.81,344.285 615.713,344.099C615.406,343.541 615.125,342.965 614.871,342.371C614.616,341.777 614.363,341.189 614.113,340.607L613.579,339.359L613.579,339.371C613.563,339.346 613.547,339.312 613.531,339.268C613.515,339.223 613.495,339.173 613.47,339.116L613.47,339.128C613.43,339.039 613.385,338.938 613.337,338.825C613.288,338.712 613.236,338.605 613.179,338.504C613.123,338.403 613.066,338.312 613.01,338.231C612.953,338.15 612.806,337.929 612.806,337.929C612.806,337.929 612.69,338.065 612.658,338.122C612.416,338.688 612.175,339.254 611.937,339.819C611.698,340.385 611.462,340.955 611.227,341.529C611.066,341.917 610.898,342.315 610.724,342.723C610.55,343.131 610.383,343.529 610.221,343.917C610.181,343.99 610.126,344.071 610.057,344.16C609.989,344.249 609.914,344.327 609.833,344.396C609.752,344.465 609.275,344.778 609.275,344.778L611.409,344.814C611.49,344.814 610.985,344.673 610.985,344.354C610.985,344.281 611.011,344.158 611.064,343.984C611.116,343.81 611.183,343.622 611.264,343.42C611.345,343.218 611.425,343.016 611.506,342.814C611.587,342.612 611.66,342.446 611.724,342.317L613.676,342.317C613.846,342.697 614.008,343.06 614.161,343.408C614.315,343.755 614.473,344.119 614.634,344.499L614.358,344.797C614.309,344.837 616.441,344.839 616.635,344.822ZM613.458,341.795L611.918,341.795C612.072,341.432 612.203,341.09 612.312,340.771C612.422,340.452 612.545,340.114 612.682,339.759L613.458,341.795Z" style="fill:white;fill-rule:nonzero;"/>
                        </g>
                        <g transform="matrix(3.44625,0,0,3.44625,-1917.87,-823.51)">
                            <path d="M627.374,344.834C627.374,344.834 627.017,344.636 626.848,344.491C626.61,344.287 626.659,343.982 626.606,343.723C626.554,343.465 626.505,343.178 626.461,342.862C626.417,342.547 626.38,342.226 626.352,341.899C626.324,341.571 626.297,341.282 626.273,341.032C626.257,340.919 626.247,340.822 626.243,340.741C626.239,340.66 626.233,340.587 626.225,340.522C626.128,339.738 626.018,338.95 625.897,338.158C625.889,338.11 625.811,337.886 625.811,337.886C625.811,337.886 625.683,338.069 625.643,338.11C625.481,338.344 624.927,339.294 624.806,339.528C624.766,339.601 624.721,339.682 624.673,339.771C624.624,339.86 624.58,339.941 624.539,340.013C624.418,340.248 624.295,340.48 624.17,340.71C624.044,340.941 623.921,341.173 623.8,341.408C623.622,341.747 623.446,342.082 623.272,342.414C623.099,342.745 622.919,343.081 622.733,343.42C622.66,343.299 622.583,343.157 622.503,342.996C622.422,342.834 622.296,342.6 622.127,342.293C621.908,341.905 621.674,341.48 621.424,341.02C621.173,340.559 620.93,340.124 620.696,339.716C620.462,339.308 620.25,338.954 620.06,338.655C619.87,338.356 619.461,337.904 619.461,337.904C619.461,337.904 619.395,338.11 619.387,338.158C619.379,338.207 619.371,338.274 619.362,338.358C619.354,338.443 619.342,338.538 619.326,338.643C619.294,338.902 619.257,339.217 619.217,339.589C619.177,339.961 619.132,340.353 619.084,340.765C619.035,341.177 618.985,341.591 618.932,342.008C618.88,342.424 618.829,342.802 618.781,343.141C618.732,343.481 618.688,343.768 618.647,344.002C618.607,344.236 618.574,344.378 618.55,344.426C618.518,344.491 618.447,344.59 618.388,344.619C618.198,344.714 617.976,344.839 618.049,344.847C618.397,344.863 620.09,344.863 620.09,344.863C620.09,344.863 619.732,344.719 619.55,344.39C619.534,344.36 619.546,342.955 619.599,342.535C619.651,342.115 619.71,341.694 619.775,341.274C619.799,341.121 619.823,340.971 619.847,340.826C619.872,340.68 619.892,340.527 619.908,340.365C619.981,340.486 620.039,340.591 620.084,340.68C620.128,340.769 620.783,342.06 620.933,342.347C621.082,342.634 621.242,342.919 621.411,343.202C621.581,343.485 621.757,343.762 621.939,344.032C622.121,344.303 622.641,345.146 622.641,345.146C622.641,345.146 623,344.313 623.121,344.087C623.242,343.861 623.363,343.63 623.485,343.396C623.759,342.879 624.032,342.363 624.303,341.85C624.574,341.337 624.863,340.83 625.17,340.328C625.178,340.466 625.311,341.403 625.327,341.541C625.384,341.985 625.437,342.43 625.485,342.874C625.534,343.319 625.558,343.76 625.558,344.196C625.558,344.277 625.556,344.356 625.552,344.432C625.548,344.509 625.266,344.839 625.266,344.839L627.374,344.834Z" style="fill:white;fill-rule:nonzero;"/>
                        </g>
                        <g transform="matrix(3.44625,0,0,3.44625,-1876.99,-856.957)">
                            <path d="M627.374,344.834C627.374,344.834 627.017,344.636 626.848,344.491C626.61,344.287 626.659,343.982 626.606,343.723C626.554,343.465 626.505,343.178 626.461,342.862C626.417,342.547 626.38,342.226 626.352,341.899C626.324,341.571 626.297,341.282 626.273,341.032C626.257,340.919 626.247,340.822 626.243,340.741C626.239,340.66 626.233,340.587 626.225,340.522C626.128,339.738 626.018,338.95 625.897,338.158C625.889,338.11 625.811,337.886 625.811,337.886C625.811,337.886 625.683,338.069 625.643,338.11C625.481,338.344 624.927,339.294 624.806,339.528C624.766,339.601 624.721,339.682 624.673,339.771C624.624,339.86 624.58,339.941 624.539,340.013C624.418,340.248 624.295,340.48 624.17,340.71C624.044,340.941 623.921,341.173 623.8,341.408C623.622,341.747 623.446,342.082 623.272,342.414C623.099,342.745 622.919,343.081 622.733,343.42C622.66,343.299 622.583,343.157 622.503,342.996C622.422,342.834 622.296,342.6 622.127,342.293C621.908,341.905 621.674,341.48 621.424,341.02C621.173,340.559 620.93,340.124 620.696,339.716C620.462,339.308 620.25,338.954 620.06,338.655C619.87,338.356 619.461,337.904 619.461,337.904C619.461,337.904 619.395,338.11 619.387,338.158C619.379,338.207 619.371,338.274 619.362,338.358C619.354,338.443 619.342,338.538 619.326,338.643C619.294,338.902 619.257,339.217 619.217,339.589C619.177,339.961 619.132,340.353 619.084,340.765C619.035,341.177 618.985,341.591 618.932,342.008C618.88,342.424 618.829,342.802 618.781,343.141C618.732,343.481 618.688,343.768 618.647,344.002C618.607,344.236 618.574,344.378 618.55,344.426C618.518,344.491 618.447,344.59 618.388,344.619C618.198,344.714 617.976,344.839 618.049,344.847C618.397,344.863 620.09,344.863 620.09,344.863C620.09,344.863 619.732,344.719 619.55,344.39C619.534,344.36 619.546,342.955 619.599,342.535C619.651,342.115 619.71,341.694 619.775,341.274C619.799,341.121 619.823,340.971 619.847,340.826C619.872,340.68 619.892,340.527 619.908,340.365C619.981,340.486 620.039,340.591 620.084,340.68C620.128,340.769 620.783,342.06 620.933,342.347C621.082,342.634 621.242,342.919 621.411,343.202C621.581,343.485 621.757,343.762 621.939,344.032C622.121,344.303 622.641,345.146 622.641,345.146C622.641,345.146 623,344.313 623.121,344.087C623.242,343.861 623.363,343.63 623.485,343.396C623.759,342.879 624.032,342.363 624.303,341.85C624.574,341.337 624.863,340.83 625.17,340.328C625.178,340.466 625.311,341.403 625.327,341.541C625.384,341.985 625.437,342.43 625.485,342.874C625.534,343.319 625.558,343.76 625.558,344.196C625.558,344.277 625.556,344.356 625.552,344.432C625.548,344.509 625.266,344.839 625.266,344.839L627.374,344.834Z" style="fill:white;fill-rule:nonzero;"/>
                        </g>
                        <g transform="matrix(3.44625,0,0,3.44625,-1917.87,-823.51)">
                            <path d="M633.523,343.65C633.531,343.626 633.561,343.408 633.561,343.408L633.244,343.614C633.244,343.614 633.124,344.074 632.808,344.226C632.581,344.336 632.351,344.414 632.092,344.414C631.882,344.414 631.66,344.374 631.426,344.293C631.191,344.212 631.009,344.083 630.88,343.905L630.88,341.553L631.401,341.553C631.547,341.553 631.694,341.557 631.844,341.565C631.993,341.573 632.129,341.587 632.25,341.608C632.371,341.628 632.657,341.697 632.695,341.733C632.812,341.841 632.929,342.244 632.929,342.244C632.929,342.244 633.006,342.2 633.014,342.159C633.03,342.046 633.046,341.941 633.062,341.844C633.079,341.747 633.095,341.65 633.111,341.553C633.127,341.448 633.141,341.323 633.153,341.177C633.165,341.032 633.18,340.906 633.196,340.801C633.204,340.761 633.153,340.698 633.153,340.698C633.153,340.698 632.909,340.977 632.845,341.005C632.78,341.034 632.375,341.044 632.335,341.044L630.88,341.044L630.88,338.728L632.226,338.737C632.226,338.737 632.55,338.729 632.711,339.007C632.76,339.092 632.8,339.197 632.808,339.334C632.816,339.399 632.881,339.567 632.881,339.567C632.881,339.567 633.07,339.403 633.087,339.346C633.103,339.298 633.115,339.249 633.123,339.201C633.131,339.152 633.143,339.1 633.159,339.043C633.192,338.914 633.224,338.785 633.256,338.655C633.289,338.526 633.313,338.385 633.329,338.231C633.337,338.191 633.321,338.158 633.281,338.134C633.24,338.11 633.192,338.106 633.135,338.122C633.022,338.162 628.682,338.195 628.682,338.195C628.682,338.195 628.936,338.356 629.001,338.389C629.066,338.429 629.132,338.457 629.201,338.474C629.27,338.49 629.336,338.506 629.401,338.522C629.49,338.538 629.573,338.569 629.65,338.613C629.726,338.657 629.765,338.748 629.765,338.886L629.765,343.857C629.765,344.075 629.728,344.251 629.656,344.384C629.583,344.517 628.965,344.822 629.038,344.83C629.32,344.847 633.123,344.83 633.172,344.814L633.269,344.766L633.523,343.65Z" style="fill:white;fill-rule:nonzero;"/>
                        </g>
                        <g transform="matrix(3.44625,0,0,3.44625,-1899.75,-890.396)">
                            <path d="M633.523,343.65C633.531,343.626 633.561,343.408 633.561,343.408L633.244,343.614C633.244,343.614 633.124,344.074 632.808,344.226C632.581,344.336 632.351,344.414 632.092,344.414C631.882,344.414 631.66,344.374 631.426,344.293C631.191,344.212 631.009,344.083 630.88,343.905L630.88,341.553L631.401,341.553C631.547,341.553 631.694,341.557 631.844,341.565C631.993,341.573 632.129,341.587 632.25,341.608C632.371,341.628 632.657,341.697 632.695,341.733C632.812,341.841 632.929,342.244 632.929,342.244C632.929,342.244 633.006,342.2 633.014,342.159C633.03,342.046 633.046,341.941 633.062,341.844C633.079,341.747 633.095,341.65 633.111,341.553C633.127,341.448 633.141,341.323 633.153,341.177C633.165,341.032 633.18,340.906 633.196,340.801C633.204,340.761 633.153,340.698 633.153,340.698C633.153,340.698 632.909,340.977 632.845,341.005C632.78,341.034 632.375,341.044 632.335,341.044L630.88,341.044L630.88,338.728L632.226,338.737C632.226,338.737 632.55,338.729 632.711,339.007C632.76,339.092 632.8,339.197 632.808,339.334C632.816,339.399 632.881,339.567 632.881,339.567C632.881,339.567 633.07,339.403 633.087,339.346C633.103,339.298 633.115,339.249 633.123,339.201C633.131,339.152 633.143,339.1 633.159,339.043C633.192,338.914 633.224,338.785 633.256,338.655C633.289,338.526 633.313,338.385 633.329,338.231C633.337,338.191 633.321,338.158 633.281,338.134C633.24,338.11 633.192,338.106 633.135,338.122C633.022,338.162 628.682,338.195 628.682,338.195C628.682,338.195 628.936,338.356 629.001,338.389C629.066,338.429 629.132,338.457 629.201,338.474C629.27,338.49 629.336,338.506 629.401,338.522C629.49,338.538 629.573,338.569 629.65,338.613C629.726,338.657 629.765,338.748 629.765,338.886L629.765,343.857C629.765,344.075 629.728,344.251 629.656,344.384C629.583,344.517 628.965,344.822 629.038,344.83C629.32,344.847 633.123,344.83 633.172,344.814L633.269,344.766L633.523,343.65Z" style="fill:white;fill-rule:nonzero;"/>
                        </g>
                        <g transform="matrix(3.44625,0,0,3.44625,-1917.87,-823.51)">
                            <path d="M638.652,343.081C638.526,342.399 638.223,342.123 638.07,341.953C637.916,341.783 637.742,341.624 637.548,341.474C637.354,341.325 637.164,341.177 636.978,341.032C636.833,340.919 636.683,340.801 636.53,340.68C636.376,340.559 636.237,340.432 636.112,340.298C635.986,340.165 635.885,340.029 635.808,339.892C635.732,339.755 635.693,339.617 635.693,339.48C635.693,339.326 635.726,339.189 635.79,339.068C635.855,338.946 635.94,338.845 636.045,338.765C636.15,338.684 636.269,338.621 636.403,338.577C636.536,338.532 636.671,338.51 636.809,338.51C636.946,338.51 637.081,338.53 637.215,338.571C637.348,338.611 637.469,338.672 637.579,338.752C637.688,338.833 637.763,338.94 637.845,339.043C638.017,339.259 638.039,339.596 638.039,339.596C638.039,339.596 638.316,339.395 638.367,339.11C638.396,338.946 638.385,338.781 638.385,338.619L638.385,338.216C638.385,338.216 637.605,338.049 637.257,338.049C637.039,338.049 636.778,338.075 636.475,338.128C636.172,338.181 635.883,338.267 635.608,338.389C635.334,338.51 635.101,338.672 634.911,338.874C634.721,339.076 634.626,339.326 634.626,339.625C634.626,339.811 634.673,339.991 634.766,340.165C634.859,340.339 634.982,340.512 635.136,340.686C635.289,340.86 635.461,341.032 635.651,341.201C635.841,341.371 636.033,341.537 636.227,341.698C636.396,341.844 636.564,341.989 636.73,342.135C636.896,342.28 637.045,342.43 637.178,342.584C637.312,342.737 637.421,342.887 637.506,343.032C637.591,343.178 637.633,343.323 637.633,343.469C637.633,343.63 637.589,343.772 637.5,343.893C637.411,344.014 637.298,344.115 637.16,344.196C637.023,344.277 636.875,344.339 636.718,344.384C636.56,344.428 636.417,344.451 636.287,344.451C636.134,344.451 635.978,344.43 635.821,344.39C635.663,344.35 635.519,344.287 635.39,344.202C635.261,344.117 635.154,344.014 635.081,343.887C634.887,343.549 634.857,343.202 634.857,343.202C634.857,343.202 634.679,343.537 634.638,343.626C634.606,343.715 634.58,343.802 634.56,343.887C634.539,343.972 634.529,344.055 634.529,344.135C634.529,344.305 634.576,344.445 634.669,344.554C634.762,344.663 634.875,344.75 635.008,344.814C635.142,344.879 635.285,344.923 635.439,344.948C635.592,344.972 635.734,344.984 635.863,344.984C636.122,344.984 637.095,345.149 637.836,344.706C638.753,344.158 638.73,343.498 638.652,343.081Z" style="fill:white;fill-rule:nonzero;"/>
                        </g>
                    </g>
                </g>
            </g>
        </g>
    </g>
    <defs>
        <linearGradient id="_Linear1" x1="0" y1="0" x2="1" y2="0" gradientUnits="userSpaceOnUse" gradientTransform="matrix(9.54211e-15,90.001,-155.834,5.51097e-15,312.185,267.508)"><stop offset="0" style="stop-color:rgb(255,0,251);stop-opacity:1"/><stop offset="1" style="stop-color:rgb(255,121,223);stop-opacity:1"/></linearGradient>
    </defs>
</svg>
