<?xml version="1.0" encoding="UTF-8" standalone="no"?><!-- Generator: Gravit.io --><svg xmlns="http://www.w3.org/2000/svg" xmlns:xlink="http://www.w3.org/1999/xlink" style="isolation:isolate" viewBox="0 0 410 410" width="410pt" height="410pt"><defs><clipPath id="_clipPath_tFqgcn4QmwVZUOTH4gBEim8s7KzdhrCl"><rect width="410" height="410"/></clipPath></defs><g clip-path="url(#_clipPath_tFqgcn4QmwVZUOTH4gBEim8s7KzdhrCl)"><path d=" M 390.489 323 L 370 383 L 224.649 407.108 L 67 396 L 18 333 L 18 187 L 18 70 L 75 15.108 L 209.046 15.108 L 347 15.108 L 390.489 70 L 390.489 187 L 390.489 323 Z " fill="rgb(20,0,42)"/><g><g><linearGradient id="_lgradient_0" x1="-0.07997876555358507" y1="0.03361638213074736" x2="-0.07997876555358518" y2="0.6544383141990364" gradientTransform="matrix(303.323,0,0,264.092,53.14,79.881)" gradientUnits="userSpaceOnUse"><stop offset="0%" stop-opacity="1" style="stop-color:rgb(255,0,251)"/><stop offset="100%" stop-opacity="1" style="stop-color:rgb(255,121,223)"/></linearGradient><path d=" M 54.397 89.835 C 66.285 93.553 80.86 96.891 94.869 96.891 C 126.775 96.891 153.09 79.881 153.09 79.881 C 153.09 79.881 181.843 96.891 215.624 96.891 C 249.405 96.891 266.656 79.881 266.656 79.881 C 266.656 79.881 293.252 96.891 317.688 96.891 C 333.119 96.891 346.258 90.092 353.846 85.093 C 355.542 90.034 356.463 95.332 356.463 100.846 L 356.463 309.699 C 356.463 323.072 351.042 335.19 342.278 343.974 C 338.676 342.856 335.01 341.741 331.287 340.63 C 297.288 330.485 254.78 320.032 223.019 317.319 L 203.706 194.256 L 219.029 181.969 L 219.936 141.952 L 187.62 141.952 L 187.62 166.668 L 163.859 166.668 L 163.859 141.952 L 132.289 141.952 L 132.289 166.668 L 106.563 166.708 L 106.563 141.952 L 70.433 141.952 L 71.34 181.956 L 86.645 194.349 L 67.344 317.334 C 62.729 317.866 58.285 318.424 54.032 318.996 C 53.447 315.987 53.14 312.879 53.14 309.699 L 53.14 100.846 C 53.14 97.058 53.576 93.37 54.397 89.835 Z  M 199.062 315.51 L 192.58 272.077 C 192.58 272.077 190.438 265.532 178.938 265.532 C 164.56 265.532 165.31 272.077 165.31 272.077 L 164.544 313.067 C 179.231 313.493 186.465 314.373 199.062 315.51 Z  M 253.658 288.829 C 259.125 290.259 262.405 295.859 260.975 301.328 C 259.546 306.795 253.945 310.075 248.478 308.645 C 243.009 307.215 239.73 301.615 241.16 296.148 C 242.589 290.679 248.19 287.4 253.658 288.829 Z  M 290.338 257.481 C 299.901 259.981 305.635 269.774 303.136 279.337 C 300.636 288.898 290.843 294.632 281.28 292.132 C 271.719 289.633 265.985 279.84 268.484 270.278 C 270.984 260.715 280.777 254.981 290.338 257.481 Z  M 310.562 166.203 C 330.924 171.527 343.134 192.379 337.81 212.74 C 332.489 233.102 311.634 245.312 291.273 239.989 C 270.911 234.667 258.701 213.813 264.025 193.451 C 269.348 173.09 290.201 160.879 310.562 166.203 Z " fill-rule="evenodd" fill="url(#_lgradient_0)"/></g><g><path d=" M 409.604 90.103 C 409.604 40.373 369.231 0 319.501 0 C 319.501 0 90.104 0 90.104 0 C 40.374 0 -0.001 40.373 -0.001 90.103 C -0.001 90.103 -0.001 319.5 -0.001 319.5 C -0.001 369.23 40.374 409.606 90.104 409.606 C 90.104 409.606 319.501 409.606 319.501 409.606 C 369.231 409.606 409.604 369.23 409.604 319.5 C 409.604 319.5 409.604 90.103 409.604 90.103 Z  M 384.766 90.103 L 384.766 319.5 C 384.766 355.523 355.522 384.767 319.501 384.767 L 90.104 384.767 C 54.084 384.767 24.837 355.523 24.837 319.5 L 24.837 90.103 C 24.837 54.083 54.084 24.839 90.104 24.839 L 319.501 24.839 C 355.522 24.839 384.766 54.083 384.766 90.103 Z " fill-rule="evenodd" fill="rgb(116,32,160)"/></g></g></g></svg>