<svg viewBox="0 0 526 717" xmlns="http://www.w3.org/2000/svg" fill-rule="evenodd" clip-rule="evenodd" stroke-linejoin="round" stroke-miterlimit="2"><path d="M338.807 229.316a8.063 8.063 0 01-1.695-4.962c0-4.44 3.559-8.038 7.947-8.038 4.39 0 7.948 3.599 7.948 8.038 0 3.222-1.874 6-4.58 7.283 11.805 18.57 18.653 40.67 18.653 64.388 0 65.848-52.78 119.229-117.888 119.229s-117.887-53.38-117.887-119.229c0-23.713 6.845-45.81 18.646-64.377a8.046 8.046 0 01-4.602-7.294c0-4.44 3.559-8.038 7.947-8.038 4.39 0 7.948 3.599 7.948 8.038a8.06 8.06 0 01-1.491 4.688h.025c-13.73 18.716-21.85 41.89-21.85 66.983 0 62.15 49.814 112.53 111.264 112.53 61.45 0 111.265-50.38 111.265-112.53 0-24.971-8.042-48.042-21.65-66.709z" fill="#7420a0"/><path d="M340.157 262.634s18.356 9.354 29.757 9.354c26.658 0 37.406-9.354 37.406-9.354s13.628 9.354 41.967 9.354c2.652 0 5.247-.094 7.756-.256v20.805h-23.265l.577 24.561 9.713 7.609-12.249 75.51c-25.089 2.794-42.092 6.763-44.682 7.388-31.712-25.871-51.893-64.816-51.893-108.373 0-12.659.441-24.925 4.913-36.598zm278.477 0c4.052 11.414 4.911 23.939 4.911 36.598 0 43.399-20.034 82.219-51.548 108.091v-.081s-15.744-4.133-41.378-7.036l-12.258-75.555 9.724-7.544.577-24.57h-23.265v15.176h-10.948v-15.176h-25.546v15.176h-8.667v-36.227c15.405 0 26.001-8.852 26.001-8.852s11.968 9.354 39.687 9.354c24.25 0 32.388-9.354 32.388-9.354s13.601 9.354 32.389 9.354c18.787 0 27.933-9.354 27.933-9.354zm-99.087 136.463l-4.115-26.667s-2.737-4.018-10.035-4.018c-9.125 0-11.404 4.018-11.404 4.018l-.486 25.166c9.32.262 18.044.803 26.04 1.501zm65.68-44.297c0 1.355-1.124 2.454-2.509 2.454-1.386 0-2.51-1.099-2.51-2.454 0-1.356 1.124-2.455 2.51-2.455 1.385 0 2.509 1.099 2.509 2.455zm11.86-21.424c0 3.083-2.552 5.58-5.702 5.58s-5.702-2.497-5.702-5.58c0-3.081 2.552-5.578 5.702-5.578s5.702 2.497 5.702 5.578zm4.561-28.341c0 8.38-6.943 15.176-15.51 15.176-8.565 0-15.509-6.796-15.509-15.176 0-8.381 6.944-15.175 15.509-15.175 8.567 0 15.51 6.794 15.51 15.175z" fill="url(#_Linear1)" transform="matrix(.72592 0 0 .75038 -98.811 71.487)"/><g fill="#7420a0" fill-rule="nonzero"><path d="M235.299 240.108h-2.321v35.287l2.32-.187v-35.1z"/><path d="M234.305 243.46s1.987-1.005 2.981 7.035c.994 8.039-2.312 11.382-2.312 11.382s13.242-11.382 20.197-11.382c6.955 0-3.315 7.034 2.312 7.034 5.636 0 17.55-8.377 17.55-8.377s-13.575 4.695-13.575-.667c0-5.354 3.719-8.404-1.653-10.378-3.64-1.343-11.924-3.353-25.5 5.353m2.981-6.136c0 1.725-1.38 3.122-3.086 3.122-1.715 0-3.095-1.397-3.095-3.122 0-1.734 1.38-3.13 3.095-3.13 1.706 0 3.086 1.396 3.086 3.13"/></g><path d="M69.902 211.328c.07-6.95-1.22-28.905-20.832-21.89-23.195 8.296-66.888 32.412-41.263-24.194C33.43 108.64 112.66-8.039 279.514.438c166.856 8.475 252.903 145.626 245.45 261.717-10.252 159.67-103.562 200.335-103.562 200.335s25.007-17.8 37.945-33.096c26.103-30.862 50.618-76.956 52.624-149.38 1.57-56.688-14.082-66.387-14.082-66.387l-5.833 30.425s7.336-39.242-55.096-109.973c-26.85-30.418-65.702-43.323-65.702-43.323l9.018 11.46c-19.735-18.11-148.38-54.863-225.926-6.858-38.57 23.877-57.044 46.848-52.913 49.764 31.267-40.313 81.975-67.245 150.78-67.298 213.126-.165 247.335 204.417 206.493 288.748-59.504 122.858-164.318 118.5-314.179 210.395-71.852 44.06-36.116 135.077 9.732 136.001 27.882.563 44.05-22.304 43.821-41.534-.31-26.047-17.831-40.419-36.414-43.262-11.626-1.78-19.17.893-19.17.893s6.334-3.794 14.084-3.439c34.311 1.575 45.969 31.237 44.638 47.099-2.51 29.92-27.118 43.651-46.723 43.27-52.648-1.02-86.18-93.861-16.054-143.192 125.356-88.181 239.63-116.43 272.778-214.217 7.098-20.939 10.832-48.716 7-77.595-.23-1.746 8.54 3.997 8.54 3.997s-7.814-7.106-9.44-8.741c-7.746-7.788-11.546-9.796-21.819-1.612l-21.055 19.632s.513-8.777-1.606-23.381c-.845-5.83-3.713-13.095-6.707-19.484 1.276-.276 3.392-.82 4.86-1.65a285.53 285.53 0 004.773-2.788c3.62 3.277 7.24 7.186 10.664 11.65 0 0-21.874-46.824-13.706-57.924 2.6-3.536 14.286.016 21.06 2.464 2.992 1.081 12.951 5.09 12.951 5.09s-15.361-9.282-15.86-10.112c-25.59-42.532-70.102-75.05-139.776-75.268-52.96-.165-93.526 18.439-122.147 47.755-.583.596-18.234 8.198-18.234 8.198s6.64-1.517 14.313-3.74l30.843-8.26c-20.727 23.377-24.086 48.328-17.16 69.338 0 0-3.41 6.521-9.334 22.829-2.094 5.766-3.14 11.972-3.618 17.586-.858-.038-1.75-.022-2.53.103-.955.154-2.11.353-3.18.543a78.563 78.563 0 01-.274-4.798c-.5-18.02 9.01-34.384 9.01-34.384-5.226-7.149-8.358-13.9-8.418-32.887l-20.877 6.814c-23.768 46.477-26.223 102.877-6.22 147.95.428.968 2.19 4.606 2.19 4.606l-15.34-9.997s.717-13.493-3.388-25.188c-13.84-39.422-15.932-80.626-6.836-118.004zm138.504 241.539l-55.261-37.318s-18.853-18.78-30.832-28.513c-11.98-9.734-16.022-10.705-16.022-10.705s-8.923 5.768-10.563 11.892c-1.639 6.123-3.078 9.57-3.078 9.57s-1.696-15.616.174-20.33c1.87-4.712 2.766-6.698 2.766-6.698l-20.99-13.88 5.817 11.898c-.444 2.431-5.912 1.502-17.893-3.782l17.248 12.978c-8.918 6.552-22.402 2.697-35.701-.74l32.853 14.183c-9.888 4.468-34.54-2.256-50.595-6.47l47.102 16.403c-12.042 4.936-51.495-2.888-71.806-7.31L87.88 418.31s19.66 4.896 28.847 5.48c9.185.583 21.517-1.222 28.778 2.792 7.26 4.014 45.002 28.32 45.002 28.32s-2.839 4.502 1.194 6.373c4.03 1.87 30.666.97 16.705-8.408zm-15.23 3.464s-1.21 2.037.193 2.73c2.716 1.34 7.31-.342 7.31-.342l-7.503-2.388zm-63.815-37.014s-10.394-.675-15.32-2.67c-4.924-1.994-7.474-4.604-7.474-4.604l3.32-5.379 19.474 12.653zm-3.75-140.634c-.58 9.263.312 16.432.312 16.432s-4.095-3.394-5.617-15.543a56.99 56.99 0 013.805-.733 15.286 15.286 0 011.5-.156zm239.343-29.747c-3.58-7.315-6.986-12.944-6.986-12.944 4.58 1.315 9.937 4.362 15.394 8.887-1.116.744-2.595 1.692-4.04 2.495-1.924 1.071-3.52 1.437-4.368 1.562z" fill="#7420a0"/><path d="M122.31 648.998s4.72-14.757 18.613-26.602c13.892-11.845 28.998-6.326 28.998-6.326s-4.65-1.285-9.781 2.26c-5.132 3.546-2.048 4.712-2.048 4.712s-5.457-.573-12.489 2.6c-9.207 4.157-11.565 8.23-11.565 8.23s5.034-2.454 11.25-4.009c7.275-1.822 10.718.133 10.718.133s-3.684 4.893-1.82 8.986c2.573 5.653 11.847 13.822 11.847 13.822s-22.517-10.483-43.723-3.806z" fill="#7420a0"/><g fill="#fff" fill-rule="nonzero"><path d="M325.543 572.748c0-1.797-.37-3.217-1.113-4.261-.738-1.04-1.708-1.836-2.91-2.395-1.198-.565-2.539-.921-4.019-1.084a41.687 41.687 0 00-4.439-.238c-.44 0-.841.01-1.198.03-.36.02-.742.03-1.143.03h-1.86c-.441 0-.847-.01-1.228-.03a23.84 23.84 0 00-1.232-.03h-7.84l-5.968-.114s5.78 1.015 7.834 1.698c1.59.53 4.415 1.212 4.415 3.835v22.543c0 .757-.248 2.261-1.351 3.39-.9.92-1.98 1.405-1.98 1.405s4.583.144 6.602.183c2.02.04 4.048.06 6.087.06.282 0 1.41.01 1.41.01s-3.439-.857-4.468-1.812c-.752-.693-.841-3.36-.841-3.36v-25.2c.48-.158.97-.287 1.47-.391a8.179 8.179 0 011.593-.148c1.079 0 2.069.222 2.97.663.9.435 1.667 1.02 2.306 1.737a7.95 7.95 0 011.504 2.519c.356.96.54 1.98.54 3.063 0 1.158-.203 2.178-.604 3.059a6.275 6.275 0 01-1.648 2.222 7.328 7.328 0 01-2.46 1.375c-.94.322-1.95.48-3.029.48H311.8c-.396 0-1.717-.321-1.717-.321s1.395 1.395 2.98 1.583c.484.055.979.12 1.499.12 1.44 0 2.83-.278 4.172-.842a11.322 11.322 0 003.508-2.277c1-.96 1.802-2.093 2.4-3.39.6-1.301.901-2.672.901-4.112z"/><path d="M306.005 575.876s1-5.42.56-5.42h-6.84l-3.97-.113s2.856.47 4.91 1.153c1.589.53 5.34 1.757 5.34 4.38zm59.525-9.186c.624-.321 1.891-1.623 1.891-1.623a117.423 117.423 0 00-5.28-.237c-1.757-.04-7.34-.06-7.34-.06s3.692 1.579 3.95 1.618c.262.04.49.13.692.273.198.138.367.346.51.628.139.282.208.658.208 1.138v4.682c0 1.559.02 3.098.06 4.622.04 1.56.059 3.118.059 4.677v4.622c0 1.44-.277 2.698-.837 3.781a8.25 8.25 0 01-2.251 2.727c-.94.743-2.02 1.302-3.242 1.683-1.217.376-2.47.57-3.746.57a12.69 12.69 0 01-3.692-.54c-1.178-.362-2.232-.901-3.148-1.624a8.19 8.19 0 01-2.222-2.667c-.559-1.06-.841-2.291-.841-3.692 0-1.559.01-3.128.03-4.706.02-1.584.03-3.173.03-4.771v-9.423c0-.88.281-1.45.84-1.707.56-.263 2.401-1.49 2.04-1.53-3.321-.242-10.62-.36-13.897-.36 0 0 4.246 1.657 4.746 1.86.5.198.752.797.752 1.796v17.762c0 .243.03.52.09.841.059.317.089.659.089 1.02v-.06c0 1.797.49 3.36 1.47 4.677.98 1.322 2.221 2.41 3.72 3.272 1.5.86 3.139 1.499 4.92 1.92 1.782.42 3.47.628 5.073.628 1.96 0 3.82-.317 5.577-.96 1.762-.638 3.291-1.549 4.593-2.727 1.297-1.183 2.326-2.603 3.088-4.26.762-1.659 1.138-3.51 1.138-5.549v-16.623c0-.797.312-1.36.93-1.678zm46.174 39.74c2.89-.04 4.558-1.98 4.558-1.98-4.77-.074-8.992-3.75-11.729-7.16-5.201-6.474-6.869-9.398-7.829-10.561-.604-.718-1.193-1.41-1.772-2.07a38.152 38.152 0 00-1.771-1.89 23.317 23.317 0 002.009-2.009 18.685 18.685 0 001.801-2.37c.54-.842.98-1.723 1.322-2.643.341-.916.51-1.836.51-2.757 0-1.84-.431-3.3-1.292-4.38a8.217 8.217 0 00-3.267-2.46c-1.321-.558-2.79-.92-4.414-1.083a47.77 47.77 0 00-4.647-.237c-.44 0-12.981-.06-12.981-.06-.322 0 2.712.515 4.612 1.92.371.278.629.777.629 1.737v24.364c0 .757.163 2.207-.48 2.88-.832.861-3.702 1.817-3.34 1.856 2.038.124 11.14.243 13.178.243.361 0-2.648-.92-3.271-2.252-.535-1.143-.57-2.687-.57-2.85v-7.919c.322-.04.53-.05.634-.03.1.02.307.03.629.03.88 0 1.85.07 2.91.208 1.059.143 1.93.515 2.608 1.113a18.59 18.59 0 012.163 2.158c.678.802 2.95 3.83 5.097 6.632 4.498 5.85 9.883 11.635 14.703 11.57zm-18.543-31.223c0 2.044-.5 3.663-1.5 4.86-1 1.203-2.48 1.802-4.44 1.802a39.403 39.403 0 01-4.26-.238v-14.46a10.33 10.33 0 012.761-.362c1.119 0 2.138.233 3.059.688a7.639 7.639 0 012.37 1.831 7.695 7.695 0 011.5 2.673c.341 1.019.51 2.088.51 3.206z"/><path d="M435.039 572.748c0-1.797-.371-3.217-1.109-4.261-.742-1.04-1.712-1.836-2.91-2.395-1.202-.565-2.539-.921-4.018-1.084a41.849 41.849 0 00-4.444-.238c-.44 0-.837.01-1.198.03-.361.02-.742.03-1.138.03h-1.861c-.44 0-.851-.01-1.232-.03a23.41 23.41 0 00-1.228-.03h-6.864c-.317 0 4.251 1.708 4.672 1.89.42.179.628.689.628 1.53v24.542c0 .757.189 1.94-.48 2.845-.826 1.134-2.335 1.95-2.335 1.95l12.179.243s-2.138-.59-3.064-1.802c-.915-1.202-.836-3.236-.836-3.36v-25.2c.48-.158.97-.287 1.47-.391.5-.099 1.03-.148 1.589-.148 1.078 0 2.068.222 2.969.663.9.435 1.673 1.02 2.311 1.737a8.03 8.03 0 011.5 2.519c.36.96.539 1.98.539 3.063 0 1.158-.198 2.178-.599 3.059-.4.88-.95 1.618-1.653 2.222a7.328 7.328 0 01-2.46 1.375c-.94.322-1.95.48-3.028.48H419.3c-.4 0 2.777 1.183 3.257 1.262.48.08.98.12 1.5.12 1.44 0 2.83-.278 4.171-.842a11.264 11.264 0 003.509-2.277c1-.96 1.801-2.093 2.4-3.39a9.72 9.72 0 00.9-4.112zm29.159 19.202c0-.12-.114-2-.114-2s-3.034 3.638-4.414 4.4c-1.381.757-2.811 1.138-4.291 1.138-.718 0-1.43-.099-2.128-.297a5.758 5.758 0 01-1.86-.9 4.82 4.82 0 01-1.322-1.5c-.342-.604-.51-1.302-.51-2.103v-22.38c0-.717.252-1.266.752-1.647s2.91-1.772 2.91-1.772l-14.421-.119c-.282 0 3.182.792 4.607 1.89.377.288.634.788.634 1.708v24.364c0 1.039-.183 1.895-.54 2.578-.36.678-2.622 2.118-2.222 2.158 1.96.123 21.34.163 22.26.242 0 0 .342-2.613.421-3.39.08-.782.159-1.569.238-2.37zM262.33 657.547c3.637-.133 5.785-2.108 5.082-2.098-6.602.505-14.342-3.261-21.889-8.576-5.904-4.153-14.09-13.684-15.53-15.085a328.801 328.801 0 00-2.34-2.31 35.583 35.583 0 00-2.163-1.95 27.371 27.371 0 002.162-1.891c.678-.658 1.48-1.45 2.4-2.37 1.08-1 2.178-2.03 3.302-3.089a39.544 39.544 0 013.39-2.88 25.57 25.57 0 013.39-2.188c1.118-.603 2.217-.94 3.296-1.02.4-.044.603-.202.603-.48 0-.32-.203-.499-.603-.544a27.378 27.378 0 00-2.579-.118h-2.519a80.99 80.99 0 01-4.439-.12c-.322 0-.54.09-.663.273-.119.178-.08.366.124.57.158.158.237.46.237.9 0 .435-.272 1.01-.812 1.707-.539.703-1.227 1.47-2.068 2.311a73.298 73.298 0 01-2.762 2.609c-1 .9-1.98 1.771-2.94 2.613a39.98 39.98 0 01-1.766 1.559c-.584.48-1.094.96-1.53 1.44a420.281 420.281 0 01-.124-10.022c.001-.757.303-1.39.902-1.89.598-.5 2.979-1.832 2.979-1.832s-13.719-.237-15.639-.237c-.321 0 4.296 1.168 5.612 1.92.401.228.629.757.629 1.678v24.363c0 .758-.09 2.015-.48 2.851-.564 1.193-2.341 1.95-2.341 1.95s9.942.178 11.942.178c.4 0-2.292-.747-3.242-2.128-.514-.747-.361-2.133-.361-2.974v-10.438a21.395 21.395 0 012.133 1.95c.579.619 1.39 1.45 2.43 2.49 1.356 1.36 9.284 10.11 14.703 14.262 9.745 7.463 18.039 8.745 21.474 8.616z"/><path d="M266.952 645.769s-2.04-.831-2.88-1.742c-.916-.985-.901-3.256-.901-3.42v-24.24c0-.96.282-1.558.841-1.796.56-.243 2.341-1.524 1.98-1.564-.92-.08-13.1 0-13.1 0s3.35 1.312 4.009 1.653c.658.337.99.91.99 1.707v24.423c0 .317-.006 2.247-.872 3.267-.806.96-2.128 1.653-2.128 1.653s11.388.02 12.06.059zm43.56-31.579c.673-.485 2.123-1.366 2.123-1.366-1.44-.08-10.942-.054-10.942-.054-.321 0 2.816 1.766 3.059 1.95.237.178.44.46.599.84.158.377.242.887.242 1.53v3.657c0 .644-.01 1.262-.03 1.861a56.23 56.23 0 00-.034 1.86c0 1 .025 2.06.064 3.183.04 1.118.1 2.178.178 3.177l.119 3.633c.04 1.178.04 2.39 0 3.627-4.479-4.4-8.977-8.75-13.5-13.05-4.519-4.3-9.077-8.572-13.68-12.808-.079-.08-1.737-1-1.737-.683v30.322c0 .802-.242 1.41-.722 1.831-.48.421-2.638 1.589-2.638 1.589l11.64.42s-2.573-.95-3.39-2.28c-.579-.936-.693-1.901-.693-2.58a168.857 168.857 0 00-.237-8.942c-.08-1.52-.154-3.019-.213-4.499-.06-1.48-.09-2.979-.09-4.498v-1.143c0-.357.02-.718.06-1.08l3.123 3.06h-.06c3.836 3.88 7.75 7.73 11.73 11.55 3.978 3.82 8.21 7.414 12.688 10.774.238.119 1.1.876 1.139.638.242-2.519.4-6.032.48-8.532.079-2.499.124-5.028.124-7.586 0-1.124-.01-2.37-.035-3.752-.02-1.38-.03-2.652-.03-3.81-.04-1.242-.06-2.46-.06-3.663v-3.776c0-.44.298-1.098.723-1.4zm88.498 14.659v-1.678a12.4 12.4 0 00-.12-1.742c-.198-1.762-.97-3.42-2.31-4.979-1.337-1.564-2.93-2.91-4.767-4.053a26.535 26.535 0 00-5.82-2.697c-2.043-.663-3.86-.99-5.463-.99-.837 0-21.479.06-21.479.06s4.405.678 5.454 1.578c.396.342.787 1.04.787 1.841v24.359c0 1.36-.242 2.262-.51 2.82-.712 1.476-2.593 2.159-2.192 2.159 1.242-.04 13.842.603 15 .603 2.84 0 5.563-.302 8.16-.9 2.6-.6 4.88-1.58 6.84-2.94 1.96-1.361 3.519-3.143 4.682-5.34 1.158-2.202 1.737-4.9 1.737-8.101zm-5.46 1.677c0 2.4-.44 4.435-1.32 6.092a11.61 11.61 0 01-3.54 4.078c-1.48 1.064-3.196 1.831-5.161 2.311a25.62 25.62 0 01-6.117.723c-1 0-1.9-.04-2.702-.124-.797-.079-1.49-.277-2.069-.599-.579-.316-1.02-.796-1.321-1.44-.297-.638-.45-1.519-.45-2.637v-23.161a12.97 12.97 0 012.4-.48c.801-.08 1.603-.12 2.4-.12 2.36 0 4.622.318 6.78.96 2.163.64 4.063 1.59 5.701 2.851 1.638 1.257 2.95 2.86 3.93 4.8s1.47 4.188 1.47 6.746zm49.86-.356c0-2.48-.509-4.84-1.528-7.082a19.25 19.25 0 00-4.113-5.88 20.078 20.078 0 00-5.968-4.018c-2.262-1-4.628-1.5-7.112-1.5-2.519 0-4.988.377-7.408 1.139s-4.578 1.87-6.479 3.33a17.375 17.375 0 00-4.622 5.37c-1.178 2.118-1.767 4.538-1.767 7.26 0 2.48.54 4.79 1.619 6.929a18.427 18.427 0 004.26 5.552c1.758 1.56 3.792 2.787 6.088 3.687a19.188 19.188 0 007.052 1.351c2.4 0 4.79-.341 7.171-1.019 2.38-.678 4.518-1.702 6.419-3.058a16.23 16.23 0 004.617-5.073c1.183-2.02 1.772-4.35 1.772-6.988zm-5.339-.124c0 2.044-.322 3.915-.96 5.612-.638 1.703-1.55 3.163-2.732 4.38-1.178 1.223-2.598 2.163-4.256 2.821-1.663.658-3.514.99-5.553.99-2.197 0-4.201-.43-5.998-1.292a14.515 14.515 0 01-4.652-3.479c-1.301-1.46-2.31-3.147-3.029-5.068-.722-1.92-1.078-3.939-1.078-6.062 0-2.079.336-3.95 1.02-5.607.677-1.663 1.627-3.083 2.85-4.261 1.217-1.183 2.677-2.094 4.38-2.732 1.697-.638 3.548-.96 5.547-.96 2.163 0 4.133.42 5.91 1.262 1.78.836 3.3 1.98 4.562 3.42 1.257 1.44 2.237 3.107 2.94 5.008a17.18 17.18 0 011.049 5.968zm-98.345 48.724c.644-.282 3.86-1.619 3.86-1.619-1.96-.084-5.909-.133-7.849-.153-1.94-.02-10.907-.03-12.906-.03-.362 0 7.982 1.658 8.725 2 1.539.702 1.692.876 1.692 1.435v9.467a5.945 5.945 0 01-2.732 1.227 16.7 16.7 0 01-2.969.273 18.63 18.63 0 01-6.419-1.139c-2.078-.762-3.92-1.83-5.518-3.212a16.02 16.02 0 01-3.87-4.978c-.98-1.94-1.47-4.093-1.47-6.454 0-2.157.44-4.068 1.317-5.725a12.955 12.955 0 013.513-4.202c1.46-1.138 3.118-2 4.979-2.578a19.024 19.024 0 015.73-.871c1.159 0 2.332.118 3.51.36 1.178.238 2.261.63 3.241 1.169a8.761 8.761 0 012.549 2.128c.718.88 1.198 1.96 1.44 3.241.08.198.262 1.104.262 1.104s1.327-1.282 1.51-2.004c.178-.718.317-1.51.416-2.37.103-.857.163-1.679.183-2.46.02-.778.03-1.307.03-1.59 0-.32-.204-.48-.6-.48-.722-.078-7.052-.91-8.551-1.048a45.66 45.66 0 00-4.35-.213c-2.52 0-4.999.312-7.439.93-2.44.624-4.622 1.594-6.542 2.91-1.92 1.322-3.48 3.01-4.682 5.073-1.197 2.059-1.796 4.508-1.796 7.349 0 2.48.44 4.77 1.316 6.87a16.968 16.968 0 003.662 5.487c1.56 1.564 3.4 2.811 5.518 3.752 2.124.94 4.405 1.49 6.845 1.653a80.99 80.99 0 004.44.119c.96 0 1.959-.03 2.998-.09a33.65 33.65 0 003.088-.331 18.08 18.08 0 002.97-.723c.96-.316 1.84-.737 2.642-1.257a.507.507 0 00.208-.213.532.532 0 00.09-.267v-10.98c0-.758.32-1.277.96-1.56zm13.686-47.972c.643-.283 3.86-1.619 3.86-1.619-1.96-.084-5.91-.133-7.85-.153-1.94-.02-4.908-.03-6.908-.03-.361 0 1.698.673 2.44 1.01 1.544.707 1.98 1.672 1.98 2.232v9.66a5.945 5.945 0 01-2.732 1.227 16.8 16.8 0 01-2.97.272 18.63 18.63 0 01-6.418-1.138c-2.079-.762-3.92-1.83-5.518-3.212a16.02 16.02 0 01-3.87-4.978c-.98-1.94-1.47-4.093-1.47-6.454 0-2.157.44-4.068 1.316-5.726a12.955 12.955 0 013.514-4.201c1.46-1.138 3.118-2 4.978-2.579a19.024 19.024 0 015.731-.87c1.158 0 2.331.118 3.51.36 1.177.238 2.26.63 3.24 1.169a8.761 8.761 0 012.55 2.128c.717.88 1.197 1.96 1.44 3.241.079.198.262 1.104.262 1.104s1.326-1.282 1.51-2.004c.177-.718.316-1.51.415-2.371.104-.856.163-1.678.183-2.46.02-.777.03-1.306.03-1.588 0-.322-.203-.48-.6-.48-.722-.08-7.051-.91-8.55-1.05a45.66 45.66 0 00-4.351-.212 30.18 30.18 0 00-7.438.93c-2.44.624-4.623 1.594-6.543 2.91-1.92 1.321-3.479 3.01-4.681 5.073-1.198 2.059-1.797 4.508-1.797 7.349 0 2.48.44 4.77 1.317 6.869a16.968 16.968 0 003.662 5.488c1.559 1.564 3.4 2.811 5.518 3.752 2.123.94 4.404 1.49 6.844 1.653a80.99 80.99 0 004.44.119c.96 0 1.96-.03 2.998-.09a33.65 33.65 0 003.089-.331 18.069 18.069 0 002.969-.723c.96-.317 1.84-.737 2.643-1.257a.507.507 0 00.208-.213.532.532 0 00.089-.267v-10.982c0-.757.321-1.276.96-1.558zm29.038 62.71s-1.796-1.045-2.583-1.624c-.713-.524-1.5-1.034-1.98-1.955a96.177 96.177 0 01-4.166-8.551c-1.262-2.94-2.515-5.85-3.752-8.73l-2.643-6.176v.059a2.628 2.628 0 01-.237-.51 11.35 11.35 0 00-.302-.752v.06c-.198-.441-.42-.941-.658-1.5-.243-.56-.5-1.089-.782-1.589-.277-.5-.56-.95-.836-1.35-.283-.402-1.01-1.495-1.01-1.495s-.574.673-.732.955c-1.198 2.8-2.39 5.602-3.569 8.398a836.345 836.345 0 00-3.513 8.463c-.797 1.92-1.629 3.89-2.49 5.909a840.48 840.48 0 00-2.489 5.909 9.3 9.3 0 01-.812 1.202 7.55 7.55 0 01-1.108 1.168c-.401.342-2.762 1.89-2.762 1.89l10.561.179c.401 0-2.098-.698-2.098-2.277 0-.36.129-.97.39-1.83.258-.862.59-1.792.99-2.792.402-1 .797-2 1.198-2.999.401-1 .762-1.821 1.08-2.46h9.66a927.06 927.06 0 012.4 5.4 347.792 347.792 0 012.34 5.399l-1.365 1.475c-.243.198 10.308.208 11.268.124zm-15.722-14.98h-7.622a75.71 75.71 0 001.95-5.069 147.25 147.25 0 011.831-5.008l3.84 10.076zm68.869 15.039s-1.767-.98-2.603-1.698c-1.178-1.01-.936-2.519-1.198-3.8a71.628 71.628 0 01-.717-4.261 89.842 89.842 0 01-.54-4.766 402.227 402.227 0 00-.39-4.29c-.08-.56-.13-1.04-.15-1.441-.02-.4-.049-.762-.088-1.084-.48-3.88-1.025-7.78-1.624-11.7-.04-.237-.425-1.345-.425-1.345s-.634.905-.832 1.108c-.801 1.158-3.543 5.86-4.142 7.018-.198.361-.42.762-.658 1.202-.243.44-.46.842-.663 1.198a174.66 174.66 0 01-1.826 3.45 163.657 163.657 0 00-1.831 3.454l-2.614 4.979c-.856 1.638-1.747 3.3-2.667 4.978a29.615 29.615 0 01-1.138-2.098c-.401-.802-1.025-1.96-1.861-3.48a454.136 454.136 0 01-3.48-6.3 334.49 334.49 0 00-3.602-6.453 137.259 137.259 0 00-3.147-5.25c-.94-1.48-2.965-3.717-2.965-3.717s-.327 1.02-.366 1.257c-.04.242-.08.574-.124.99-.04.42-.099.89-.178 1.41-.158 1.282-.341 2.84-.54 4.682a668.488 668.488 0 01-1.41 11.971c-.257 2.059-.51 3.93-.747 5.607a149.23 149.23 0 01-.663 4.261c-.198 1.158-.362 1.861-.48 2.099-.159.321-.51.811-.802.955-.94.47-2.04 1.089-1.678 1.128 1.722.08 10.101.08 10.101.08s-1.772-.713-2.672-2.341c-.08-.149-.02-7.102.242-9.18a207.716 207.716 0 011.227-8.458c.124-.723.223-1.48.302-2.282.362.599.649 1.119.871 1.56.218.44 3.46 6.829 4.202 8.249.737 1.42 1.53 2.83 2.366 4.231a93.353 93.353 0 002.613 4.108c.9 1.341 3.474 5.513 3.474 5.513s1.776-4.122 2.375-5.24a353.828 353.828 0 001.802-3.42 7263.3 7263.3 0 004.048-7.652 137.85 137.85 0 014.29-7.532c.04.683.698 5.32.778 6.003.282 2.197.544 4.4.781 6.597a59.63 59.63 0 01.362 6.542c0 .401-.01.792-.03 1.168-.02.382-1.415 2.015-1.415 2.015l10.432-.025zm58.705-48.031s-1.767-.98-2.603-1.698c-1.178-1.01-.935-2.519-1.198-3.8a71.628 71.628 0 01-.717-4.261 89.842 89.842 0 01-.54-4.766 402.227 402.227 0 00-.39-4.29c-.08-.56-.13-1.04-.15-1.441-.019-.4-.049-.762-.088-1.084-.48-3.88-1.025-7.78-1.624-11.7-.04-.237-.425-1.345-.425-1.345s-.634.905-.832 1.108c-.801 1.158-3.543 5.86-4.142 7.018-.198.361-.42.762-.658 1.203-.243.44-.46.84-.663 1.197a174.66 174.66 0 01-1.826 3.45 163.657 163.657 0 00-1.831 3.454c-.881 1.678-1.752 3.335-2.613 4.979-.857 1.638-1.747 3.3-2.668 4.978a29.615 29.615 0 01-1.138-2.098c-.401-.802-1.025-1.96-1.861-3.48a454.136 454.136 0 01-3.48-6.3 334.49 334.49 0 00-3.602-6.453 137.259 137.259 0 00-3.147-5.25c-.94-1.48-2.965-3.717-2.965-3.717s-.326 1.02-.366 1.257c-.04.242-.08.574-.124.99-.04.42-.099.89-.178 1.41-.158 1.282-.341 2.84-.54 4.682a668.488 668.488 0 01-1.41 11.971c-.257 2.059-.51 3.93-.747 5.607a149.23 149.23 0 01-.663 4.261c-.198 1.158-.362 1.861-.48 2.099-.159.321-.51.811-.802.955-.94.47-2.039 1.089-1.678 1.128 1.722.08 10.101.08 10.101.08s-1.772-.713-2.672-2.341c-.08-.149-.02-7.102.242-9.18a207.716 207.716 0 011.227-8.458c.124-.723.223-1.48.302-2.282.362.599.649 1.119.871 1.56.218.44 3.46 6.829 4.202 8.249.737 1.42 1.53 2.83 2.366 4.231a93.353 93.353 0 002.613 4.108c.9 1.341 3.474 5.513 3.474 5.513s1.776-4.122 2.375-5.24a353.828 353.828 0 001.802-3.42 7263.3 7263.3 0 004.048-7.652 137.85 137.85 0 014.29-7.532c.04.683.698 5.32.778 6.003.282 2.197.544 4.4.781 6.597.243 2.202.362 4.385.362 6.543 0 .4-.01.791-.03 1.167-.02.382-1.415 2.015-1.415 2.015l10.432-.025zm-28.274 42.171c.04-.118.188-1.197.188-1.197l-1.569 1.02s-.594 2.276-2.158 3.028c-1.123.544-2.261.93-3.543.93-1.04 0-2.138-.198-3.296-.598-1.163-.401-2.064-1.04-2.702-1.92v-11.64h2.578c.723 0 1.45.02 2.193.059.737.04 1.41.109 2.009.213.599.099 2.014.44 2.202.618.58.535 1.158 2.53 1.158 2.53s.381-.219.42-.421c.08-.56.16-1.08.238-1.56.085-.48.164-.96.243-1.44.08-.52.148-1.138.208-1.86.06-.718.133-1.341.213-1.861.04-.198-.213-.51-.213-.51s-1.208 1.38-1.524 1.52c-.322.143-2.326.192-2.524.192h-7.201v-11.46l6.661.044s1.604-.04 2.4 1.337c.243.42.44.94.48 1.618.04.321.362 1.153.362 1.153s.935-.812 1.02-1.094c.078-.237.138-.48.177-.717.04-.243.1-.5.179-.782.163-.639.321-1.277.48-1.92.163-.639.282-1.337.36-2.099.04-.198-.039-.361-.237-.48-.203-.119-.44-.138-.722-.06-.56.199-22.038.362-22.038.362s1.257.797 1.579.96c.322.198.648.337.99.42.341.08.668.16.99.238.44.08.85.233 1.232.45.376.218.569.669.569 1.352v24.6c0 1.08-.183 1.95-.54 2.609-.36.658-3.42 2.168-3.058 2.207 1.396.084 20.216 0 20.459-.08l.48-.237 1.257-5.523zm26.021-96.05c.04-.119.188-1.198.188-1.198l-1.569 1.02s-.594 2.276-2.158 3.029c-1.123.544-2.261.93-3.543.93-1.04 0-2.138-.198-3.296-.599-1.163-.4-2.064-1.04-2.702-1.92v-11.64h2.578c.723 0 1.45.02 2.193.06.737.039 1.41.108 2.009.212.599.1 2.014.44 2.202.619.58.534 1.158 2.529 1.158 2.529s.381-.218.42-.42c.08-.56.16-1.08.238-1.56.085-.48.164-.96.243-1.44.08-.52.148-1.138.208-1.86.06-.718.133-1.342.213-1.862.04-.198-.213-.51-.213-.51s-1.208 1.381-1.525 1.52c-.321.144-2.325.193-2.523.193h-7.201v-11.462l6.661.045s1.604-.04 2.4 1.336c.243.42.44.94.48 1.618.04.322.362 1.153.362 1.153s.935-.811 1.02-1.093a4.82 4.82 0 00.177-.718c.04-.242.1-.5.178-.782.164-.638.322-1.277.48-1.92a14.41 14.41 0 00.362-2.098c.04-.198-.04-.362-.238-.48-.203-.12-.44-.139-.722-.06-.56.198-22.038.362-22.038.362s1.257.796 1.579.96c.321.198.648.336.99.42.341.08.668.159.99.238.44.079.85.232 1.232.45.376.218.569.668.569 1.351v24.601c0 1.08-.183 1.95-.54 2.608-.36.659-3.42 2.168-3.058 2.208 1.396.084 20.216 0 20.459-.08l.48-.237 1.257-5.523zm-.638 93.234c-.624-3.375-2.123-4.74-2.88-5.582a19.851 19.851 0 00-2.584-2.37 492.835 492.835 0 01-5.038-3.93 18.162 18.162 0 01-2.068-1.89 10.22 10.22 0 01-1.505-2.01c-.376-.678-.569-1.36-.569-2.039 0-.762.163-1.44.48-2.039a4.54 4.54 0 011.262-1.5c.52-.4 1.109-.712 1.772-.93a6.22 6.22 0 012.01-.331c.677 0 1.345.099 2.008.302.659.198 1.257.5 1.802.896.54.4.91.93 1.316 1.44.851 1.069.96 2.736.96 2.736s1.371-.994 1.624-2.405c.143-.811.089-1.628.089-2.43v-1.994s-3.86-.827-5.583-.827c-1.079 0-2.37.13-3.87.391-1.5.263-2.93.688-4.29 1.292-1.357.599-2.51 1.4-3.45 2.4-.94 1-1.41 2.237-1.41 3.717 0 .92.232 1.811.692 2.672.46.861 1.07 1.718 1.832 2.579a29.476 29.476 0 002.548 2.548c.94.842 1.89 1.663 2.85 2.46.837.723 1.669 1.44 2.49 2.163.822.717 1.56 1.46 2.217 2.222a14.67 14.67 0 011.624 2.217c.42.722.628 1.44.628 2.163 0 .796-.218 1.5-.658 2.098a5.53 5.53 0 01-1.683 1.5 9.33 9.33 0 01-2.187.93c-.782.218-1.49.331-2.133.331-.757 0-1.53-.103-2.306-.301a6.95 6.95 0 01-2.133-.93c-.639-.421-1.168-.931-1.53-1.56-.96-1.672-1.108-3.39-1.108-3.39s-.881 1.658-1.084 2.099c-.158.44-.287.87-.386 1.291-.104.42-.153.832-.153 1.228 0 .84.232 1.534.692 2.073.46.54 1.02.97 1.678 1.287a7.62 7.62 0 002.133.663c.757.119 1.46.178 2.098.178 1.282 0 6.098.817 9.765-1.376 4.538-2.712 4.424-5.978 4.038-8.042z"/></g><defs><linearGradient id="_Linear1" x1="0" y1="0" x2="1" y2="0" gradientUnits="userSpaceOnUse" gradientTransform="matrix(0 90.001 -155.834 0 312.185 267.508)"><stop offset="0" stop-color="#ff00fb"/><stop offset="1" stop-color="#ff79df"/></linearGradient></defs></svg>