<svg xmlns="http://www.w3.org/2000/svg" style="isolation:isolate" viewBox="0 0 410 410" width="410pt" height="410pt"><defs><clipPath id="a"><path d="M0 0h410v410H0z"/></clipPath></defs><g clip-path="url(#a)"><path d="M390.489 323L370 383l-145.351 24.108L67 396l-49-63V70l57-54.892h272L390.489 70v253z" fill="#14002A"/><linearGradient id="b" x1="-.08" y1=".034" x2="-.08" y2=".654" gradientTransform="matrix(303.323 0 0 264.092 53.14 79.881)" gradientUnits="userSpaceOnUse"><stop offset="0%" stop-color="#ff00fb"/><stop offset="100%" stop-color="#ff79df"/></linearGradient><path d="M54.397 89.835c11.888 3.718 26.463 7.056 40.472 7.056 31.906 0 58.221-17.01 58.221-17.01s28.753 17.01 62.534 17.01 51.032-17.01 51.032-17.01 26.596 17.01 51.032 17.01c15.431 0 28.57-6.799 36.158-11.798a48.429 48.429 0 012.617 15.753v208.853c0 13.373-5.421 25.491-14.185 34.275a1049.52 1049.52 0 00-10.991-3.344c-33.999-10.145-76.507-20.598-108.268-23.311l-19.313-123.063 15.323-12.287.907-40.017H187.62v24.716h-23.761v-24.716h-31.57v24.716l-25.726.04v-24.756h-36.13l.907 40.004 15.305 12.393-19.301 122.985c-4.615.532-9.059 1.09-13.312 1.662a48.678 48.678 0 01-.892-9.297V100.846c0-3.788.436-7.476 1.257-11.011zM199.062 315.51l-6.482-43.433s-2.142-6.545-13.642-6.545c-14.378 0-13.628 6.545-13.628 6.545l-.766 40.99c14.687.426 21.921 1.306 34.518 2.443zm54.596-26.681c5.467 1.43 8.747 7.03 7.317 12.499-1.429 5.467-7.03 8.747-12.497 7.317-5.469-1.43-8.748-7.03-7.318-12.497 1.429-5.469 7.03-8.748 12.498-7.319zm36.68-31.348c9.563 2.5 15.297 12.293 12.798 21.856-2.5 9.561-12.293 15.295-21.856 12.795-9.561-2.499-15.295-12.292-12.796-21.854 2.5-9.563 12.293-15.297 21.854-12.797zm20.224-91.278c20.362 5.324 32.572 26.176 27.248 46.537-5.321 20.362-26.176 32.572-46.537 27.249-20.362-5.322-32.572-26.176-27.248-46.538 5.323-20.361 26.176-32.572 46.537-27.248z" fill-rule="evenodd" fill="url(#b)"/><path d="M409.604 90.103C409.604 40.373 369.231 0 319.501 0H90.104C40.374 0-.001 40.373-.001 90.103V319.5c0 49.73 40.375 90.106 90.105 90.106h229.397c49.73 0 90.103-40.376 90.103-90.106V90.103zm-24.838 0V319.5c0 36.023-29.244 65.267-65.265 65.267H90.104c-36.02 0-65.267-29.244-65.267-65.267V90.103c0-36.02 29.247-65.264 65.267-65.264h229.397c36.021 0 65.265 29.244 65.265 65.264z" fill-rule="evenodd" fill="#7420A0"/></g></svg>