<svg><defs><font id="MavenPro-Regular" horiz-adv-x="569"><font-face font-family="Maven Pro" font-weight="400" panose-1="0 0 5 0 0 0 0 0 0 0" ascent="800" descent="-200" x-height="498.999" cap-height="667" bbox="-441 -217 1206 1030" underline-thickness="50" underline-position="-50" unicode-range="U+000D-U+FB02"/><glyph glyph-name="fi" unicode="fi" horiz-adv-x="594" d="M126 433H40v66h86v27c0 55.333 9.667 96.5 29 123.5s40.166 43.667 62.499 50 45.5 9.5 69.5 9.5c18 0 34-2 48-6v-64c-13.333 2.667-25.333 4-36 4-21.333 0-38.666-2-51.999-6s-24.833-14.333-34.5-31-14.5-43-14.5-79v-28h137v-66H198V0h-72v433zm308 234h80v-79h-80v79zm4-168h72V0h-72v499z"/><glyph glyph-name="fl" unicode="fl" horiz-adv-x="587" d="M126 433H40v66h86v27c0 55.333 9.667 96.5 29 123.5s40.166 43.667 62.499 50 45.5 9.5 69.5 9.5c18 0 34-2 48-6v-64c-13.333 2.667-25.333 4-36 4-21.333 0-38.666-2-51.999-6s-24.833-14.333-34.5-31-14.5-43-14.5-79v-28h137v-66H198V0h-72v433zM435 0v689h72V0h-72z"/><glyph glyph-name=".notdef" horiz-adv-x="500"/><glyph glyph-name="NULL" horiz-adv-x="0"/><glyph glyph-name="NULL" horiz-adv-x="0"/><glyph glyph-name="nonmarkingreturn" horiz-adv-x="290"/><glyph glyph-name="space" horiz-adv-x="290"/><glyph glyph-name="exclam" unicode="!" horiz-adv-x="372" d="M152 667h72l-7-499h-58zm-4-587h80V0h-80v80z"/><glyph glyph-name="quotedbl" unicode="&quot;" horiz-adv-x="381" d="M81 676h83l-17-201H99zm134 0h83l-18-201h-48z"/><glyph glyph-name="numbersign" unicode="#" horiz-adv-x="591" d="M153 126H71v60h92l27 159H99v60h102l20 118h61l-20-118h132l21 118h61l-21-118h72v-60h-82l-28-159h81v-60h-91L389 19h-61l18 107H214L195 19h-61zm203 60l28 159H251l-27-159h132z"/><glyph glyph-name="dollar" unicode="$" horiz-adv-x="555" d="M454 57.5c-27.333-35-71-56.506-131-64.506v-86h-72v83c-38.667 2-70.334 7.167-95.001 15.5s-55 22.166-91 41.5v78c24-20 54.167-36.5 90.5-49.5s76.833-19.5 121.5-19.5c48.667 0 85 10.332 109 31s36 48.666 36 84c0 26-7 47.5-21 64.5s-30.667 30.332-50 40-48.333 21.833-87 36.5c-41.333 14-74.166 27.333-98.499 40s-45.166 31.334-62.499 56.001-26 57.334-26 98.001c0 24.667 5.833 49.334 17.5 74.001s30.5 45.834 56.5 63.501 59.333 28.5 100 32.5v77h72v-78c22.667-2 42.667-6.167 60-12.5S424.667 645.332 456 630v-74l-37.5 21.5c-20.333 11.667-41.333 20.167-63 25.5s-45.167 8-70.5 8c-46 0-80-9.5-102-28.5s-33-42.833-33-71.5c0-26 5.833-47 17.5-63s27.334-29 47.001-39 47.5-21 83.5-33c41.333-14 75.166-27.833 101.499-41.5s48.833-33.167 67.5-58.5 28-57.666 28-96.999c0-46-13.667-86.5-41-121.5z"/><glyph glyph-name="percent" unicode="%" horiz-adv-x="761" d="M48 493c0 122.667 47.333 184 142 184 46.667 0 81.834-15.5 105.501-46.5s35.5-76.833 35.5-137.5-11.833-106.5-35.5-137.5S236.667 309 190 309c-94.667 0-142 61.333-142 184zm196.5-105.5c17 19 25.5 54.167 25.5 105.5s-8.5 86.5-25.5 105.5S209.333 627 190 627s-37.666-9.5-54.999-28.5-26-54.167-26-105.5 8.667-86.5 26-105.5S170.667 359 190 359s37.5 9.5 54.5 28.5zM430 179c0 122.667 47.333 184 142 184 46.667 0 81.834-15.5 105.501-46.5s35.5-76.833 35.5-137.5-11.833-106.5-35.5-137.5S618.667-5 572-5c-94.667 0-142 61.333-142 184zM626.5 73.5c17 19 25.5 54.167 25.5 105.5s-8.5 86.5-25.5 105.5S591.333 313 572 313s-37.666-9.5-54.999-28.5-26-54.167-26-105.5 8.667-86.5 26-105.5S552.667 45 572 45s37.5 9.5 54.5 28.5zM546 685h68L207-22h-68z"/><glyph glyph-name="ampersand" unicode="&amp;" horiz-adv-x="640" d="M512 0l-61 72.999C425.667 49.666 396.667 30.333 364 15S297.666-8 262.999-8C215.666-8 176.333 2.333 145 23S90.667 68.834 76 98.501s-22 58.167-22 85.5c0 35.333 10.333 70.5 31 105.5s55.334 66.833 104.001 95.5c-44 54.667-66 100.667-66 138 0 27.333 6.833 52.5 20.5 75.5s32 41.333 55 55 48.167 20.5 75.5 20.5c28 0 53.667-6.5 77-19.5s41.666-30.833 54.999-53.5 20-47.334 20-74.001c0-34-10.333-62.833-31-86.5s-53-48.167-97-73.5l152-181c14 25.333 27 60 39 104h65c-4.667-24-12-49.833-22-77.5s-22.667-54.167-38-79.5L606 0h-94zM217.5 578.499c-16.333-15.667-24.5-34.5-24.5-56.5 0-11.333 7.167-28 21.5-50s29.833-42.667 46.5-62c39.333 21.333 65.5 41 78.5 59s19.5 37 19.5 57c0 22-8 40.167-24 54.5s-35.667 21.5-59 21.5c-22.667 0-42.167-7.833-58.5-23.5zM342 79.999c24 12 45.667 27.002 65 45.002l-175 209c-41.333-24.667-69.5-49.834-84.5-75.501S125 208.666 125 185.999c0-15.333 4.167-32.5 12.5-51.5s23-35.833 44-50.5 49.167-22 84.5-22c26.667 0 52 6 76 18z"/><glyph glyph-name="quotesingle" unicode="'" horiz-adv-x="249" d="M81 676h83l-17-201H99z"/><glyph glyph-name="parenleft" unicode="(" horiz-adv-x="345" d="M127.5 70.5C104.5 142.167 93 220.333 93 305s11.5 163 34.5 235S176 673.333 204 724h76c-24.667-41.333-50-98.833-76-172.5s-39-155.834-39-246.501 13-173 39-247 51.333-131 76-171h-76C176-62.334 150.5-1.167 127.5 70.5z"/><glyph glyph-name="parenright" unicode=")" horiz-adv-x="345" d="M142 60c26 73.333 39 155.335 39 246.002 0 90-13.167 172.167-39.5 246.5s-51.833 131.5-76.5 171.5h77c28-50.667 53.5-111.834 76.5-183.501S253 390.667 253 306s-11.5-163-34.5-235S170-62.333 142-113H65c25.333 42 51 99.667 77 173z"/><glyph glyph-name="asterisk" unicode="*" horiz-adv-x="411" d="M187 550l-76-55-27 48 87 38-87 39 27 46 76-54-10 91h54l-8-91 75 54 27-46-86-39 86-38-27-48-75 55 8-90h-54z"/><glyph glyph-name="plus" unicode="+" horiz-adv-x="551" d="M245 269H97v60h148v148h60V329h147v-60H305V122h-60v147z"/><glyph glyph-name="comma" unicode="," horiz-adv-x="313" d="M148 84h82l-84-196H74z"/><glyph glyph-name="hyphen" unicode="-" horiz-adv-x="464" d="M79 333h305v-70H79v70z"/><glyph glyph-name="period" unicode="." horiz-adv-x="260" d="M80 100h100V0H80v100z"/><glyph glyph-name="slash" unicode="/" horiz-adv-x="404" d="M353 756h66L51-98h-65z"/><glyph glyph-name="zero" unicode="0" horiz-adv-x="646" d="M126 75c-44 57.333-66 142.668-66 256.001S82 529.667 126 587s109.667 86 197 86c175.333 0 263-114 263-342S498.333-11 323-11c-87.333 0-153 28.667-197 86zm292 .002c27.333 13.333 50.168 40.333 68.501 81s27.5 99 27.5 175-9.167 134.333-27.5 175-41.333 67.667-69 81-59.167 20-94.5 20-66.833-6.667-94.5-20-50.667-40.333-69-81-27.5-99-27.5-175 9.167-134.333 27.5-175 41.166-67.667 68.499-81 59-20 95-20 67.667 6.667 95 20z"/><glyph glyph-name="one" unicode="1" horiz-adv-x="451" d="M236 592l-133-88v85l123 78h82V0h-72v592z"/><glyph glyph-name="two" unicode="2" horiz-adv-x="581" d="M498 72V0H77v63c48 35.333 97.667 76.833 149 124.5S321.833 286 359.5 340 416 443.333 416 488c0 32.667-11.5 60.167-34.5 82.5S317.667 604 259 604c-62 0-120.333-19.333-175-58v79c56 34 116.333 51 181 51 52 0 94.667-9 128-27s57.5-41.167 72.5-69.5S488 520.667 488 488c0-62-30-130-90-204S268 139.333 188 72h310z"/><glyph glyph-name="three" unicode="3" horiz-adv-x="583" d="M81 34l.001 73.998c52-29.333 108.333-44 169-44 59.333 0 104.666 11 135.999 33s47 53.667 47 95-16 73-48 95-78.333 33-139 33h-73v69h76c48.667 0 85.834 9.167 111.501 27.5s38.5 44.833 38.5 79.5-13.5 61.334-40.5 80.001-66.167 28-117.5 28c-49.333 0-97.333-11.667-144-35v73c48 22.667 98.667 34 152 34 52 0 94.5-8.5 127.5-25.5s57-39.167 72-66.5 22.5-56.666 22.5-87.999c0-29.333-6.333-54-19-74s-27-35.667-43-47-24-16-24-14 11.167-4.167 33.5-18.5 42.333-34.166 60-59.499 26.5-56.333 26.5-93c0-34.667-8.333-66.834-25-96.501s-43.334-54-80.001-73S316.333-8 259-8C195-8 135.667 6 81 34z"/><glyph glyph-name="four" unicode="4" horiz-adv-x="591" d="M362 200H38v77l315 390h81V267h95v-67h-95V0h-72v200zm0 67v297L118 267h244z"/><glyph glyph-name="five" unicode="5" horiz-adv-x="566" d="M444.5 369.5c41-31 61.499-86.167 61.499-165.5s-20.5-134.5-61.5-165.5S353.332-8 293.999-8C217.332-8 153.665 5.667 102.998 33v75c18.667-12 43.5-22.667 74.5-32s68.167-14 111.5-14c42 0 73.833 7 95.5 21s35.5 31 41.5 51 9 43.333 9 70c0 56-13.167 93.333-39.5 112s-61.833 28-106.5 28c-31.333 0-58.666-2.333-81.999-7s-41.666-9.667-54.999-15-20-8.333-20-9l-45 46 34 308h343v-71H183l-17-197c40 11.333 82.667 17 128 17 59.333 0 109.5-15.5 150.5-46.5z"/><glyph glyph-name="six" unicode="6" horiz-adv-x="583" d="M458 370.5c40.667-37.667 60.998-88.834 60.998-153.501 0-37.333-7.667-73.166-23-107.499s-40-62.5-74-84.5-77.333-33-130-33c-151.333 0-227 104.333-227 313 0 102 17.5 180.5 52.5 235.5s75 91.333 120 109 88.833 26.5 131.5 26.5c35.333 0 67.666-4.333 96.999-13v-67c-33.333 8-63 12-89 12-25.333 0-54.666-6-87.999-18s-64.666-34.667-93.999-68S147.333 442 140 382c52 30 102.667 45 152 45 70 0 125.333-18.833 166-56.5zm-42.002-258c20.667 35 31.001 70.168 31.001 105.501 0 45.333-13.333 80.333-40 105s-65 37-115 37c-32.667 0-62.167-5.667-88.5-17s-48.5-24.333-66.5-39c1.333-66 8.666-116.833 21.999-152.5s30.833-59.834 52.5-72.501 48.5-19 80.5-19c62 0 103.333 17.5 124 52.5z"/><glyph glyph-name="seven" unicode="7" horiz-adv-x="574" d="M525 667v-67L236 0h-80l288 595H70v72h455z"/><glyph glyph-name="eight" unicode="8" horiz-adv-x="582" d="M160 22.5c-34.667 20.333-59.834 46-75.501 77s-23.5 63.833-23.5 98.5c0 36.667 8.5 67 25.5 91s36.167 42.333 57.5 55 32 18 32 16-8.333 3-25 15-31.667 28.5-45 49.5-20 47.167-20 78.5c0 30 7 58.167 21 84.5s36.5 47.666 67.5 63.999 70.167 24.5 117.5 24.5c48 0 87.333-8.167 118-24.5s53-37.666 67-63.999 21-54.5 21-84.5c0-32-6.5-58.5-19.5-79.5s-27.5-37.167-43.5-48.5-24-16-24-14 10.333-3.5 31-16.5 39.334-31.667 56.001-56 25-54.5 25-90.5c0-34.667-7.833-67.667-23.5-99s-40.667-57-75-77S346-8 292-8c-53.333 0-97.333 10.167-132 30.5zm230.5 396C414.167 438.833 426 467 426 503c0 38.667-12.833 65.334-38.5 80.001s-57.5 22-95.5 22-69.833-7.333-95.5-22S158 541.667 158 503c0-36 11.833-64.167 35.5-84.5S250 388 292 388s74.833 10.167 98.5 30.5zm28.5-313c21.333 30.333 32 61.168 32 92.501 0 40-13.667 70.667-41 92s-66.666 32-117.999 32-90.666-10.667-117.999-32-41-52-41-92c0-30.667 10.667-61.334 32-92.001s63.666-46 126.999-46S397.667 75.167 419 105.5z"/><glyph glyph-name="nine" unicode="9" horiz-adv-x="587" d="M519 363c0-102-17.498-180.5-52.498-235.5s-75-91.333-120-109S257.669-8 215.002-8c-35.333 0-67.666 4.333-96.999 13v67c33.333-8 63-12 89-12 25.333 0 54.666 6 87.999 18s64.666 34.667 93.999 68S436.667 226 444 286c-51.333-30-102-45-152-45-70 0-125.333 18.833-166 56.5s-61 88.834-61 153.501c0 37.333 7.667 73.166 23 107.499s40 62.5 74 84.5 77.333 33 130 33c151.333 0 227-104.333 227-313zm-341.998-18c26.667-24.667 64.999-37.001 114.999-37.001 32.667 0 62.167 5.667 88.5 17s48.5 24.333 66.5 39c-1.333 66-8.666 116.833-21.999 152.5s-30.833 59.834-52.5 72.501-48.5 19-80.5 19c-62 0-103.333-17.5-124-52.5s-31-70.167-31-105.5c0-45.333 13.333-80.333 40-105z"/><glyph glyph-name="colon" unicode=":" horiz-adv-x="391" d="M158 448h80v-80h-80v80zm0-320h80V48h-80v80z"/><glyph glyph-name="semicolon" unicode=";" horiz-adv-x="285" d="M105 448h100V348H105v100zm-1-364h92l-84-196H40z"/><glyph glyph-name="less" unicode="&lt;" horiz-adv-x="660" d="M120 235v68l412 187v-80L204 269l328-142V48z"/><glyph glyph-name="equal" unicode="=" horiz-adv-x="638" d="M127 410h385v-69H127v69zm0-154h385v-70H127v70z"/><glyph glyph-name="greater" unicode="&gt;" horiz-adv-x="649" d="M132 127l327 142-327 141v80l411-187v-68L132 48v79z"/><glyph glyph-name="question" unicode="?" horiz-adv-x="485" d="M195 217c0 32.667 4.332 60.165 12.999 82.498s19 40.333 31 54 27.667 28.5 47 44.5c20.667 16.667 35.667 31.167 45 43.5s14 28.5 14 48.5c0 36.667-11 64.667-33 84s-54.667 29-98 29c-28.667 0-54.5-4.5-77.5-13.5s-41.833-19.167-56.5-30.5v78c0 .667 6.667 4.334 20 11.001s30.333 12.834 51 18.501S194.333 675 219 675c48 0 93-13.167 135-39.5s63-74.833 63-145.5c0-32-6.167-57.167-18.5-75.5S368 376.667 344 356c-17.333-15.333-31-28.333-41-39s-18.5-24.667-25.5-42-10.5-38.333-10.5-63v-44h-72v49zm-4.001-137.002h80v-80h-80v80z"/><glyph glyph-name="at" unicode="@" horiz-adv-x="913" d="M260-114.5c-50 23-91.997 59.335-125.997 109.002s-51 111.834-51 186.501c0 79.333 21.167 151.166 63.5 215.499s96.666 114.666 162.999 150.999 133.5 54.5 201.5 54.5c48 0 97.333-11.333 148-34s93.667-58.334 129-107.001 53-109.667 53-183c0-46.667-6.667-88.667-20-126s-32.333-66.666-57-87.999-53.334-32-86.001-32c-44.667 0-75.667 16.333-93 49-31.333-32.667-79.333-49-144-49-46.667 0-83.334 10.167-110.001 30.5S291 110.667 291 146c0 37.333 15.333 70.833 46 100.5S424.667 291 508 291c24 0 48.667-1.667 74-5 .667 4.667 1 11.667 1 21 0 24.667-6.167 44-18.5 58S526 386 486 386c-46.667 0-88.334-7-125.001-21l8 58c40 13.333 79 20 117 20 50.667 0 89.167-11.5 115.5-34.5s39.5-56.833 39.5-101.5c0-26.667-3.333-61.334-10-104.001-.667-8-2-19.833-4-35.5s-3-28.167-3-37.5c0-20.667 4.333-36.334 13-47.001s23.667-16 45-16c18 0 36.333 7.833 55 23.5s34.334 39.334 47.001 71.001 19 69.5 19 113.5c0 62-14.667 114.833-44 158.5s-66.333 76.334-111 98.001S557.666 564 510.999 564c-66 0-128.833-17-188.5-51s-108-80.333-145-139-55.5-123-55.5-193c0-80 18.333-141.833 55-185.5S254.333-77.167 299-91.5 383-113 417-113c82.667 0 152.667 16.333 210 49l-9-45c-56-26.667-125.667-40-209-40-49.333 0-99 11.5-149 34.5zm283.003 235.002c15.333 20.333 24.167 41.833 26.5 64.5l4.5 44c-18 2.667-40 4-66 4-106 0-159-29-159-87 0-37.333 30.667-56 92-56 52.667 0 86.667 10.167 102 30.5z"/><glyph glyph-name="A" unicode="A" horiz-adv-x="643" d="M466 208H178L98 0H20l266 667h72L623 0h-77zm-27 69L322 582 205 277h234z"/><glyph glyph-name="B" unicode="B" horiz-adv-x="628" d="M535 295.5c22-27 33-62.499 33-106.499C568 124.334 547 76.667 505 46S403.333 0 326 0H85v667h221c148 0 222-59.667 222-179 0-32-5.333-56.167-16-72.5S490 386 478 376l-23-19c31.333-14 58-34.5 80-61.5zm-378 82.501h165c40.667 0 73.167 7 97.5 21s36.5 42 36.5 84c0 43.333-11.833 73.333-35.5 90s-59.5 25-107.5 25H157v-220zm295-284.5c29.333 17.667 44 50.833 44 99.5 0 48-15.167 79.5-45.5 94.5s-70.833 22.5-121.5 22.5H157v-243h175c50.667 0 90.667 8.833 120 26.5z"/><glyph glyph-name="C" unicode="C" horiz-adv-x="622" d="M132.5 78C80.833 135.333 55 220.668 55 334.001S80.833 532.667 132.5 590s128.834 86 231.501 86c68 0 135.667-16.333 203-49v-69c-62.667 33.333-127.667 50-195 50-84 0-145.333-22-184-66s-58-113.333-58-208c0-95.333 19.167-164.833 57.5-208.5S287.334 60 372.001 60c70.667 0 135.667 16.333 195 49V40c-68-32-135.667-48-203-48C261.334-8 184.167 20.667 132.5 78z"/><glyph glyph-name="D" unicode="D" horiz-adv-x="667" d="M85 667l209 .001c104 0 182.167-27.833 234.5-83.5S607 444.667 607 334C607 111.333 502.667 0 294 0H85v667zM289 68.001c84.667 0 146.5 21.333 185.5 64s58.5 110 58.5 202-19.5 159.333-58.5 202-100.833 64-185.5 64H157v-532h132z"/><glyph glyph-name="E" unicode="E" horiz-adv-x="581" d="M85 667h421v-68H157V369h307v-70H157V68h349V0H85v667z"/><glyph glyph-name="F" unicode="F" horiz-adv-x="539" d="M85 667h409v-68H157V369h296v-70H157V0H85v667z"/><glyph glyph-name="G" unicode="G" horiz-adv-x="687" d="M137.5 77c-51.667 58-77.498 143.668-77.498 257.001S85.835 532.667 137.502 590s128.834 86 231.501 86c76 0 146-15 210-45v-75c-36.667 16-71.334 28.667-104.001 38s-65.334 14-98.001 14c-84.667 0-146.667-22.167-186-66.5s-59-113.5-59-207.5c0-94.667 19.667-164.167 59-208.5s101.333-66.5 186-66.5c53.333 0 104.333 8 153 24v190h-161v70h233V42c-72-34.667-149.667-52-233-52C266.334-10 189.167 19 137.5 77z"/><glyph glyph-name="H" unicode="H" horiz-adv-x="669" d="M85 667h72V367h355v300h72V0h-72v299H157V0H85v667z"/><glyph glyph-name="I" unicode="I" horiz-adv-x="242" d="M85 667h72V0H85v667z"/><glyph glyph-name="J" unicode="J" horiz-adv-x="453" d="M45 27v74.999c38-26.667 79-40 123-40 45.333 0 78 11.167 98 33.5s30 58.833 30 109.5v462h72v-468c0-77.333-18.5-131.166-55.5-161.499S230.333-8 177-8C129-8 85 3.667 45 27z"/><glyph glyph-name="K" unicode="K" horiz-adv-x="613" d="M229 301l-72-79V0H85v667h72V316l316 351h92L279 355 588 0H488z"/><glyph glyph-name="L" unicode="L" horiz-adv-x="523" d="M85 667h72V70h341V0H85v667z"/><glyph glyph-name="M" unicode="M" horiz-adv-x="785" d="M700 667V0h-72v550L385 209 157 548V0H85v667h78l226-347 233 347h78z"/><glyph glyph-name="N" unicode="N" horiz-adv-x="722" d="M637 667V0h-81L157 562V0H85v667h82l398-562v562h72z"/><glyph glyph-name="O" unicode="O" horiz-adv-x="719" d="M135.5 76.5C85.167 134.167 60 219.667 60 333s25.167 198.833 75.5 256.5S260.333 676 359 676c99.333 0 174.166-28.833 224.499-86.5s75.5-143.167 75.5-256.5-25.167-198.833-75.5-256.5S458.333-10 359-10c-98.667 0-173.167 28.833-223.5 86.5zM531 124c36 44 54 113.667 54 209 0 94.667-18 164.167-54 208.5S437.667 608 359 608c-78 0-135-22.167-171-66.5S134 427.667 134 333c0-95.333 18-165 54-209s93-66 171-66c78.667 0 136 22 172 66z"/><glyph glyph-name="P" unicode="P" horiz-adv-x="613" d="M157 0H85v667h237c74.667 0 131.834-17.667 171.501-53s59.5-86.333 59.5-153-19.833-117.667-59.5-153S396.667 255 322 255H157V0zm156 324c66.667 0 111.334 12.667 134.001 38s34 58.333 34 99-11.333 73.667-34 99S379.667 598 313 598H157V324h156z"/><glyph glyph-name="Q" unicode="Q" horiz-adv-x="719" d="M562.5-14.5c11.667-9 23.835-13.5 36.502-13.5 9.333 0 18.166 1.333 26.499 4S644.667-16 658-8v-64c-22.667-12-45-18-67-18-27.333 0-52.166 8.167-74.499 24.5s-41.5 38.833-57.5 67.5c-30-8-63.333-12-100-12-98.667 0-173.167 28.833-223.5 86.5s-75.5 143.167-75.5 256.5 25.167 198.833 75.5 256.5 124.833 86.5 223.5 86.5c99.333 0 174.166-28.833 224.499-86.5S659 446.333 659 333c0-150.667-44-252-132-304 12-20 23.833-34.5 35.5-43.5zm-410.499 207c12-37.667 30.669-67.5 56.002-89.5v50c17.333 13.333 35.166 24.333 53.499 33s40.5 13 66.5 13c63.333 0 117.666-36 162.999-108 32.667 20 56.5 49.667 71.5 89s22.5 90.333 22.5 153c0 94.667-18 164.167-54 208.5s-93.333 66.5-172 66.5c-78 0-135-22.167-171-66.5s-54-113.833-54-208.5c0-56 6-102.833 18-140.5zM359.003 58c27.333 1.333 49.335 3.999 66.002 7.999-13.333 22.667-28.166 40.334-44.499 53.001s-36.5 19-60.5 19c-20.667 0-38.834-3.833-54.501-11.5S234.671 108 220.004 94c35.333-24 81.666-36 138.999-36z"/><glyph glyph-name="R" unicode="R" horiz-adv-x="631" d="M501 0L327 268.999H157v-269H85v667h274c64.667 0 113.667-16.333 147-49s50-81 50-145c0-51.333-13.667-94.666-41-129.999s-64-57.333-110-66L586 0h-85zM157 336.999h169c54.667 0 94.667 11 120 33s38 54.667 38 98c0 42.667-10 75.167-30 97.5s-54.333 33.5-103 33.5H157v-262z"/><glyph glyph-name="S" unicode="S" horiz-adv-x="555" d="M164 3c-27.333 8.667-60.334 23.33-99.001 43.997v78c24-20 54.167-36.5 90.5-49.5s76.833-19.5 121.5-19.5c48.667 0 85 10.333 109 31s36 48.667 36 84c0 26-7 47.5-21 64.5s-30.667 30.333-50 40-48.333 21.834-87 36.501c-41.333 14-74.166 27.333-98.499 40S120.334 383.332 103.001 408s-26 57.334-26 98.001c0 27.333 6.833 54 20.5 80s35.667 47.667 66 65 69.5 26 117.5 26c35.333 0 64.166-3.333 86.499-10s51.833-19 88.5-37v-74l-37.5 21.5c-20.333 11.667-41.333 20.167-63 25.5s-45.167 8-70.5 8c-46 0-80-9.5-102-28.5s-33-42.833-33-71.5c0-26 5.833-47 17.5-63s27.334-29 47.001-39 47.5-21 83.5-33c41.333-14 75.166-27.833 101.499-41.5s48.833-33.167 67.5-58.5 28-57.666 28-96.999c0-52.667-17.5-97.334-52.5-134S351.333-10 274-10c-46 0-82.667 4.332-110 13z"/><glyph glyph-name="T" unicode="T" horiz-adv-x="583" d="M256 599H20v68h543v-68H328V0h-72v599z"/><glyph glyph-name="U" unicode="U" horiz-adv-x="692" d="M153.5 63c-45.667 48.667-68.498 118.334-68.498 209.001v395h72v-399c0-140 63-210 189-210 127.333 0 191 70 191 210v399h70v-395c0-90.667-22.833-160.334-68.5-209.001S428.668-10 346.001-10 199.167 14.333 153.5 63z"/><glyph glyph-name="V" unicode="V" horiz-adv-x="623" d="M603 667L347 0h-71L20 667h77L315 95l214 570z"/><glyph glyph-name="W" unicode="W" horiz-adv-x="976" d="M951 667L736 0h-73L488 553 313 0h-74L25 667h76L281 98l171 569h72L698 98l177 569h76z"/><glyph glyph-name="X" unicode="X" horiz-adv-x="589" d="M487 0L293 275 100 0H12l237 338L18 667h86l189-268 188 268h88L337 336 573 0h-86z"/><glyph glyph-name="Y" unicode="Y" horiz-adv-x="598" d="M333 306V0h-72v306L12 667h87l197-292 198 292h87z"/><glyph glyph-name="Z" unicode="Z" horiz-adv-x="609" d="M539 606L153 68h386V0H64v63l390 536H74v68h465v-61z"/><glyph glyph-name="bracketleft" unicode="[" horiz-adv-x="383" d="M119 696h181v-68H191V-48h109v-68H119v812z"/><glyph glyph-name="backslash" unicode="\" horiz-adv-x="368" d="M-37 756h66L396-98h-65z"/><glyph glyph-name="bracketright" unicode="]" horiz-adv-x="381" d="M84-48h108v676H84v68h180v-812H84v68z"/><glyph glyph-name="asciicircum" unicode="^" horiz-adv-x="560" d="M238 690h55l104-217h-60l-71 159-72-159h-60z"/><glyph glyph-name="underscore" unicode="_" horiz-adv-x="546" d="M0-24h546v-44H0v44z"/><glyph glyph-name="grave" unicode="`" horiz-adv-x="219" d="M46 679h73l57-115h-47z"/><glyph glyph-name="a" unicode="a" horiz-adv-x="554" d="M425.5 467c32.333-27.333 48.5-67 48.5-119V106c0-48-19.667-80.167-59-96.5S321.334-15 252.001-15C199.334-15 154.167-3.333 116.5 20S60 82.333 60 137c0 59.333 16.333 102.5 49 129.5S186.667 307 244 307c64.667 0 117-11.667 157-35v59c0 74.667-43.667 112-131 112-28.667 0-57.667-4-87-12s-54-20-74-36v72c20 12.667 47.167 22.667 81.5 30S259 508 293 508c56 0 100.167-13.667 132.5-41zM370 59.5c20.667 7 30.999 21.168 30.999 42.501v112c-18 8.667-39 15.5-63 20.5s-49 7.5-75 7.5c-42 0-74.333-8-97-24s-34-39.333-34-70c0-34.667 13.333-59.834 40-75.501s59-23.5 97-23.5c46.667 0 80.334 3.5 101.001 10.5z"/><glyph glyph-name="b" unicode="b" d="M456.5 440.5C494.833 396.167 514 334.667 514 256c-.667-101.333-24-171.833-70-211.5S343.333-15 280-15C146.667-15 80 18.333 80 85v625h72V478c20.667 8 43.834 14.833 69.501 20.5s47.167 8.5 64.5 8.5c75.333 0 132.166-22.167 170.499-66.5zm-54-334.5c23.667 36.667 35.499 86.666 35.499 149.999 0 57.333-12.333 102.5-37 135.5s-63 49.5-115 49.5c-22 0-44.833-3-68.5-9s-45.5-14.667-65.5-26v-304c0-19.333 11.667-32.666 35-39.999s51-11 83-11c64.667 0 108.834 18.333 132.501 55z"/><glyph glyph-name="c" unicode="c" horiz-adv-x="492" d="M122.5 48.5C77.5 86.167 55 153.334 55 250.001c0 96 22.5 163 67.5 201s100.5 57 166.5 57c50 0 99.333-9.333 148-28v-69c-45.333 18.667-92 28-140 28-59.333 0-102.5-15-129.5-45s-40.5-78-40.5-144c0-66.667 13.5-114.834 40.5-144.501S237.667 61 297 61c50 0 96.667 9.333 140 28V19C390.333 1 341-8 289-8c-66 0-121.5 18.833-166.5 56.5z"/><glyph glyph-name="d" unicode="d" d="M489 710l-.001-624c0-34-21.5-59.333-64.5-76s-89.833-25-140.5-25C222.666-15 169.333 4.833 124 44.5S55.667 154.667 55 256c0 78.667 19.167 140.167 57.5 184.5S207.666 507 282.999 507c17.333 0 38.833-2.833 64.5-8.5S396.333 486 417 478v232h72zm-72.001-304c-20 11.333-41.832 20-65.499 26s-46.5 9-68.5 9c-52 0-90.333-16.5-115-49.5s-37-78.167-37-135.5c0-62.667 11.333-112.5 34-149.5S228.667 51 288 51c35.333 0 65.666 4 90.999 12s38 18 38 30v313z"/><glyph glyph-name="e" unicode="e" horiz-adv-x="547" d="M441 434c35.333-49.333 52.335-115.001 51.002-197.001h-364c0-60 14-106 42-138s68-48 120-48c66.667 0 123.667 14.333 171 43v-74c-48.667-23.333-107-35-175-35-72.667 0-129.334 22.5-170.001 67.5s-61 110.833-61 197.5c0 84.667 19.167 148.834 57.5 192.501S204.667 508 274 508c76 0 131.667-24.667 167-74zm-266.998-22.501c-22.667-20.333-37-56.5-43-108.5h285c-3.333 46.667-16.5 81.5-39.5 104.5s-57.167 34.5-102.5 34.5c-44 0-77.333-10.167-100-30.5z"/><glyph glyph-name="f" unicode="f" horiz-adv-x="375" d="M126 433H40v66h86v27c0 55.333 9.667 96.5 29 123.5s40.166 43.667 62.499 50 45.5 9.5 69.5 9.5c18 0 34-2 48-6v-64c-13.333 2.667-25.333 4-36 4-21.333 0-38.666-2-51.999-6s-24.833-14.333-34.5-31-14.5-43-14.5-79v-28h137v-66H198V0h-72v433z"/><glyph glyph-name="g" unicode="g" d="M433.5 476.5c37-20.333 55.499-51.503 55.499-93.503v-404c0-49.333-16-91.166-48-125.499s-88.333-51.5-169-51.5c-22.667 0-43.834 1.833-63.501 5.5s-36.667 7.334-51 11.001-23.5 5.834-27.5 6.501v68c26-7.333 48.833-13 68.5-17s41.5-6 65.5-6c60.667 0 101.334 10 122.001 30s31 45.667 31 77v37C396.332 6 373.165-.833 347.498-6.5s-47.167-8.5-64.5-8.5c-75.333 0-132.166 22.167-170.499 66.5s-57.5 105.833-57.5 184.5C55.666 338 79.333 408.667 126 448s104 59 172 59c53.333 0 98.5-10.167 135.5-30.5zM167.999 100.497c24.667-33 63-49.5 115-49.5 22 0 44.833 3 68.5 9s45.5 14.667 65.5 26v287c0 26-10.167 43.833-30.5 53.5s-47.833 14.5-82.5 14.5c-66.667 0-112.167-18.333-136.5-55s-36.5-86.667-36.5-150c0-57.333 12.333-102.5 37-135.5z"/><glyph glyph-name="h" unicode="h" horiz-adv-x="575" d="M446 455.5c32.667-35 49.001-88.166 49.001-159.499v-296h-72v296c0 46.667-10.833 82.667-32.5 108s-53.5 38-95.5 38c-46.667 0-94.334-13.333-143.001-40v-402H80v720h72v-254c24.667 13.333 50.167 23.666 76.5 30.999s51.166 11 74.499 11c62.667 0 110.334-17.5 143.001-52.5z"/><glyph glyph-name="i" unicode="i" horiz-adv-x="240" d="M80 667h80v-79H80v79zm4-168h72V0H84v499z"/><glyph glyph-name="j" unicode="j" horiz-adv-x="268" d="M108 667h80v-79h-80v79zM10-126c28 .667 49.334 4.833 64.001 12.5s24.667 18.5 30 32.5 8 32.667 8 56v524h72V-29c0-55.333-14.333-96.5-43-123.5S68.667-193 10-193v67z"/><glyph glyph-name="k" unicode="k" horiz-adv-x="511" d="M385 0L152 236V0H80v689h72V314l203 185h90L200 283 481 0h-96z"/><glyph glyph-name="l" unicode="l" horiz-adv-x="232" d="M80 0v689h72V0H80z"/><glyph glyph-name="m" unicode="m" horiz-adv-x="883" d="M756.5 462c31-30.667 46.499-76.333 46.499-137V0h-72v325c0 78.667-44.667 118-134 118-42.667 0-83-11.333-121-34 8.667-23.333 13-51.333 13-84V0h-72v325c0 78.667-44.667 118-134 118-41.333 0-85-6.667-131-20V0h-72v459c64.667 32.667 135 49 211 49 64.667 0 113.334-13.667 146.001-41 50 27.333 106 41 168 41 70 0 120.5-15.333 151.5-46z"/><glyph glyph-name="n" unicode="n" d="M291 508c70 0 120.5-15.332 151.5-45.999S489 385.667 489 325V0h-72v325c0 78.667-44.667 118-134 118-41.333 0-85-6.667-131-20V0H80v459c64.667 32.667 135 49 211 49z"/><glyph glyph-name="o" unicode="o" d="M112.5 53C74.167 98.333 55 163.333 55 248c0 86 19.5 150.833 58.5 194.5S209 508 283 508c78 0 136-23.167 174-69.5s57-109.833 57-190.5c0-82.667-20-147.167-60-193.5S357.667-15 285-15c-76.667 0-134.167 22.667-172.5 68zM442 248c0 62.667-12.333 110.667-37 144s-65 50-121 50c-104.667 0-157-64.667-157-194 0-131.333 52.333-197 157-197 105.333 0 158 65.667 158 197z"/><glyph glyph-name="p" unicode="p" d="M448 443.5c44-43 66-111.833 66-206.5 0-78-20.667-139.333-62-184S352-14 276-14c-17.333 0-37.333 2.667-60 8s-44 12.333-64 21v-232H80v626c0 36.667 20.167 62.167 60.5 76.5S228 507.333 282 508c66.667 0 122-21.5 166-64.5zM396.5 102c27.667 33.333 41.499 78.333 41.499 135 0 62.667-11.333 112.5-34 149.5s-63.667 55.5-123 55.5c-36 0-66.5-4.167-91.5-12.5s-37.5-19.5-37.5-33.5V87c40-23.333 81.333-35 124-35 52.667 0 92.834 16.667 120.501 50z"/><glyph glyph-name="q" unicode="q" d="M437.5 481c34.333-18 51.501-48.667 51.501-92v-606h-72V15c-20-8.667-41.333-15.667-64-21s-42.667-8-60-8c-76 0-134.667 22.333-176 67s-62 106-62 184c.667 102 24.667 172.667 72 212S233.667 508 305 508c54 0 98.167-9 132.5-27zM172.501 102c27.667-33.333 67.833-50 120.5-50 42.667 0 84 11.667 124 35v302c0 17.333-12 30.5-36 39.5s-50.333 13.5-79 13.5c-66 0-111-18.333-135-55s-36-86.667-36-150c0-56.667 13.833-101.667 41.5-135z"/><glyph glyph-name="r" unicode="r" horiz-adv-x="377" d="M80 459c25.333 10.667 58.831 21.5 100.498 32.5S265.332 508 309.999 508c6.667 0 17.334-2 32.001-6v-64c-16 2-32 3-48 3-22 0-42.333-1.333-61-4s-45.667-7-81-13V0H80v459z"/><glyph glyph-name="s" unicode="s" horiz-adv-x="456" d="M134-5c-24 6.667-50.335 17.331-79.002 31.998v76c34-19.333 61.833-32.833 83.5-40.5s47.5-11.5 77.5-11.5c33.333 0 60.5 7.333 81.5 22s31.5 33.667 31.5 57c0 20.667-6.333 36.167-19 46.5s-32.667 20.833-60 31.5l-26 11c-38 10.667-67.5 20.334-88.5 29.001s-39.333 22.334-55 41.001-23.5 44-23.5 76 8.333 58.667 25 80 38.334 37.166 65.001 47.499 54.667 15.5 84 15.5c26.667 0 49.167-3 67.5-9s43.5-16 75.5-30v-72c-33.333 16.667-58.833 28.334-76.5 35.001s-38.5 10-62.5 10c-29.333 0-54.333-5.833-75-17.5s-31-28.167-31-49.5c0-17.333 5.167-31.5 15.5-42.5s23.333-19.667 39-26 36.834-13.166 63.501-20.499c33.333-10.667 59.833-20.334 79.5-29.001s37-22.5 52-41.5S401 171 401 139c0-34-8.667-62.5-26-85.5S335.167 13.333 307.5 2 251-15 221-15c-34 0-63 3.333-87 10z"/><glyph glyph-name="t" unicode="t" horiz-adv-x="363" d="M147 25.5c-23.333 22.333-35 54.165-35 95.498v312H25v66h87v141h72v-141h129v-66H184v-289c0-29.333 4.667-50.666 14-63.999s26.666-20 51.999-20c24.667 0 45.667 4 63 12v-68C303.666.666 291.833-2.167 277.5-4.5S249.667-8 237-8c-36.667 0-66.667 11.167-90 33.5z"/><glyph glyph-name="u" unicode="u" horiz-adv-x="578" d="M134.5 36.5C98.167 70.833 80 119.666 80 182.999v316h72v-300c0-50.667 11-87.834 33-111.501s56.667-35.5 104-35.5c46.667 0 81.167 11.833 103.5 35.5S426 148.332 426 198.999v300h72v-316c0-63.333-18.167-112.166-54.5-146.499S355.667-15 289-15 170.833 2.167 134.5 36.5z"/><glyph glyph-name="v" unicode="v" horiz-adv-x="566" d="M531 499L319 0h-73L35 499h77L289 79l170 420h72z"/><glyph glyph-name="w" unicode="w" horiz-adv-x="796" d="M761 499L595 0h-73L397 414 274 0h-73L35 499h76L241 82l122 417h69L558 81l132 418h71z"/><glyph glyph-name="x" unicode="x" horiz-adv-x="532" d="M405 0L263 195 116 0H35l186 251L40 499h91l139-189 142 189h83L312 252 497 0h-92z"/><glyph glyph-name="y" unicode="y" horiz-adv-x="540" d="M505 499L291.003-49.001c-20.667-53.333-44.834-90.666-72.501-111.999s-55.834-32-84.501-32c-16 0-31.667 3-47 9v66c13.333-6 27.666-9 42.999-9 28.667 0 51 10.333 67 31s31 52 45 94L35 499h82L275 92l158 407h72z"/><glyph glyph-name="z" unicode="z" horiz-adv-x="455" d="M410 436L128 64h282V0H45v65l279 372H52v62h358v-63z"/><glyph glyph-name="braceleft" unicode="{" horiz-adv-x="373" d="M192.5-71.5C166.833-45.833 154.001-8.667 154.001 40v156c0 36-21 60.333-63 73v49c17.333 4.667 32.166 12.667 44.499 24s18.5 27.333 18.5 48v156c0 48.667 12.833 86 38.5 112s62.834 39 111.501 39h8v-68h-8c-26.667-1.333-46.334-7.333-59.001-18s-19-30.667-19-60V390c0-38.667-19.333-71-58-97 38.667-26 58-58.333 58-97V35c0-28.667 6.333-48.5 19-59.5s32.334-17.167 59.001-18.5h8v-67h-8c-48.667 0-85.834 12.833-111.501 38.5z"/><glyph glyph-name="bar" unicode="|" horiz-adv-x="443" d="M185 665h72V-99h-72v764z"/><glyph glyph-name="braceright" unicode="}" horiz-adv-x="368" d="M70-43l5.999.001c26.667 1.333 46.334 7.5 59.001 18.5s19 30.833 19 59.5v161c0 38 19.667 70.333 59 97-39.333 26.667-59 59-59 97v161c0 29.333-6.167 49.333-18.5 60s-32.166 16.667-59.499 18h-6v68h6c48.667 0 85.834-13 111.501-39s38.5-63.333 38.5-112v-156c0-20.667 6.167-36.667 18.5-48s27.166-19.333 44.499-24v-49c-42-12.667-63-37-63-73v-156c0-48.667-12.833-85.834-38.5-111.501S124.667-110 76-110h-6v67z"/><glyph glyph-name="asciitilde" unicode="~" horiz-adv-x="500" d="M98 292c20.667 26 43.667 39 69 39 12 0 24.5-2.5 37.5-7.5s27.833-12.167 44.5-21.5c20-10 36-17.333 48-22s24-7 36-7c25.333 0 48.333 13 69 39v-60c-20.667-26-43.667-39-69-39-12 0-24 2.333-36 7s-28 12-48 22c-18 9.333-33 16.333-45 21s-24 7-36 7c-26 0-49.333-13-70-39v61z"/><glyph glyph-name="uni00A0" horiz-adv-x="290"/><glyph glyph-name="exclamdown" unicode="¡" horiz-adv-x="362" d="M148 499h80v-79h-80v79zm11-168h58l7-499h-72z"/><glyph glyph-name="cent" unicode="¢" horiz-adv-x="492" d="M167.5 455c-27-30-40.5-77.999-40.5-143.999 0-66.667 13.5-114.834 40.5-144.501S237.667 122 297 122c50 0 96.667 9.333 140 28V80c-36-14-76-22.667-120-26V0h-72v56c-55.333 7.333-100.833 30.5-136.5 69.5S55 226.333 55 311s17.833 146.667 53.5 186 81.167 62.333 136.5 69v62h72v-60c42-3.333 82-12.333 120-27v-69c-45.333 18.667-92 28-140 28-59.333 0-102.5-15-129.5-45z"/><glyph glyph-name="sterling" unicode="£" horiz-adv-x="555" d="M241 574c-21.333-22-32.005-49-32.005-81V347h201v-66h-201V78c10-1.333 35.333-6 76-14 20.667-4 42.334-7.833 65.001-11.5S393.33 47 411.997 47c32 0 61.333 5 88 15v-73c-26.667-10-56-15-88-15-16.667 0-35 1.5-55 4.5s-35.833 5.667-47.5 8-19.5 3.833-23.5 4.5c-29.333 6-53.166 10.5-71.499 13.5S177.332 9 158 9C120.666 9 85 1 51-15v73c26 12.667 54.667 20 86 22v201H51v66h86v143c0 32.667 7.167 63 21.5 91s37.333 50.833 69 68.5S299.666 676 349 676c52.667 0 103-13 151-39v-73c-45.333 28.667-93.666 43-144.999 43-54.667 0-92.667-11-114-33z"/><glyph glyph-name="currency" unicode="¤" horiz-adv-x="494" d="M398 233l46-47-45-45-47 47c-32-21.333-66.333-32-103-32-38.667 0-73.667 11-105 33l-49-48-45 45 48 49c-21.333 32-32 66.667-32 104 0 36.667 10.667 71 32 103l-48 48 45 45 48-47c32.667 22.667 68 34 106 34 37.333 0 72-10.667 104-32l46 45 45-45-45-46c22-31.333 33-66.333 33-105 0-38-11.333-73.333-34-106zm-228.5 20c21-22 47.5-33 79.5-33 31.333 0 57.5 11 78.5 33s31.5 50.667 31.5 86-10.5 64-31.5 86-47.167 33-78.5 33c-32 0-58.5-11-79.5-33S138 374.333 138 339s10.5-64 31.5-86z"/><glyph glyph-name="yen" unicode="¥" horiz-adv-x="602" d="M267 138H110v60h157v94H110v60h125L18 667h88l197-287 197 287h88L371 352h125v-60H339v-94h157v-60H339V0h-72v138z"/><glyph glyph-name="brokenbar" unicode="¦" horiz-adv-x="443" d="M185 665h72V347h-72v318zm72-764h-72v318h72V-99z"/><glyph glyph-name="section" unicode="§" horiz-adv-x="543" d="M64 28l-.002 74.003c44-27.333 99.333-41 166-41 34 0 65.667 4.5 95 13.5s44 26.833 44 53.5c0 13.333-2.667 24.666-8 33.999s-17.5 18.666-36.5 27.999-47.5 18.333-85.5 27c-39.333 9.333-71.666 18.833-96.999 28.5S96.333 268.835 81 286.5 58 327 58 355c0 53.334 30.333 89.667 91 109-26.667 16.667-40 40-40 70 0 24.667 6.667 47.667 20 69s35 38.833 65 52.5S262.333 676 309 676c50.667 0 99-10 145-30v-71c-42.667 22.667-89 34-139 34-34 0-64.833-4.667-92.5-14S181 569 181 545c0-9.333 2.167-18 6.5-26s15.5-16.667 33.5-26 46.333-18.333 85-27c37.333-8.667 69-18.5 95-29.5s47.667-27 65-48 26-48.167 26-81.5c0-24.667-8.333-45.834-25-63.501S430 213 406 205c23.333-19.333 35-45 35-77 0-42.667-18.167-76-54.5-100S299.667-8 235-8C169-8 112 4 64 28zm355.998 279.003c0 13.333-2.831 24.668-8.498 34.001s-17.834 18.666-36.501 27.999-47 18.333-85 27c-32 7.333-60.667 15.333-86 24-49.333-9.333-74-31-74-65 0-8 2.167-15.167 6.5-21.5s15.666-13.5 33.999-21.5 46.833-16.333 85.5-25c44-9.333 79.667-21.333 107-36 38 11.333 57 30 57 56z"/><glyph glyph-name="dieresis" unicode="¨" horiz-adv-x="385" d="M79 643h79v-79H79v79zm148 0h79v-79h-79v79z"/><glyph glyph-name="copyright" unicode="©" horiz-adv-x="778" d="M219 38c-52.667 30.667-94.333 72.167-125 124.5S48 271.666 48 332.999c0 62 15.333 119.167 46 171.5s72.167 93.833 124.5 124.5 109.5 46 171.5 46 119.167-15.333 171.5-46 93.833-72.167 124.5-124.5 46-109.5 46-171.5c0-61.333-15.333-118.166-46-170.499S613.833 68.667 561.5 38 452-8 390-8C328.667-8 271.667 7.333 219 38zm324.501 30.5c47 27.667 84.167 64.834 111.5 111.501s41 97.667 41 153-13.667 106.5-41 153.5-64.5 84.333-111.5 112-98.167 41.5-153.5 41.5-106.333-13.833-153-41.5-83.834-65-111.501-112S84 388.334 84 333.001s13.833-106.333 41.5-153S190.334 96.167 237.001 68.5s97.667-41.5 153-41.5 106.5 13.833 153.5 41.5zM219.001 333c0 133.333 60 200 180 200 42 0 81.667-7.333 119-22v-40c-35.333 14.667-73.333 22-114 22-49.333 0-85.5-12.833-108.5-38.5s-34.5-66.167-34.5-121.5 11.5-95.833 34.5-121.5 59.167-38.5 108.5-38.5c39.333 0 77.333 7.667 114 23v-40c-37.333-14.667-77-22-119-22-120 0-180 66.333-180 199z"/><glyph glyph-name="ordfeminine" unicode="ª" horiz-adv-x="394" d="M113 408c-24.667 12.667-37.002 35.999-37.002 69.999 0 33.333 10.167 56.833 30.5 70.5s48.833 20.5 85.5 20.5c17.333 0 33-1.333 47-4s23-4.667 27-6c0 51.333-26 77-78 77-27.333 0-55.333-5.667-84-17v39c28.667 11.333 57.334 17 86.001 17 77.333 0 116-38.333 116-115v-84c0-33.333-12.167-56.166-36.5-68.499S219.333 389 192 389c-28 0-54.333 6.333-79 19zm152.998 68.999l.001 46c-4 1.333-12.833 3.333-26.5 6s-26.834 4-39.501 4c-24 0-44-3.5-60-10.5s-24-21.5-24-43.5c0-35.333 25.333-53 76-53 49.333 0 74 17 74 51z"/><glyph glyph-name="guillemotleft" unicode="«" horiz-adv-x="553" d="M31 255l169 190h97L119 255 297 64h-97zm190 0l169 190h97L309 255 487 64h-97z"/><glyph glyph-name="logicalnot" unicode="¬" horiz-adv-x="622" d="M459 258H97v66h428V158h-66v100z"/><glyph glyph-name="uni00AD" unicode="­" horiz-adv-x="600" d="M79 333h305v-70H79v70z"/><glyph glyph-name="registered" unicode="®" horiz-adv-x="778" d="M219 38c-52.667 30.667-94.333 72.167-125 124.5S48 271.666 48 332.999c0 62 15.333 119.167 46 171.5s72.167 93.833 124.5 124.5 109.5 46 171.5 46 119.167-15.333 171.5-46 93.833-72.167 124.5-124.5 46-109.5 46-171.5c0-61.333-15.333-118.166-46-170.499S613.833 68.667 561.5 38 452-8 390-8C328.667-8 271.667 7.333 219 38zm324.501 30.5c47 27.667 84.167 64.834 111.5 111.501s41 97.667 41 153-13.667 106.5-41 153.5-64.5 84.333-111.5 112-98.167 41.5-153.5 41.5-106.333-13.833-153-41.5-83.834-65-111.501-112S84 388.334 84 333.001s13.833-106.333 41.5-153S190.334 96.167 237.001 68.5s97.667-41.5 153-41.5 106.5 13.833 153.5 41.5zM266.001 528h143c42.667 0 75.5-9.5 98.5-28.5s34.5-47.167 34.5-84.5c0-38.667-10-66-30-82s-40-26.333-60-31l107-164h-50l-101 158h-100V138h-42v390zm141-192c36.667 0 61.167 7 73.5 21s18.5 32.333 18.5 55-6.167 41-18.5 55-36.833 21-73.5 21h-99V336h99z"/><glyph glyph-name="macron" unicode="¯" horiz-adv-x="403" d="M86 629h234v-53H86v53z"/><glyph glyph-name="degree" unicode="°" horiz-adv-x="387" d="M109.5 475C91.167 493.667 82 521.334 82 558.001c0 36 9.167 63.5 27.5 82.5s45.5 28.5 81.5 28.5c35.333 0 62.333-9.5 81-28.5s28-46.5 28-82.5c0-36.667-9.333-64.334-28-83.001s-45.667-28-81-28c-36 0-63.167 9.333-81.5 28zm137 25.5c11.667 11.667 17.5 30.834 17.5 57.501 0 26-5.833 45-17.5 57s-30.167 18-55.5 18c-26 0-44.667-6-56-18s-17-31-17-57c0-26.667 5.667-45.834 17-57.501s30-17.5 56-17.5c25.333 0 43.833 5.833 55.5 17.5z"/><glyph glyph-name="plusminus" unicode="±" horiz-adv-x="585" d="M261 292H113v60h148v147h60V352h147v-60H321V144h-60v148zM113 93h355V33H113v60z"/><glyph glyph-name="two.superior" unicode="²" horiz-adv-x="328" d="M279 522v-59.001H53v34c37.333 28 72 62.333 104 103s48 78.667 48 114c0 14.667-6 26.834-18 36.501S159.333 765 140 765c-14.667 0-29.5-3-44.5-9S67.667 743 57 735v64c29.333 18 61.666 27 96.999 27 40.667 0 70.834-9.833 90.501-29.5S274 753.333 274 726c0-32.667-11.833-67-35.5-103s-53.167-69.667-88.5-101h129z"/><glyph glyph-name="three.superior" unicode="³" horiz-adv-x="323" d="M53 481l.003 62c29.333-16 59.666-24 90.999-24 20 0 36.667 4.5 50 13.5s20 23.167 20 42.5c0 16.667-7 29.167-21 37.5s-31 12.5-51 12.5h-39v57h41c14 0 26 3.667 36 11s15 19.666 15 36.999c0 10-5.167 18.333-15.5 25s-23.833 10-40.5 10c-27.333 0-53-6.333-77-19v62c26.667 12 54 18 82 18 40.667 0 70.667-9.5 90-28.5s29-41.5 29-67.5c0-16-3.333-29.333-10-40s-14.334-19-23.001-25-13-8.667-13-8c2.667-2 10-6.167 22-12.5s22-16.166 30-29.499 12-30 12-50c0-29.333-10.833-54.333-32.5-75S193.667 459 149 459c-33.333 0-65.333 7.333-96 22z"/><glyph glyph-name="acute" unicode="´" horiz-adv-x="236" d="M117 679h74l-83-115H60z"/><glyph glyph-name="uni00B5" unicode="µ" horiz-adv-x="609" d="M99 499h72.001V175c0-32 8.833-58.5 26.5-79.5S250.668 64 304.001 64c44 0 87.667 6.333 131 19v416h72V41c-20.667-10.667-49.667-21.5-87-32.5S341.668-8 297.001-8C274.334-8 253.667-5 235 1s-34 12.5-46 19.5-18 10.833-18 11.5v-242H99v709z"/><glyph glyph-name="paragraph" unicode="¶" horiz-adv-x="445" d="M301 256h-33c-74.667 0-131.667 17.667-171 53s-59 86.333-59 153c0 66 19.667 116.667 59 152s96.333 53 171 53h99V0h-66v256z"/><glyph glyph-name="periodcentered" unicode="·" horiz-adv-x="311" d="M116 312h79v-80h-79v80z"/><glyph glyph-name="cedilla" unicode="¸" horiz-adv-x="253" d="M138-5h57l-63-115H56z"/><glyph glyph-name="one.superior" unicode="¹" horiz-adv-x="234" d="M163 822V463H95v268l-42-27v76l66 42h44z"/><glyph glyph-name="ordmasculine" unicode="º" horiz-adv-x="417" d="M113.5 420.5C88.5 441.5 76 478.667 76 532c0 54 12.5 91.5 37.5 112.5S169.333 676 206 676s67.5-10.5 92.5-31.5S336 586 336 532c0-53.333-12.5-90.5-37.5-111.5S242.667 389 206 389s-67.5 10.5-92.5 31.5zM275 451c14 16.667 21 43.667 21 81s-7 64.5-21 81.5-37 25.5-69 25.5c-31.333 0-54.166-8.5-68.499-25.5s-21.5-44.167-21.5-81.5 7.167-64.333 21.5-81 37.166-25 68.499-25c32 0 55 8.333 69 25z"/><glyph glyph-name="guillemotright" unicode="»" horiz-adv-x="553" d="M244 255L67 445h96l170-190L163 64H67zm190 0L257 445h96l170-190L353 64h-96z"/><glyph glyph-name="onequarter" unicode="¼" horiz-adv-x="739" d="M163 674V315H95v268l-42-27v76l66 42h44zm314 11h68L138-22H70zm212-540V89h-51V1h-69v88H425v61l170 210h43V145h51zm-120 0v98l-81-98h81z"/><glyph glyph-name="onehalf" unicode="½" horiz-adv-x="685" d="M163 674V315H95v268l-42-27v76l66 42h44zm307 11h68L131-22H63zM635 60V.999H409v34c37.333 28 72 62.333 104 103s48 78.667 48 114c0 14.667-6 26.834-18 36.501S515.333 303 496 303c-14.667 0-29.5-3-44.5-9s-27.833-13-38.5-21v64c29.333 18 61.666 27 96.999 27 40.667 0 70.834-9.833 90.501-29.5S630 291.333 630 264c0-32.667-11.833-67-35.5-103S541.333 91.333 506 60h129z"/><glyph glyph-name="threequarters" unicode="¾" horiz-adv-x="751" d="M53 333l.003 62c29.333-16 59.666-24 90.999-24 20 0 36.667 4.5 50 13.5s20 23.167 20 42.5c0 16.667-7 29.167-21 37.5s-31 12.5-51 12.5h-39v57h41c14 0 26 3.667 36 11s15 19.666 15 36.999c0 10-5.167 18.333-15.5 25s-23.833 10-40.5 10c-27.333 0-53-6.333-77-19v62c26.667 12 54 18 82 18 40.667 0 70.667-9.5 90-28.5s29-41.5 29-67.5c0-16-3.333-29.333-10-40s-14.334-19-23.001-25-13-8.667-13-8c2.667-2 10-6.167 22-12.5s22-16.166 30-29.499 12-30 12-50c0-29.333-10.833-54.333-32.5-75S193.667 311 149 311c-33.333 0-65.333 7.333-96 22zm497.003 352h68l-407-707h-68zm151-540V89h-51V1h-69v88h-144v61l170 210h43V145h51zm-120 0v98l-81-98h81z"/><glyph glyph-name="questiondown" unicode="¿" horiz-adv-x="483" d="M218 499h80v-79h-80v79zm-83-635C93-109.333 72.001-60.662 72.001 10.005c0 31.333 6.167 56.166 18.5 74.499s30.5 37.833 54.5 58.5c16.667 14 30.167 26.667 40.5 38s19 25.666 26 42.999 10.5 38.333 10.5 63v45h72v-50c0-32.667-4.333-60.167-13-82.5s-19-40.333-31-54-27.667-28.5-47-44.5c-20-15.333-34.833-29.5-44.5-42.5s-14.5-29.167-14.5-48.5c0-36.667 11.167-64.834 33.5-84.501s55.166-29.5 98.499-29.5c46 0 90.667 14.667 134 44v-78c0-.667-6.667-4.334-20-11.001s-30.5-12.834-51.5-18.501-43.833-8.5-68.5-8.5c-48 0-93 13.333-135 40z"/><glyph glyph-name="Agrave" unicode="À" horiz-adv-x="643" d="M466 208H178L98 0H20l266 667h72L623 0h-77zm-27 69L322 582 205 277h234zM221 836h74l57-115h-48z"/><glyph glyph-name="Aacute" unicode="Á" horiz-adv-x="643" d="M466 208H178L98 0H20l266 667h72L623 0h-77zm-27 69L322 582 205 277h234zm-77 570h74l-83-115h-48z"/><glyph glyph-name="Acircumflex" unicode="Â" horiz-adv-x="643" d="M466 208H178L98 0H20l266 667h72L623 0h-77zm-27 69L322 582 205 277h234zM293 839h61l80-120h-46l-65 70-65-70h-46z"/><glyph glyph-name="Atilde" unicode="Ã" horiz-adv-x="643" d="M466 208H178L98 0H20l266 667h72L623 0h-77zm-27 69L322 582 205 277h234zM187 727c-2.667 10-3.998 20-3.998 30 0 24.667 7.833 44.5 23.5 59.5s33.5 22.5 53.5 22.5c16 0 30.167-3.167 42.5-9.5s26.833-15.5 43.5-27.5c10.667-8.667 19.667-15.167 27-19.5s15-6.5 23-6.5 14.333 2.667 19 8 7 13 7 23c0 3.333-.667 9-2 17h52c1.333-9.333 2-16.333 2-21 0-24.667-7.833-44.667-23.5-60s-36.5-23-62.5-23c-14.667 0-28.334 3.333-41.001 10S320.667 745.667 306 757c-10.667 8.667-19.5 15-26.5 19s-13.833 6-20.5 6c-8 0-14.667-3.167-20-9.5s-8-15.5-8-27.5c0-2.667.667-8.667 2-18h-46z"/><glyph glyph-name="Adieresis" unicode="Ä" horiz-adv-x="643" d="M466 208H178L98 0H20l266 667h72L623 0h-77zm-27 69L322 582 205 277h234zM209 805h79v-79h-79v79zm148 0h79v-79h-79v79z"/><glyph glyph-name="Aring" unicode="Å" horiz-adv-x="643" d="M466 208H178L98 0H20l257 645c-19.333 5.333-33.333 15-42 29s-13 33.333-13 58c0 32 7.833 55.333 23.5 70s41.5 22 77.5 22c35.333 0 61-7.333 77-22s24-38 24-70c0-24.667-4.5-44.167-13.5-58.5S387 649.667 367 645L623 0h-77zM279.5 769.5c-7.667-7-11.5-19.5-11.5-37.5s3.833-30.667 11.5-38 22.167-11 43.5-11c20.667 0 34.834 3.667 42.501 11s11.5 20 11.5 38-3.833 30.5-11.5 37.5S343.667 780 323 780c-21.333 0-35.833-3.5-43.5-10.5zM439 277L322 582 205 277h234z"/><glyph glyph-name="AE" unicode="Æ" horiz-adv-x="957" d="M545 598V368h296v-70H545V69h337V0H473v209H245L103 0H20l456 667h406v-69H545zm-72-317v265L293 281h180z"/><glyph glyph-name="Ccedilla" unicode="Ç" horiz-adv-x="622" d="M188 542c-38.667-44-58-113.332-58-207.999 0-95.333 19.167-164.833 57.5-208.5s99.833-65.5 184.5-65.5c70.667 0 135.667 16.333 195 49v-69c-64.667-30-128.334-46-191.001-48l-56-102h-76l74 104c-87.333 8-153 40.5-197 97.5s-66 137.833-66 242.5c0 113.333 25.833 198.666 77.5 255.999S261.333 676 364 676c68 0 135.667-16.333 203-49v-69c-62.667 33.333-127.667 50-195 50-84 0-145.333-22-184-66z"/><glyph glyph-name="Egrave" unicode="È" horiz-adv-x="581" d="M85 667h421v-68H157V369h307v-70H157V68h349V0H85v667zm120 169h74l57-115h-48z"/><glyph glyph-name="Eacute" unicode="É" horiz-adv-x="581" d="M85 667h421v-68H157V369h307v-70H157V68h349V0H85v667zm261 180h74l-83-115h-48z"/><glyph glyph-name="Ecircumflex" unicode="Ê" horiz-adv-x="581" d="M85 667h421v-68H157V369h307v-70H157V68h349V0H85v667zm192 172h61l80-120h-46l-65 70-65-70h-46z"/><glyph glyph-name="Edieresis" unicode="Ë" horiz-adv-x="581" d="M85 667h421v-68H157V369h307v-70H157V68h349V0H85v667zm108 138h79v-79h-79v79zm148 0h79v-79h-79v79z"/><glyph glyph-name="Igrave" unicode="Ì" horiz-adv-x="242" d="M85 667h72V0H85v667zM19 836h74l57-115h-48z"/><glyph glyph-name="Iacute" unicode="Í" horiz-adv-x="242" d="M85 667h72V0H85v667zm75 180h74l-83-115h-48z"/><glyph glyph-name="Icircumflex" unicode="Î" horiz-adv-x="242" d="M85 667h72V0H85v667zm6 172h61l80-120h-46l-65 70-65-70H10z"/><glyph glyph-name="Idieresis" unicode="Ï" horiz-adv-x="242" d="M85 667h72V0H85v667zM7 805h79v-79H7v79zm148 0h79v-79h-79v79z"/><glyph glyph-name="Eth" unicode="Ð" horiz-adv-x="667" d="M528.5 583.5C580.833 527.833 607 444.667 607 334 607 111.333 502.667 0 294 0H85v307H7v53h78v307h209c104 0 182.167-27.833 234.5-83.5zm-54-451.499c39 42.667 58.5 110 58.5 202s-19.5 159.333-58.5 202-100.833 64-185.5 64H157v-240h94v-53h-94v-239h132c84.667 0 146.5 21.333 185.5 64z"/><glyph glyph-name="Ntilde" unicode="Ñ" horiz-adv-x="722" d="M637 667V0h-81L157 562V0H85v667h82l398-562v562h72zm-411 60c-2.667 10-3.998 20-3.998 30 0 24.667 7.833 44.5 23.5 59.5s33.5 22.5 53.5 22.5c16 0 30.167-3.167 42.5-9.5s26.833-15.5 43.5-27.5c10.667-8.667 19.667-15.167 27-19.5s15-6.5 23-6.5 14.333 2.667 19 8 7 13 7 23c0 3.333-.667 9-2 17h52c1.333-9.333 2-16.333 2-21 0-24.667-7.833-44.667-23.5-60s-36.5-23-62.5-23c-14.667 0-28.334 3.333-41.001 10S359.667 745.667 345 757c-10.667 8.667-19.5 15-26.5 19s-13.833 6-20.5 6c-8 0-14.667-3.167-20-9.5s-8-15.5-8-27.5c0-2.667.667-8.667 2-18h-46z"/><glyph glyph-name="Ograve" unicode="Ò" horiz-adv-x="719" d="M135.5 76.5C85.167 134.167 60 219.667 60 333s25.167 198.833 75.5 256.5S260.333 676 359 676c99.333 0 174.166-28.833 224.499-86.5s75.5-143.167 75.5-256.5-25.167-198.833-75.5-256.5S458.333-10 359-10c-98.667 0-173.167 28.833-223.5 86.5zM531 124c36 44 54 113.667 54 209 0 94.667-18 164.167-54 208.5S437.667 608 359 608c-78 0-135-22.167-171-66.5S134 427.667 134 333c0-95.333 18-165 54-209s93-66 171-66c78.667 0 136 22 172 66zM265 836h74l57-115h-48z"/><glyph glyph-name="Oacute" unicode="Ó" horiz-adv-x="719" d="M135.5 76.5C85.167 134.167 60 219.667 60 333s25.167 198.833 75.5 256.5S260.333 676 359 676c99.333 0 174.166-28.833 224.499-86.5s75.5-143.167 75.5-256.5-25.167-198.833-75.5-256.5S458.333-10 359-10c-98.667 0-173.167 28.833-223.5 86.5zM531 124c36 44 54 113.667 54 209 0 94.667-18 164.167-54 208.5S437.667 608 359 608c-78 0-135-22.167-171-66.5S134 427.667 134 333c0-95.333 18-165 54-209s93-66 171-66c78.667 0 136 22 172 66zM406 847h74l-83-115h-48z"/><glyph glyph-name="Ocircumflex" unicode="Ô" horiz-adv-x="719" d="M135.5 76.5C85.167 134.167 60 219.667 60 333s25.167 198.833 75.5 256.5S260.333 676 359 676c99.333 0 174.166-28.833 224.499-86.5s75.5-143.167 75.5-256.5-25.167-198.833-75.5-256.5S458.333-10 359-10c-98.667 0-173.167 28.833-223.5 86.5zM531 124c36 44 54 113.667 54 209 0 94.667-18 164.167-54 208.5S437.667 608 359 608c-78 0-135-22.167-171-66.5S134 427.667 134 333c0-95.333 18-165 54-209s93-66 171-66c78.667 0 136 22 172 66zM337 839h61l80-120h-46l-65 70-65-70h-46z"/><glyph glyph-name="Otilde" unicode="Õ" horiz-adv-x="719" d="M135.5 76.5C85.167 134.167 60 219.667 60 333s25.167 198.833 75.5 256.5S260.333 676 359 676c99.333 0 174.166-28.833 224.499-86.5s75.5-143.167 75.5-256.5-25.167-198.833-75.5-256.5S458.333-10 359-10c-98.667 0-173.167 28.833-223.5 86.5zM531 124c36 44 54 113.667 54 209 0 94.667-18 164.167-54 208.5S437.667 608 359 608c-78 0-135-22.167-171-66.5S134 427.667 134 333c0-95.333 18-165 54-209s93-66 171-66c78.667 0 136 22 172 66zM231 727c-2.667 10-3.998 20-3.998 30 0 24.667 7.833 44.5 23.5 59.5s33.5 22.5 53.5 22.5c16 0 30.167-3.167 42.5-9.5s26.833-15.5 43.5-27.5c10.667-8.667 19.667-15.167 27-19.5s15-6.5 23-6.5 14.333 2.667 19 8 7 13 7 23c0 3.333-.667 9-2 17h52c1.333-9.333 2-16.333 2-21 0-24.667-7.833-44.667-23.5-60s-36.5-23-62.5-23c-14.667 0-28.334 3.333-41.001 10S364.667 745.667 350 757c-10.667 8.667-19.5 15-26.5 19s-13.833 6-20.5 6c-8 0-14.667-3.167-20-9.5s-8-15.5-8-27.5c0-2.667.667-8.667 2-18h-46z"/><glyph glyph-name="Odieresis" unicode="Ö" horiz-adv-x="719" d="M135.5 76.5C85.167 134.167 60 219.667 60 333s25.167 198.833 75.5 256.5S260.333 676 359 676c99.333 0 174.166-28.833 224.499-86.5s75.5-143.167 75.5-256.5-25.167-198.833-75.5-256.5S458.333-10 359-10c-98.667 0-173.167 28.833-223.5 86.5zM531 124c36 44 54 113.667 54 209 0 94.667-18 164.167-54 208.5S437.667 608 359 608c-78 0-135-22.167-171-66.5S134 427.667 134 333c0-95.333 18-165 54-209s93-66 171-66c78.667 0 136 22 172 66zM253 805h79v-79h-79v79zm148 0h79v-79h-79v79z"/><glyph glyph-name="multiply" unicode="×" horiz-adv-x="481" d="M210 256L77 434h64l101-135 102 135h64L275 256 408 78h-64L242 213 141 78H77z"/><glyph glyph-name="Oslash" unicode="Ø" horiz-adv-x="719" d="M601 567c38.667-55.333 57.998-133.333 57.998-234 0-113.333-25.167-198.833-75.5-256.5S458.332-10 358.999-10C277.666-10 212.333 9.667 163 49L122 0H57l71 85c-45.333 57.333-68 140-68 248 0 113.333 25.167 198.833 75.5 256.5S260.333 676 359 676c90 0 159.667-23.333 209-70l51 61h66zM175.998 141l346 411c-36.667 37.333-91 56-163 56-78 0-135-22.167-171-66.5s-54-113.833-54-208.5c0-84.667 14-148.667 42-192zm376 368l-343-406.001c34.667-30 84.667-45 150-45 78.667 0 136 22 172 66s54 113.667 54 209c0 74.667-11 133.334-33 176.001z"/><glyph glyph-name="Ugrave" unicode="Ù" horiz-adv-x="692" d="M153.5 63c-45.667 48.667-68.498 118.334-68.498 209.001v395h72v-399c0-140 63-210 189-210 127.333 0 191 70 191 210v399h70v-395c0-90.667-22.833-160.334-68.5-209.001S428.668-10 346.001-10 199.167 14.333 153.5 63zm90.502 773h74l57-115h-48z"/><glyph glyph-name="Uacute" unicode="Ú" horiz-adv-x="692" d="M153.5 63c-45.667 48.667-68.498 118.334-68.498 209.001v395h72v-399c0-140 63-210 189-210 127.333 0 191 70 191 210v399h70v-395c0-90.667-22.833-160.334-68.5-209.001S428.668-10 346.001-10 199.167 14.333 153.5 63zm231.502 784h74l-83-115h-48z"/><glyph glyph-name="Ucircumflex" unicode="Û" horiz-adv-x="692" d="M153.5 63c-45.667 48.667-68.498 118.334-68.498 209.001v395h72v-399c0-140 63-210 189-210 127.333 0 191 70 191 210v399h70v-395c0-90.667-22.833-160.334-68.5-209.001S428.668-10 346.001-10 199.167 14.333 153.5 63zm162.502 776h61l80-120h-46l-65 70-65-70h-46z"/><glyph glyph-name="Udieresis" unicode="Ü" horiz-adv-x="692" d="M153.5 63c-45.667 48.667-68.498 118.334-68.498 209.001v395h72v-399c0-140 63-210 189-210 127.333 0 191 70 191 210v399h70v-395c0-90.667-22.833-160.334-68.5-209.001S428.668-10 346.001-10 199.167 14.333 153.5 63zm78.502 742h79v-79h-79v79zm148 0h79v-79h-79v79z"/><glyph glyph-name="Yacute" unicode="Ý" horiz-adv-x="598" d="M333 306V0h-72v306L12 667h87l197-292 198 292h87zm11 541h74l-83-115h-48z"/><glyph glyph-name="Thorn" unicode="Þ" horiz-adv-x="570" d="M86 667l72 .001v-101h130c74 0 130.833-17.833 170.5-53.5S518 425.667 518 359s-19.833-117.667-59.5-153S362 153 288 153H158V0H86v667zm192-444.999c66.667 0 111.334 12.667 134.001 38s34 58.333 34 99-11.333 73.667-34 99-67.334 38-134.001 38H158v-274h120z"/><glyph glyph-name="germandbls" unicode="ß" horiz-adv-x="585" d="M80 423c0 75.333 16.668 136.334 50.001 183.001s85.333 70 156 70c62 0 112.667-13.833 152-41.5s59-66.167 59-115.5c0-38.667-9-71-27-97s-40-43.333-66-52c18.667-6 37.667-17.833 57-35.5S496.667 294.167 510 266.5s20-58.834 20-93.501c0-34-7.333-65.167-22-93.5s-36.834-50.833-66.501-67.5-65.834-25-108.501-25c-22.667 0-50.667 4.333-84 13v71c32-12 61-18 87-18 38.667 0 68.334 10.667 89.001 32s31 52 31 92c0 30-7.833 56.5-23.5 79.5s-36 40.667-61 53-50.5 18.5-76.5 18.5v63c43.333 0 75.5 10.667 96.5 32s31.5 50.333 31.5 87c0 34.667-12.667 60.334-38 77.001S327.333 612 288 612c-90.667 0-136-60.667-136-182V0H80v423z"/><glyph glyph-name="agrave" unicode="à" horiz-adv-x="554" d="M425.5 467c32.333-27.333 48.5-67 48.5-119V106c0-48-19.667-80.167-59-96.5S321.334-15 252.001-15C199.334-15 154.167-3.333 116.5 20S60 82.333 60 137c0 59.333 16.333 102.5 49 129.5S186.667 307 244 307c64.667 0 117-11.667 157-35v59c0 74.667-43.667 112-131 112-28.667 0-57.667-4-87-12s-54-20-74-36v72c20 12.667 47.167 22.667 81.5 30S259 508 293 508c56 0 100.167-13.667 132.5-41zM370 59.5c20.667 7 30.999 21.168 30.999 42.501v112c-18 8.667-39 15.5-63 20.5s-49 7.5-75 7.5c-42 0-74.333-8-97-24s-34-39.333-34-70c0-34.667 13.333-59.834 40-75.501s59-23.5 97-23.5c46.667 0 80.334 3.5 101.001 10.5zM185.999 679.001h73l57-115h-47z"/><glyph glyph-name="aacute" unicode="á" horiz-adv-x="554" d="M425.5 467c32.333-27.333 48.5-67 48.5-119V106c0-48-19.667-80.167-59-96.5S321.334-15 252.001-15C199.334-15 154.167-3.333 116.5 20S60 82.333 60 137c0 59.333 16.333 102.5 49 129.5S186.667 307 244 307c64.667 0 117-11.667 157-35v59c0 74.667-43.667 112-131 112-28.667 0-57.667-4-87-12s-54-20-74-36v72c20 12.667 47.167 22.667 81.5 30S259 508 293 508c56 0 100.167-13.667 132.5-41zM370 59.5c20.667 7 30.999 21.168 30.999 42.501v112c-18 8.667-39 15.5-63 20.5s-49 7.5-75 7.5c-42 0-74.333-8-97-24s-34-39.333-34-70c0-34.667 13.333-59.834 40-75.501s59-23.5 97-23.5c46.667 0 80.334 3.5 101.001 10.5zm-48.001 619.501h74l-83-115h-48z"/><glyph glyph-name="acircumflex" unicode="â" horiz-adv-x="554" d="M425.5 467c32.333-27.333 48.5-67 48.5-119V106c0-48-19.667-80.167-59-96.5S321.334-15 252.001-15C199.334-15 154.167-3.333 116.5 20S60 82.333 60 137c0 59.333 16.333 102.5 49 129.5S186.667 307 244 307c64.667 0 117-11.667 157-35v59c0 74.667-43.667 112-131 112-28.667 0-57.667-4-87-12s-54-20-74-36v72c20 12.667 47.167 22.667 81.5 30S259 508 293 508c56 0 100.167-13.667 132.5-41zM370 59.5c20.667 7 30.999 21.168 30.999 42.501v112c-18 8.667-39 15.5-63 20.5s-49 7.5-75 7.5c-42 0-74.333-8-97-24s-34-39.333-34-70c0-34.667 13.333-59.834 40-75.501s59-23.5 97-23.5c46.667 0 80.334 3.5 101.001 10.5zM260.999 684.001h61l80-120h-46l-65 70-65-70h-46z"/><glyph glyph-name="atilde" unicode="ã" horiz-adv-x="554" d="M425.5 467c32.333-27.333 48.5-67 48.5-119V106c0-48-19.667-80.167-59-96.5S321.334-15 252.001-15C199.334-15 154.167-3.333 116.5 20S60 82.333 60 137c0 59.333 16.333 102.5 49 129.5S186.667 307 244 307c64.667 0 117-11.667 157-35v59c0 74.667-43.667 112-131 112-28.667 0-57.667-4-87-12s-54-20-74-36v72c20 12.667 47.167 22.667 81.5 30S259 508 293 508c56 0 100.167-13.667 132.5-41zM370 59.5c20.667 7 30.999 21.168 30.999 42.501v112c-18 8.667-39 15.5-63 20.5s-49 7.5-75 7.5c-42 0-74.333-8-97-24s-34-39.333-34-70c0-34.667 13.333-59.834 40-75.501s59-23.5 97-23.5c46.667 0 80.334 3.5 101.001 10.5zM149.999 544.001c-2.667 10-3.998 20-3.998 30 0 24.667 7.833 44.5 23.5 59.5s33.5 22.5 53.5 22.5c16 0 30.167-3.167 42.5-9.5s26.833-15.5 43.5-27.5c10.667-8.667 19.667-15.167 27-19.5s15-6.5 23-6.5 14.333 2.667 19 8 7 13 7 23c0 3.333-.667 9-2 17h52c1.333-9.333 2-16.333 2-21 0-24.667-7.833-44.667-23.5-60s-36.5-23-62.5-23c-14.667 0-28.334 3.333-41.001 10s-26.334 15.667-41.001 27c-10.667 8.667-19.5 15-26.5 19s-13.833 6-20.5 6c-8 0-14.667-3.167-20-9.5s-8-15.5-8-27.5c0-2.667.667-8.667 2-18h-46z"/><glyph glyph-name="adieresis" unicode="ä" horiz-adv-x="554" d="M425.5 467c32.333-27.333 48.5-67 48.5-119V106c0-48-19.667-80.167-59-96.5S321.334-15 252.001-15C199.334-15 154.167-3.333 116.5 20S60 82.333 60 137c0 59.333 16.333 102.5 49 129.5S186.667 307 244 307c64.667 0 117-11.667 157-35v59c0 74.667-43.667 112-131 112-28.667 0-57.667-4-87-12s-54-20-74-36v72c20 12.667 47.167 22.667 81.5 30S259 508 293 508c56 0 100.167-13.667 132.5-41zM370 59.5c20.667 7 30.999 21.168 30.999 42.501v112c-18 8.667-39 15.5-63 20.5s-49 7.5-75 7.5c-42 0-74.333-8-97-24s-34-39.333-34-70c0-34.667 13.333-59.834 40-75.501s59-23.5 97-23.5c46.667 0 80.334 3.5 101.001 10.5zM176.999 643.001h79v-79h-79v79zm148 0h79v-79h-79v79z"/><glyph glyph-name="aring" unicode="å" horiz-adv-x="554" d="M425.5 467c32.333-27.333 48.5-67 48.5-119V106c0-48-19.667-80.167-59-96.5S321.334-15 252.001-15C199.334-15 154.167-3.333 116.5 20S60 82.333 60 137c0 59.333 16.333 102.5 49 129.5S186.667 307 244 307c64.667 0 117-11.667 157-35v59c0 74.667-43.667 112-131 112-28.667 0-57.667-4-87-12s-54-20-74-36v72c20 12.667 47.167 22.667 81.5 30S259 508 293 508c56 0 100.167-13.667 132.5-41zM370 59.5c20.667 7 30.999 21.168 30.999 42.501v112c-18 8.667-39 15.5-63 20.5s-49 7.5-75 7.5c-42 0-74.333-8-97-24s-34-39.333-34-70c0-34.667 13.333-59.834 40-75.501s59-23.5 97-23.5c46.667 0 80.334 3.5 101.001 10.5zM213.499 557.001c-15.667 14.667-23.5 38-23.5 70s7.833 55.333 23.5 70 41.5 22 77.5 22c35.333 0 61-7.333 77-22s24-38 24-70-8-55.333-24-70-41.667-22-77-22c-36 0-61.833 7.333-77.5 22zm120 32c7.667 7.333 11.5 20 11.5 38s-3.833 30.5-11.5 37.5-21.834 10.5-42.501 10.5c-21.333 0-35.833-3.5-43.5-10.5s-11.5-19.5-11.5-37.5 3.833-30.667 11.5-38 22.167-11 43.5-11c20.667 0 34.834 3.667 42.501 11z"/><glyph glyph-name="ae" unicode="æ" horiz-adv-x="893" d="M787 434c35.333-49.333 52.332-115 50.999-197h-364c0-60 14-106 42-138s68-48 120-48c66.667 0 123.667 14.333 171 43V20c-48.667-23.333-107-35-175-35-76.667 0-135 23.333-175 70-24.667-20.667-52.167-37.5-82.5-50.5s-65.5-19.5-105.5-19.5c-65.333 0-116.5 12.333-153.5 37s-55.5 63-55.5 115c0 60.667 19.167 104.167 57.5 130.5s89.5 39.5 153.5 39.5c52 0 95.333-9.667 130-29v53c0 74.667-43.667 112-131 112-28.667 0-57.667-4-87-12s-54-20-74-36v72c20 12.667 47.167 22.667 81.5 30s68.5 11 102.5 11c76.667 0 130-24.333 160-73 36.667 48.667 92.334 73 167.001 73 76 0 131.667-24.667 167-74zm-267.001-22.5c-22.667-20.333-37-56.5-43-108.5h285c-3.333 46.667-16.5 81.5-39.5 104.5s-57.167 34.5-102.5 34.5c-44 0-77.333-10.167-100-30.5zm-162-348c28.667 9.667 51.332 23.166 67.999 40.499-14 32.667-22 69-24 109-18 8.667-39.167 15.667-63.5 21s-49.5 8-75.5 8c-44 0-76.833-8.167-98.5-24.5s-32.5-41.166-32.5-74.499c0-32.667 13.167-56.5 39.5-71.5s58.833-22.5 97.5-22.5c30.667 0 60.334 4.833 89.001 14.5z"/><glyph glyph-name="ccedilla" unicode="ç" horiz-adv-x="492" d="M167.5 394c-27-30-40.5-77.999-40.5-143.999 0-66.667 13.5-114.834 40.5-144.501S237.667 61 297 61c50 0 96.667 9.333 140 28V19C397 3.667 356-5 314-7l-62-113h-76L257-7c-58.667 5.333-107 27.5-145 66.5S55 162 55 250c0 96 22.5 163 67.5 201S223 508 289 508c50 0 99.333-9.333 148-28v-69c-45.333 18.667-92 28-140 28-59.333 0-102.5-15-129.5-45z"/><glyph glyph-name="egrave" unicode="è" horiz-adv-x="547" d="M441 434c35.333-49.333 52.335-115.001 51.002-197.001h-364c0-60 14-106 42-138s68-48 120-48c66.667 0 123.667 14.333 171 43v-74c-48.667-23.333-107-35-175-35-72.667 0-129.334 22.5-170.001 67.5s-61 110.833-61 197.5c0 84.667 19.167 148.834 57.5 192.501S204.667 508 274 508c76 0 131.667-24.667 167-74zm-266.998-22.501c-22.667-20.333-37-56.5-43-108.5h285c-3.333 46.667-16.5 81.5-39.5 104.5s-57.167 34.5-102.5 34.5c-44 0-77.333-10.167-100-30.5zm4 267.5h73l57-115h-47z"/><glyph glyph-name="eacute" unicode="é" horiz-adv-x="547" d="M441 434c35.333-49.333 52.335-115.001 51.002-197.001h-364c0-60 14-106 42-138s68-48 120-48c66.667 0 123.667 14.333 171 43v-74c-48.667-23.333-107-35-175-35-72.667 0-129.334 22.5-170.001 67.5s-61 110.833-61 197.5c0 84.667 19.167 148.834 57.5 192.501S204.667 508 274 508c76 0 131.667-24.667 167-74zm-266.998-22.501c-22.667-20.333-37-56.5-43-108.5h285c-3.333 46.667-16.5 81.5-39.5 104.5s-57.167 34.5-102.5 34.5c-44 0-77.333-10.167-100-30.5zm140 267.5h74l-83-115h-48z"/><glyph glyph-name="ecircumflex" unicode="ê" horiz-adv-x="547" d="M441 434c35.333-49.333 52.335-115.001 51.002-197.001h-364c0-60 14-106 42-138s68-48 120-48c66.667 0 123.667 14.333 171 43v-74c-48.667-23.333-107-35-175-35-72.667 0-129.334 22.5-170.001 67.5s-61 110.833-61 197.5c0 84.667 19.167 148.834 57.5 192.501S204.667 508 274 508c76 0 131.667-24.667 167-74zm-266.998-22.501c-22.667-20.333-37-56.5-43-108.5h285c-3.333 46.667-16.5 81.5-39.5 104.5s-57.167 34.5-102.5 34.5c-44 0-77.333-10.167-100-30.5zm79 272.5h61l80-120h-46l-65 70-65-70h-46z"/><glyph glyph-name="edieresis" unicode="ë" horiz-adv-x="547" d="M441 434c35.333-49.333 52.335-115.001 51.002-197.001h-364c0-60 14-106 42-138s68-48 120-48c66.667 0 123.667 14.333 171 43v-74c-48.667-23.333-107-35-175-35-72.667 0-129.334 22.5-170.001 67.5s-61 110.833-61 197.5c0 84.667 19.167 148.834 57.5 192.501S204.667 508 274 508c76 0 131.667-24.667 167-74zm-266.998-22.501c-22.667-20.333-37-56.5-43-108.5h285c-3.333 46.667-16.5 81.5-39.5 104.5s-57.167 34.5-102.5 34.5c-44 0-77.333-10.167-100-30.5zm-5 231.5h79v-79h-79v79zm148 0h79v-79h-79v79z"/><glyph glyph-name="igrave" unicode="ì" horiz-adv-x="270" d="M28 679h74l57-115h-48zm71-180h72V0H99v499z"/><glyph glyph-name="iacute" unicode="í" horiz-adv-x="270" d="M167 679h74l-83-115h-47zM99 499h72V0H99v499z"/><glyph glyph-name="icircumflex" unicode="î" horiz-adv-x="270" d="M114 684h41l81-120h-56l-45 70-46-70H33zM99 499h72V0H99v499z"/><glyph glyph-name="idieresis" unicode="ï" horiz-adv-x="270" d="M21 643h79v-79H21v79zm148 0h79v-79h-79v79zM99 499h72V0H99v499z"/><glyph glyph-name="eth" unicode="ð" horiz-adv-x="567" d="M512 271c0-89.333-19.331-159.335-57.998-210.002s-95-76-169-76c-76.667 0-134.167 22.667-172.5 68s-57.5 110.333-57.5 195c0 86 19.5 150.833 58.5 194.5s95.5 65.5 169.5 65.5c32.667 0 61.667-6.667 87-20-18.667 28.667-40.334 56.334-65.001 83.001l-132-22-9 57 90 15c-26.667 23.333-53.334 45-80.001 65v3h114c21.333-20 39.333-38 54-54l104 17 8-57-66-11C470.667 482.666 512 378.333 512 271zM365.502 68.498c22.333 11.667 40.168 33.667 53.501 66s20.333 77.833 21 136.5c0 44-8.333 87.333-25 130-17.333 12.667-37.333 22.667-60 30s-46.334 11-71.001 11c-104.667 0-157-64.667-157-194 0-131.333 52.333-197 157-197 32 0 59.167 5.833 81.5 17.5z"/><glyph glyph-name="ntilde" unicode="ñ" d="M291 508c70 0 120.5-15.332 151.5-45.999S489 385.667 489 325V0h-72v325c0 78.667-44.667 118-134 118-41.333 0-85-6.667-131-20V0H80v459c64.667 32.667 135 49 211 49zm-146 36.001c-2.667 10-3.998 20-3.998 30 0 24.667 7.833 44.5 23.5 59.5s33.5 22.5 53.5 22.5c16 0 30.167-3.167 42.5-9.5s26.833-15.5 43.5-27.5c10.667-8.667 19.667-15.167 27-19.5s15-6.5 23-6.5 14.333 2.667 19 8 7 13 7 23c0 3.333-.667 9-2 17h52c1.333-9.333 2-16.333 2-21 0-24.667-7.833-44.667-23.5-60s-36.5-23-62.5-23c-14.667 0-28.334 3.333-41.001 10s-26.334 15.667-41.001 27c-10.667 8.667-19.5 15-26.5 19s-13.833 6-20.5 6c-8 0-14.667-3.167-20-9.5s-8-15.5-8-27.5c0-2.667.667-8.667 2-18h-46z"/><glyph glyph-name="ograve" unicode="ò" d="M112.5 53C74.167 98.333 55 163.333 55 248c0 86 19.5 150.833 58.5 194.5S209 508 283 508c78 0 136-23.167 174-69.5s57-109.833 57-190.5c0-82.667-20-147.167-60-193.5S357.667-15 285-15c-76.667 0-134.167 22.667-172.5 68zM442 248c0 62.667-12.333 110.667-37 144s-65 50-121 50c-104.667 0-157-64.667-157-194 0-131.333 52.333-197 157-197 105.333 0 158 65.667 158 197zM182 679h73l57-115h-47z"/><glyph glyph-name="oacute" unicode="ó" d="M112.5 53C74.167 98.333 55 163.333 55 248c0 86 19.5 150.833 58.5 194.5S209 508 283 508c78 0 136-23.167 174-69.5s57-109.833 57-190.5c0-82.667-20-147.167-60-193.5S357.667-15 285-15c-76.667 0-134.167 22.667-172.5 68zM442 248c0 62.667-12.333 110.667-37 144s-65 50-121 50c-104.667 0-157-64.667-157-194 0-131.333 52.333-197 157-197 105.333 0 158 65.667 158 197zM318 679h74l-83-115h-48z"/><glyph glyph-name="ocircumflex" unicode="ô" d="M112.5 53C74.167 98.333 55 163.333 55 248c0 86 19.5 150.833 58.5 194.5S209 508 283 508c78 0 136-23.167 174-69.5s57-109.833 57-190.5c0-82.667-20-147.167-60-193.5S357.667-15 285-15c-76.667 0-134.167 22.667-172.5 68zM442 248c0 62.667-12.333 110.667-37 144s-65 50-121 50c-104.667 0-157-64.667-157-194 0-131.333 52.333-197 157-197 105.333 0 158 65.667 158 197zM257 684h61l80-120h-46l-65 70-65-70h-46z"/><glyph glyph-name="otilde" unicode="õ" d="M112.5 53C74.167 98.333 55 163.333 55 248c0 86 19.5 150.833 58.5 194.5S209 508 283 508c78 0 136-23.167 174-69.5s57-109.833 57-190.5c0-82.667-20-147.167-60-193.5S357.667-15 285-15c-76.667 0-134.167 22.667-172.5 68zM442 248c0 62.667-12.333 110.667-37 144s-65 50-121 50c-104.667 0-157-64.667-157-194 0-131.333 52.333-197 157-197 105.333 0 158 65.667 158 197zM146 544c-2.667 10-3.998 20-3.998 30 0 24.667 7.833 44.5 23.5 59.5s33.5 22.5 53.5 22.5c16 0 30.167-3.167 42.5-9.5s26.833-15.5 43.5-27.5c10.667-8.667 19.667-15.167 27-19.5s15-6.5 23-6.5 14.333 2.667 19 8 7 13 7 23c0 3.333-.667 9-2 17h52c1.333-9.333 2-16.333 2-21 0-24.667-7.833-44.667-23.5-60s-36.5-23-62.5-23c-14.667 0-28.334 3.333-41.001 10S279.667 562.667 265 574c-10.667 8.667-19.5 15-26.5 19s-13.833 6-20.5 6c-8 0-14.667-3.167-20-9.5s-8-15.5-8-27.5c0-2.667.667-8.667 2-18h-46z"/><glyph glyph-name="odieresis" unicode="ö" d="M112.5 53C74.167 98.333 55 163.333 55 248c0 86 19.5 150.833 58.5 194.5S209 508 283 508c78 0 136-23.167 174-69.5s57-109.833 57-190.5c0-82.667-20-147.167-60-193.5S357.667-15 285-15c-76.667 0-134.167 22.667-172.5 68zM442 248c0 62.667-12.333 110.667-37 144s-65 50-121 50c-104.667 0-157-64.667-157-194 0-131.333 52.333-197 157-197 105.333 0 158 65.667 158 197zM173 643h79v-79h-79v79zm148 0h79v-79h-79v79z"/><glyph glyph-name="divide" unicode="÷" horiz-adv-x="628" d="M274 439h80v-80h-80v80zM111 287h406v-60H111v60zm163-133h80V74h-80v80z"/><glyph glyph-name="oslash" unicode="ø" horiz-adv-x="574" d="M470 421c29.333-43.333 44-101 44-173 0-82.667-20-147.167-60-193.5S357.667-15 285-15C224.333-15 175.666-.667 138.999 28l-24-28h-78l61 72c-28.667 43.333-43 102-43 176 0 86 19.5 150.833 58.5 194.5s95.5 65.5 169.5 65.5c60.667 0 109.334-14.333 146.001-43l29 34h78zM147 131l238 281c-25.333 20-59 30-101 30-104.667 0-157-64.667-157-194 0-47.333 6.667-86.333 20-117zm275 233L184 82c24.667-20.667 58-31 100-31 105.333 0 158 65.667 158 197 0 48-6.667 86.667-20 116z"/><glyph glyph-name="ugrave" unicode="ù" horiz-adv-x="578" d="M134.5 36.5C98.167 70.833 80 119.666 80 182.999v316h72v-300c0-50.667 11-87.834 33-111.501s56.667-35.5 104-35.5c46.667 0 81.167 11.833 103.5 35.5S426 148.332 426 198.999v300h72v-316c0-63.333-18.167-112.166-54.5-146.499S355.667-15 289-15 170.833 2.167 134.5 36.5zM184 679h73l57-115h-47z"/><glyph glyph-name="uacute" unicode="ú" horiz-adv-x="578" d="M134.5 36.5C98.167 70.833 80 119.666 80 182.999v316h72v-300c0-50.667 11-87.834 33-111.501s56.667-35.5 104-35.5c46.667 0 81.167 11.833 103.5 35.5S426 148.332 426 198.999v300h72v-316c0-63.333-18.167-112.166-54.5-146.499S355.667-15 289-15 170.833 2.167 134.5 36.5zM320 679h74l-83-115h-48z"/><glyph glyph-name="ucircumflex" unicode="û" horiz-adv-x="578" d="M134.5 36.5C98.167 70.833 80 119.666 80 182.999v316h72v-300c0-50.667 11-87.834 33-111.501s56.667-35.5 104-35.5c46.667 0 81.167 11.833 103.5 35.5S426 148.332 426 198.999v300h72v-316c0-63.333-18.167-112.166-54.5-146.499S355.667-15 289-15 170.833 2.167 134.5 36.5zM259 684h61l80-120h-46l-65 70-65-70h-46z"/><glyph glyph-name="udieresis" unicode="ü" horiz-adv-x="578" d="M134.5 36.5C98.167 70.833 80 119.666 80 182.999v316h72v-300c0-50.667 11-87.834 33-111.501s56.667-35.5 104-35.5c46.667 0 81.167 11.833 103.5 35.5S426 148.332 426 198.999v300h72v-316c0-63.333-18.167-112.166-54.5-146.499S355.667-15 289-15 170.833 2.167 134.5 36.5zM175 643h79v-79h-79v79zm148 0h79v-79h-79v79z"/><glyph glyph-name="yacute" unicode="ý" horiz-adv-x="540" d="M505 499L291.003-49.001c-20.667-53.333-44.834-90.666-72.501-111.999s-55.834-32-84.501-32c-16 0-31.667 3-47 9v66c13.333-6 27.666-9 42.999-9 28.667 0 51 10.333 67 31s31 52 45 94L35 499h82L275 92l158 407h72zM306.003 678.999h74l-83-115h-48z"/><glyph glyph-name="thorn" unicode="þ" d="M448 443.5c44-43 66-111.833 66-206.5 0-78-20.667-139.333-62-184S352-14 276-14c-17.333 0-37.333 2.667-60 8s-44 12.333-64 21v-215H80v889h72V489c36 12.667 79.333 19 130 19 66.667 0 122-21.5 166-64.5zM396.5 102c27.667 33.333 41.499 78.333 41.499 135 0 62.667-11.333 112.5-34 149.5s-63.667 55.5-123 55.5c-36 0-66.5-4.167-91.5-12.5s-37.5-19.5-37.5-33.5V87c40-23.333 81.333-35 124-35 52.667 0 92.834 16.667 120.501 50z"/><glyph glyph-name="ydieresis" unicode="ÿ" horiz-adv-x="540" d="M505 499L291.003-49.001c-20.667-53.333-44.834-90.666-72.501-111.999s-55.834-32-84.501-32c-16 0-31.667 3-47 9v66c13.333-6 27.666-9 42.999-9 28.667 0 51 10.333 67 31s31 52 45 94L35 499h82L275 92l158 407h72zM161.003 642.999h79v-79h-79v79zm148 0h79v-79h-79v79z"/><glyph glyph-name="Amacron" unicode="Ā" horiz-adv-x="643" d="M466 208H178L98 0H20l266 667h72L623 0h-77zm-27 69L322 582 205 277h234zM206 769h234v-53H206v53z"/><glyph glyph-name="amacron" unicode="ā" horiz-adv-x="554" d="M425.5 467c32.333-27.333 48.5-67 48.5-119V106c0-48-19.667-80.167-59-96.5S321.334-15 252.001-15C199.334-15 154.167-3.333 116.5 20S60 82.333 60 137c0 59.333 16.333 102.5 49 129.5S186.667 307 244 307c64.667 0 117-11.667 157-35v59c0 74.667-43.667 112-131 112-28.667 0-57.667-4-87-12s-54-20-74-36v72c20 12.667 47.167 22.667 81.5 30S259 508 293 508c56 0 100.167-13.667 132.5-41zM370 59.5c20.667 7 30.999 21.168 30.999 42.501v112c-18 8.667-39 15.5-63 20.5s-49 7.5-75 7.5c-42 0-74.333-8-97-24s-34-39.333-34-70c0-34.667 13.333-59.834 40-75.501s59-23.5 97-23.5c46.667 0 80.334 3.5 101.001 10.5zM173.999 629.001h234v-53h-234v53z"/><glyph glyph-name="Abreve" unicode="Ă" horiz-adv-x="643" d="M466 208H178L98 0H20l266 667h72L623 0h-77zm-27 69L322 582 205 277h234zM236.5 724.5c-24.333 19.667-40.501 47.834-48.501 84.501h52c15.333-41.333 43-62 83-62 38.667 0 66.334 20.667 83.001 62h52c-6.667-36.667-22.334-64.834-47.001-84.501s-54-29.5-88-29.5c-33.333 0-62.166 9.833-86.499 29.5z"/><glyph glyph-name="abreve" unicode="ă" horiz-adv-x="554" d="M425.5 467c32.333-27.333 48.5-67 48.5-119V106c0-48-19.667-80.167-59-96.5S321.334-15 252.001-15C199.334-15 154.167-3.333 116.5 20S60 82.333 60 137c0 59.333 16.333 102.5 49 129.5S186.667 307 244 307c64.667 0 117-11.667 157-35v59c0 74.667-43.667 112-131 112-28.667 0-57.667-4-87-12s-54-20-74-36v72c20 12.667 47.167 22.667 81.5 30S259 508 293 508c56 0 100.167-13.667 132.5-41zM370 59.5c20.667 7 30.999 21.168 30.999 42.501v112c-18 8.667-39 15.5-63 20.5s-49 7.5-75 7.5c-42 0-74.333-8-97-24s-34-39.333-34-70c0-34.667 13.333-59.834 40-75.501s59-23.5 97-23.5c46.667 0 80.334 3.5 101.001 10.5zM204.499 574.501c-24.333 19.667-40.501 47.834-48.501 84.501h52c15.333-41.333 43-62 83-62 38.667 0 66.334 20.667 83.001 62h52c-6.667-36.667-22.334-64.834-47.001-84.501s-54-29.5-88-29.5c-33.333 0-62.166 9.833-86.499 29.5z"/><glyph glyph-name="Aogonek" unicode="Ą" horiz-adv-x="643" d="M554-42c-16.667-14.667-25-29-25-43 0-22.667 11.333-34 34-34 18.667 0 37 9 55 27v-63c-21.333-12-41.333-18-60-18-27.333 0-48.833 7.333-64.5 22S470-116 470-90c0 17.333 6.5 35 19.5 53S520.333-5.333 543 4h1l-78 204H178L98 0H20l266 667h72L623 0h-2c-28-13.333-50.333-27.333-67-42zM439 277L322 582 205 277h234z"/><glyph glyph-name="aogonek" unicode="ą" horiz-adv-x="554" d="M425.5 467c32.333-27.333 48.502-67.001 48.502-119.001v-242c0-31.333-9.667-56.666-29-75.999h1l-2-1c-12.667-12-28.334-21-47.001-27-28.667-20-43-39-43-57 0-22.667 11.333-34 34-34 18.667 0 37 9 55 27v-63c-21.333-12-41.333-18-60-18-27.333 0-48.833 7.333-64.5 22s-23.5 35-23.5 61c0 15.333 5 31 15 47-12.667-1.333-32-2-58-2-52.667 0-97.834 11.667-135.501 35S60 82.333 60 137c0 59.333 16.333 102.5 49 129.5S186.667 307 244 307c64.667 0 117-11.667 157-35v59c0 74.667-43.667 112-131 112-28.667 0-57.667-4-87-12s-54-20-74-36v72c20 12.667 47.167 22.667 81.5 30S259 508 293 508c56 0 100.167-13.667 132.5-41zM172.002 72.499C198.669 56.832 231.001 49 269.001 49c46.667 0 80.334 3.5 101.001 10.5s31 21.167 31 42.5v112c-18 8.667-39 15.5-63 20.5s-49 7.5-75 7.5c-42 0-74.333-8-97-24s-34-39.333-34-70c0-34.667 13.333-59.834 40-75.501z"/><glyph glyph-name="Cacute" unicode="Ć" horiz-adv-x="622" d="M132.5 78C80.833 135.333 55 220.668 55 334.001S80.833 532.667 132.5 590s128.834 86 231.501 86c68 0 135.667-16.333 203-49v-69c-62.667 33.333-127.667 50-195 50-84 0-145.333-22-184-66s-58-113.333-58-208c0-95.333 19.167-164.833 57.5-208.5S287.334 60 372.001 60c70.667 0 135.667 16.333 195 49V40c-68-32-135.667-48-203-48C261.334-8 184.167 20.667 132.5 78zM385 847.002h74l-83-115h-48z"/><glyph glyph-name="cacute" unicode="ć" horiz-adv-x="492" d="M122.5 48.5C77.5 86.167 55 153.334 55 250.001c0 96 22.5 163 67.5 201s100.5 57 166.5 57c50 0 99.333-9.333 148-28v-69c-45.333 18.667-92 28-140 28-59.333 0-102.5-15-129.5-45s-40.5-78-40.5-144c0-66.667 13.5-114.834 40.5-144.501S237.667 61 297 61c50 0 96.667 9.333 140 28V19C390.333 1 341-8 289-8c-66 0-121.5 18.833-166.5 56.5zM297 679h74l-83-115h-48z"/><glyph glyph-name="Ccircumflex" unicode="Ĉ" horiz-adv-x="622" d="M132.5 78C80.833 135.333 55 220.668 55 334.001S80.833 532.667 132.5 590s128.834 86 231.501 86c68 0 135.667-16.333 203-49v-69c-62.667 33.333-127.667 50-195 50-84 0-145.333-22-184-66s-58-113.333-58-208c0-95.333 19.167-164.833 57.5-208.5S287.334 60 372.001 60c70.667 0 135.667 16.333 195 49V40c-68-32-135.667-48-203-48C261.334-8 184.167 20.667 132.5 78zM316 839.002h61l80-120h-46l-65 70-65-70h-46z"/><glyph glyph-name="ccircumflex" unicode="ĉ" horiz-adv-x="492" d="M122.5 48.5C77.5 86.167 55 153.334 55 250.001c0 96 22.5 163 67.5 201s100.5 57 166.5 57c50 0 99.333-9.333 148-28v-69c-45.333 18.667-92 28-140 28-59.333 0-102.5-15-129.5-45s-40.5-78-40.5-144c0-66.667 13.5-114.834 40.5-144.501S237.667 61 297 61c50 0 96.667 9.333 140 28V19C390.333 1 341-8 289-8c-66 0-121.5 18.833-166.5 56.5zM236 684h61l80-120h-46l-65 70-65-70h-46z"/><glyph glyph-name="Cdotaccent" unicode="Ċ" horiz-adv-x="622" d="M132.5 78C80.833 135.333 55 220.668 55 334.001S80.833 532.667 132.5 590s128.834 86 231.501 86c68 0 135.667-16.333 203-49v-69c-62.667 33.333-127.667 50-195 50-84 0-145.333-22-184-66s-58-113.333-58-208c0-95.333 19.167-164.833 57.5-208.5S287.334 60 372.001 60c70.667 0 135.667 16.333 195 49V40c-68-32-135.667-48-203-48C261.334-8 184.167 20.667 132.5 78zM306 783.002h79v-79h-79v79z"/><glyph glyph-name="cdotaccent" unicode="ċ" horiz-adv-x="492" d="M122.5 48.5C77.5 86.167 55 153.334 55 250.001c0 96 22.5 163 67.5 201s100.5 57 166.5 57c50 0 99.333-9.333 148-28v-69c-45.333 18.667-92 28-140 28-59.333 0-102.5-15-129.5-45s-40.5-78-40.5-144c0-66.667 13.5-114.834 40.5-144.501S237.667 61 297 61c50 0 96.667 9.333 140 28V19C390.333 1 341-8 289-8c-66 0-121.5 18.833-166.5 56.5zM226 643h79v-79h-79v79z"/><glyph glyph-name="Ccaron" unicode="Č" horiz-adv-x="622" d="M132.5 78C80.833 135.333 55 220.668 55 334.001S80.833 532.667 132.5 590s128.834 86 231.501 86c68 0 135.667-16.333 203-49v-69c-62.667 33.333-127.667 50-195 50-84 0-145.333-22-184-66s-58-113.333-58-208c0-95.333 19.167-164.833 57.5-208.5S287.334 60 372.001 60c70.667 0 135.667 16.333 195 49V40c-68-32-135.667-48-203-48C261.334-8 184.167 20.667 132.5 78zM245 824.002h56l45-70 45 70h56l-80-120h-41z"/><glyph glyph-name="ccaron" unicode="č" horiz-adv-x="492" d="M122.5 48.5C77.5 86.167 55 153.334 55 250.001c0 96 22.5 163 67.5 201s100.5 57 166.5 57c50 0 99.333-9.333 148-28v-69c-45.333 18.667-92 28-140 28-59.333 0-102.5-15-129.5-45s-40.5-78-40.5-144c0-66.667 13.5-114.834 40.5-144.501S237.667 61 297 61c50 0 96.667 9.333 140 28V19C390.333 1 341-8 289-8c-66 0-121.5 18.833-166.5 56.5zM165 684h56l45-70 45 70h56l-80-120h-41z"/><glyph glyph-name="Dcaron" unicode="Ď" horiz-adv-x="667" d="M85 667l209 .001c104 0 182.167-27.833 234.5-83.5S607 444.667 607 334C607 111.333 502.667 0 294 0H85v667zM289 68.001c84.667 0 146.5 21.333 185.5 64s58.5 110 58.5 202-19.5 159.333-58.5 202-100.833 64-185.5 64H157v-532h132zm-117 756h56l45-70 45 70h56l-80-120h-41z"/><glyph glyph-name="dcaron" unicode="ď" d="M489 710l-.001-624c0-34-21.5-59.333-64.5-76s-89.833-25-140.5-25C222.666-15 169.333 4.833 124 44.5S55.667 154.667 55 256c0 78.667 19.167 140.167 57.5 184.5S207.666 507 282.999 507c17.333 0 38.833-2.833 64.5-8.5S396.333 486 417 478v232h72zm-72.001-304c-20 11.333-41.832 20-65.499 26s-46.5 9-68.5 9c-52 0-90.333-16.5-115-49.5s-37-78.167-37-135.5c0-62.667 11.333-112.5 34-149.5S228.667 51 288 51c35.333 0 65.666 4 90.999 12s38 18 38 30v313zM608 706h82l-84-196h-72z"/><glyph glyph-name="Dcroat" unicode="Đ" horiz-adv-x="667" d="M528.5 583.5C580.833 527.833 607 444.667 607 334 607 111.333 502.667 0 294 0H85v307H7v53h78v307h209c104 0 182.167-27.833 234.5-83.5zm-54-451.499c39 42.667 58.5 110 58.5 202s-19.5 159.333-58.5 202-100.833 64-185.5 64H157v-240h94v-53h-94v-239h132c84.667 0 146.5 21.333 185.5 64z"/><glyph glyph-name="dcroat" unicode="đ" d="M554 577h-65.001V86c0-34-21.5-59.333-64.5-76s-89.833-25-140.5-25C222.666-15 169.333 4.833 124 44.5S55.667 154.667 55 256c0 78.667 19.167 140.167 57.5 184.5S207.666 507 282.999 507c17.333 0 38.833-2.833 64.5-8.5S396.333 486 417 478v99H310v53h107v80h72v-80h65v-53zM416.999 406c-20 11.333-41.832 20-65.499 26s-46.5 9-68.5 9c-52 0-90.333-16.5-115-49.5s-37-78.167-37-135.5c0-62.667 11.333-112.5 34-149.5S228.667 51 288 51c35.333 0 65.666 4 90.999 12s38 18 38 30v313z"/><glyph glyph-name="Emacron" unicode="Ē" horiz-adv-x="581" d="M85 667h421v-68H157V369h307v-70H157V68h349V0H85v667zm105 102h234v-53H190v53z"/><glyph glyph-name="emacron" unicode="ē" horiz-adv-x="547" d="M441 434c35.333-49.333 52.335-115.001 51.002-197.001h-364c0-60 14-106 42-138s68-48 120-48c66.667 0 123.667 14.333 171 43v-74c-48.667-23.333-107-35-175-35-72.667 0-129.334 22.5-170.001 67.5s-61 110.833-61 197.5c0 84.667 19.167 148.834 57.5 192.501S204.667 508 274 508c76 0 131.667-24.667 167-74zm-266.998-22.501c-22.667-20.333-37-56.5-43-108.5h285c-3.333 46.667-16.5 81.5-39.5 104.5s-57.167 34.5-102.5 34.5c-44 0-77.333-10.167-100-30.5zm-8 217.5h234v-53h-234v53z"/><glyph glyph-name="Ebreve" unicode="Ĕ" horiz-adv-x="581" d="M85 667h421v-68H157V369h307v-70H157V68h349V0H85v667zm135.5 57.5c-24.333 19.667-40.501 47.834-48.501 84.501h52c15.333-41.333 43-62 83-62 38.667 0 66.334 20.667 83.001 62h52c-6.667-36.667-22.334-64.834-47.001-84.501s-54-29.5-88-29.5c-33.333 0-62.166 9.833-86.499 29.5z"/><glyph glyph-name="ebreve" unicode="ĕ" horiz-adv-x="547" d="M441 434c35.333-49.333 52.335-115.001 51.002-197.001h-364c0-60 14-106 42-138s68-48 120-48c66.667 0 123.667 14.333 171 43v-74c-48.667-23.333-107-35-175-35-72.667 0-129.334 22.5-170.001 67.5s-61 110.833-61 197.5c0 84.667 19.167 148.834 57.5 192.501S204.667 508 274 508c76 0 131.667-24.667 167-74zm-266.998-22.501c-22.667-20.333-37-56.5-43-108.5h285c-3.333 46.667-16.5 81.5-39.5 104.5s-57.167 34.5-102.5 34.5c-44 0-77.333-10.167-100-30.5zm22.5 163c-24.333 19.667-40.501 47.834-48.501 84.501h52c15.333-41.333 43-62 83-62 38.667 0 66.334 20.667 83.001 62h52c-6.667-36.667-22.334-64.834-47.001-84.501s-54-29.5-88-29.5c-33.333 0-62.166 9.833-86.499 29.5z"/><glyph glyph-name="Edotaccent" unicode="Ė" horiz-adv-x="581" d="M85 667h421v-68H157V369h307v-70H157V68h349V0H85v667zm182 116h79v-79h-79v79z"/><glyph glyph-name="edotaccent" unicode="ė" horiz-adv-x="547" d="M441 434c35.333-49.333 52.335-115.001 51.002-197.001h-364c0-60 14-106 42-138s68-48 120-48c66.667 0 123.667 14.333 171 43v-74c-48.667-23.333-107-35-175-35-72.667 0-129.334 22.5-170.001 67.5s-61 110.833-61 197.5c0 84.667 19.167 148.834 57.5 192.501S204.667 508 274 508c76 0 131.667-24.667 167-74zm-266.998-22.501c-22.667-20.333-37-56.5-43-108.5h285c-3.333 46.667-16.5 81.5-39.5 104.5s-57.167 34.5-102.5 34.5c-44 0-77.333-10.167-100-30.5zm69 231.5h79v-79h-79v79z"/><glyph glyph-name="Eogonek" unicode="Ę" horiz-adv-x="581" d="M157 599V368.999h307v-70H157v-231h349v-68h-1c-28-13.333-50.333-27.333-67-42s-25-29-25-43c0-22.667 11.333-34 34-34 18.667 0 37 9 55 27v-63c-21.333-12-41.333-18-60-18-27.333 0-48.833 7.333-64.5 22s-23.5 35-23.5 61c0 16.667 5.667 33.334 17 50.001s27 30 47 40H85v667h421v-68H157z"/><glyph glyph-name="eogonek" unicode="ę" horiz-adv-x="547" d="M441 434c35.333-49.333 52.335-115 51.002-197h-364c0-60 14-106 42-138s68-48 120-48c66.667 0 123.667 14.333 171 43V20c-8.667-4.667-18.667-8.667-30-12-42.667-24.667-64-48.334-64-71.001s11.333-34 34-34c18.667 0 37 9 55 27v-63c-21.333-12-41.333-18-60-18-27.333 0-48.833 7.333-64.5 22s-23.5 35-23.5 61c0 18.667 7 37 21 55-18.667-1.333-33-2-43-2-72.667 0-129.334 22.5-170.001 67.5s-61 110.833-61 197.5c0 84.667 19.167 148.834 57.5 192.501S204.667 508 274 508c76 0 131.667-24.667 167-74zm-266.998-22.5c-22.667-20.333-37-56.5-43-108.5h285c-3.333 46.667-16.5 81.5-39.5 104.5s-57.167 34.5-102.5 34.5c-44 0-77.333-10.167-100-30.5z"/><glyph glyph-name="Ecaron" unicode="Ě" horiz-adv-x="581" d="M85 667h421v-68H157V369h307v-70H157V68h349V0H85v667zm121 157h56l45-70 45 70h56l-80-120h-41z"/><glyph glyph-name="ecaron" unicode="ě" horiz-adv-x="547" d="M441 434c35.333-49.333 52.335-115.001 51.002-197.001h-364c0-60 14-106 42-138s68-48 120-48c66.667 0 123.667 14.333 171 43v-74c-48.667-23.333-107-35-175-35-72.667 0-129.334 22.5-170.001 67.5s-61 110.833-61 197.5c0 84.667 19.167 148.834 57.5 192.501S204.667 508 274 508c76 0 131.667-24.667 167-74zm-266.998-22.501c-22.667-20.333-37-56.5-43-108.5h285c-3.333 46.667-16.5 81.5-39.5 104.5s-57.167 34.5-102.5 34.5c-44 0-77.333-10.167-100-30.5zm8 272.5h56l45-70 45 70h56l-80-120h-41z"/><glyph glyph-name="Gcircumflex" unicode="Ĝ" horiz-adv-x="687" d="M137.5 77c-51.667 58-77.498 143.668-77.498 257.001S85.835 532.667 137.502 590s128.834 86 231.501 86c76 0 146-15 210-45v-75c-36.667 16-71.334 28.667-104.001 38s-65.334 14-98.001 14c-84.667 0-146.667-22.167-186-66.5s-59-113.5-59-207.5c0-94.667 19.667-164.167 59-208.5s101.333-66.5 186-66.5c53.333 0 104.333 8 153 24v190h-161v70h233V42c-72-34.667-149.667-52-233-52C266.334-10 189.167 19 137.5 77zm196.502 762.001h61l80-120h-46l-65 70-65-70h-46z"/><glyph glyph-name="gcircumflex" unicode="ĝ" d="M433.5 476.5c37-20.333 55.499-51.503 55.499-93.503v-404c0-49.333-16-91.166-48-125.499s-88.333-51.5-169-51.5c-22.667 0-43.834 1.833-63.501 5.5s-36.667 7.334-51 11.001-23.5 5.834-27.5 6.501v68c26-7.333 48.833-13 68.5-17s41.5-6 65.5-6c60.667 0 101.334 10 122.001 30s31 45.667 31 77v37C396.332 6 373.165-.833 347.498-6.5s-47.167-8.5-64.5-8.5c-75.333 0-132.166 22.167-170.499 66.5s-57.5 105.833-57.5 184.5C55.666 338 79.333 408.667 126 448s104 59 172 59c53.333 0 98.5-10.167 135.5-30.5zM167.999 100.497c24.667-33 63-49.5 115-49.5 22 0 44.833 3 68.5 9s45.5 14.667 65.5 26v287c0 26-10.167 43.833-30.5 53.5s-47.833 14.5-82.5 14.5c-66.667 0-112.167-18.333-136.5-55s-36.5-86.667-36.5-150c0-57.333 12.333-102.5 37-135.5zm113 583.5h61l80-120h-46l-65 70-65-70h-46z"/><glyph glyph-name="Gbreve" unicode="Ğ" horiz-adv-x="687" d="M137.5 77c-51.667 58-77.498 143.668-77.498 257.001S85.835 532.667 137.502 590s128.834 86 231.501 86c76 0 146-15 210-45v-75c-36.667 16-71.334 28.667-104.001 38s-65.334 14-98.001 14c-84.667 0-146.667-22.167-186-66.5s-59-113.5-59-207.5c0-94.667 19.667-164.167 59-208.5s101.333-66.5 186-66.5c53.333 0 104.333 8 153 24v190h-161v70h233V42c-72-34.667-149.667-52-233-52C266.334-10 189.167 19 137.5 77zm140.002 647.501c-24.333 19.667-40.501 47.834-48.501 84.501h52c15.333-41.333 43-62 83-62 38.667 0 66.334 20.667 83.001 62h52c-6.667-36.667-22.334-64.834-47.001-84.501s-54-29.5-88-29.5c-33.333 0-62.166 9.833-86.499 29.5z"/><glyph glyph-name="gbreve" unicode="ğ" d="M433.5 476.5c37-20.333 55.499-51.503 55.499-93.503v-404c0-49.333-16-91.166-48-125.499s-88.333-51.5-169-51.5c-22.667 0-43.834 1.833-63.501 5.5s-36.667 7.334-51 11.001-23.5 5.834-27.5 6.501v68c26-7.333 48.833-13 68.5-17s41.5-6 65.5-6c60.667 0 101.334 10 122.001 30s31 45.667 31 77v37C396.332 6 373.165-.833 347.498-6.5s-47.167-8.5-64.5-8.5c-75.333 0-132.166 22.167-170.499 66.5s-57.5 105.833-57.5 184.5C55.666 338 79.333 408.667 126 448s104 59 172 59c53.333 0 98.5-10.167 135.5-30.5zM167.999 100.497c24.667-33 63-49.5 115-49.5 22 0 44.833 3 68.5 9s45.5 14.667 65.5 26v287c0 26-10.167 43.833-30.5 53.5s-47.833 14.5-82.5 14.5c-66.667 0-112.167-18.333-136.5-55s-36.5-86.667-36.5-150c0-57.333 12.333-102.5 37-135.5zm56.5 474c-24.333 19.667-40.501 47.834-48.501 84.501h52c15.333-41.333 43-62 83-62 38.667 0 66.334 20.667 83.001 62h52c-6.667-36.667-22.334-64.834-47.001-84.501s-54-29.5-88-29.5c-33.333 0-62.166 9.833-86.499 29.5z"/><glyph glyph-name="Gdotaccent" unicode="Ġ" horiz-adv-x="687" d="M137.5 77c-51.667 58-77.498 143.668-77.498 257.001S85.835 532.667 137.502 590s128.834 86 231.501 86c76 0 146-15 210-45v-75c-36.667 16-71.334 28.667-104.001 38s-65.334 14-98.001 14c-84.667 0-146.667-22.167-186-66.5s-59-113.5-59-207.5c0-94.667 19.667-164.167 59-208.5s101.333-66.5 186-66.5c53.333 0 104.333 8 153 24v190h-161v70h233V42c-72-34.667-149.667-52-233-52C266.334-10 189.167 19 137.5 77zm186.502 706.001h79v-79h-79v79z"/><glyph glyph-name="gdotaccent" unicode="ġ" d="M433.5 476.5c37-20.333 55.499-51.503 55.499-93.503v-404c0-49.333-16-91.166-48-125.499s-88.333-51.5-169-51.5c-22.667 0-43.834 1.833-63.501 5.5s-36.667 7.334-51 11.001-23.5 5.834-27.5 6.501v68c26-7.333 48.833-13 68.5-17s41.5-6 65.5-6c60.667 0 101.334 10 122.001 30s31 45.667 31 77v37C396.332 6 373.165-.833 347.498-6.5s-47.167-8.5-64.5-8.5c-75.333 0-132.166 22.167-170.499 66.5s-57.5 105.833-57.5 184.5C55.666 338 79.333 408.667 126 448s104 59 172 59c53.333 0 98.5-10.167 135.5-30.5zM167.999 100.497c24.667-33 63-49.5 115-49.5 22 0 44.833 3 68.5 9s45.5 14.667 65.5 26v287c0 26-10.167 43.833-30.5 53.5s-47.833 14.5-82.5 14.5c-66.667 0-112.167-18.333-136.5-55s-36.5-86.667-36.5-150c0-57.333 12.333-102.5 37-135.5zm103 542.5h79v-79h-79v79z"/><glyph glyph-name="Gcommaaccent" unicode="Ģ" horiz-adv-x="687" d="M137.5 77c-51.667 58-77.498 143.668-77.498 257.001S85.835 532.667 137.502 590s128.834 86 231.501 86c76 0 146-15 210-45v-75c-36.667 16-71.334 28.667-104.001 38s-65.334 14-98.001 14c-84.667 0-146.667-22.167-186-66.5s-59-113.5-59-207.5c0-94.667 19.667-164.167 59-208.5s101.333-66.5 186-66.5c53.333 0 104.333 8 153 24v190h-161v70h233V42c-72-34.667-149.667-52-233-52C266.334-10 189.167 19 137.5 77zm143.502-215.999c16 6.667 26.667 18.166 32 34.499s8 34.833 8 55.5h60c0-43.333-10-76.666-30-99.999s-43.333-38-70-44v54z"/><glyph glyph-name="gcommaaccent" unicode="ģ" d="M329 603.5c-5.333-16.333-8-34.832-8-55.499h-60c0 43.333 10 76.666 30 99.999s43.333 38 70 44v-54c-16-6.667-26.667-18.167-32-34.5zm104.5-126.999c37-20.333 55.499-51.503 55.499-93.503v-404c0-49.333-16-91.166-48-125.499s-88.333-51.5-169-51.5c-22.667 0-43.834 1.833-63.501 5.5s-36.667 7.334-51 11.001-23.5 5.834-27.5 6.501v68c26-7.333 48.833-13 68.5-17s41.5-6 65.5-6c60.667 0 101.334 10 122.001 30s31 45.667 31 77v37c-20.667-8-43.834-14.833-69.501-20.5s-47.167-8.5-64.5-8.5c-75.333 0-132.166 22.167-170.499 66.5s-57.5 105.833-57.5 184.5c.667 102 24.334 172.667 71.001 212s104 59 172 59c53.333 0 98.5-10.167 135.5-30.5zM167.999 100.498c24.667-33 63-49.5 115-49.5 22 0 44.833 3 68.5 9s45.5 14.667 65.5 26v287c0 26-10.167 43.833-30.5 53.5s-47.833 14.5-82.5 14.5c-66.667 0-112.167-18.333-136.5-55s-36.5-86.667-36.5-150c0-57.333 12.333-102.5 37-135.5z"/><glyph glyph-name="Hcircumflex" unicode="Ĥ" horiz-adv-x="669" d="M85 667h72V367h355v300h72V0h-72v299H157V0H85v667zm220 172h61l80-120h-46l-65 70-65-70h-46z"/><glyph glyph-name="hcircumflex" unicode="ĥ" horiz-adv-x="575" d="M446 455.5c32.667-35 49.001-88.166 49.001-159.499v-296h-72v296c0 46.667-10.833 82.667-32.5 108s-53.5 38-95.5 38c-46.667 0-94.334-13.333-143.001-40v-402H80v720h72v-254c24.667 13.333 50.167 23.666 76.5 30.999s51.166 11 74.499 11c62.667 0 110.334-17.5 143.001-52.5zM83.001 892.001h61l80-120h-46l-65 70-65-70h-46z"/><glyph glyph-name="Hbar" unicode="Ħ" horiz-adv-x="669" d="M634 478h-50V0h-72v299H157V0H85v478H35v53h50v136h72V531h355v136h72V531h50v-53zm-122 0H157V367h355v111z"/><glyph glyph-name="hbar" unicode="ħ" horiz-adv-x="575" d="M446 455.5c32.667-35 49.001-88.166 49.001-159.499v-296h-72v296c0 46.667-10.833 82.667-32.5 108s-53.5 38-95.5 38c-46.667 0-94.334-13.333-143.001-40v-402H80v577h-90v53h90v90h72v-90h82v-53h-82v-111c24.667 13.333 50.167 23.666 76.5 30.999s51.166 11 74.499 11c62.667 0 110.334-17.5 143.001-52.5z"/><glyph glyph-name="Itilde" unicode="Ĩ" horiz-adv-x="242" d="M85 667h72V0H85v667zm-100 60c-2.667 10-3.998 20-3.998 30 0 24.667 7.833 44.5 23.5 59.5s33.5 22.5 53.5 22.5c16 0 30.167-3.167 42.5-9.5s26.833-15.5 43.5-27.5c10.667-8.667 19.667-15.167 27-19.5s15-6.5 23-6.5 14.333 2.667 19 8 7 13 7 23c0 3.333-.667 9-2 17h52c1.333-9.333 2-16.333 2-21 0-24.667-7.833-44.667-23.5-60s-36.5-23-62.5-23c-14.667 0-28.334 3.333-41.001 10S118.667 745.667 104 757c-10.667 8.667-19.5 15-26.5 19s-13.833 6-20.5 6c-8 0-14.667-3.167-20-9.5S29 757 29 745c0-2.667.667-8.667 2-18h-46z"/><glyph glyph-name="itilde" unicode="ĩ" horiz-adv-x="232" d="M80 499h72V0H80v499zm-105 45c-2.667 10-3.998 20-3.998 30 0 24.667 7.833 44.5 23.5 59.5s33.5 22.5 53.5 22.5c16 0 30.167-3.167 42.5-9.5s26.833-15.5 43.5-27.5c10.667-8.667 19.667-15.167 27-19.5s15-6.5 23-6.5 14.333 2.667 19 8 7 13 7 23c0 3.333-.667 9-2 17h52c1.333-9.333 2-16.333 2-21 0-24.667-7.833-44.667-23.5-60s-36.5-23-62.5-23c-14.667 0-28.334 3.333-41.001 10S108.667 562.667 94 574c-10.667 8.667-19.5 15-26.5 19s-13.833 6-20.5 6c-8 0-14.667-3.167-20-9.5S19 574 19 562c0-2.667.667-8.667 2-18h-46z"/><glyph glyph-name="Imacron" unicode="Ī" horiz-adv-x="242" d="M85 667h72V0H85v667zM4 769h234v-53H4v53z"/><glyph glyph-name="imacron" unicode="ī" horiz-adv-x="270" d="M18 629h233v-53H18v53zm81-130h72V0H99v499z"/><glyph glyph-name="Ibreve" unicode="Ĭ" horiz-adv-x="242" d="M85 667h72V0H85v667zm-50.5 57.5c-24.333 19.667-40.501 47.834-48.501 84.501h52c15.333-41.333 43-62 83-62 38.667 0 66.334 20.667 83.001 62h52c-6.667-36.667-22.334-64.834-47.001-84.501s-54-29.5-88-29.5c-33.333 0-62.166 9.833-86.499 29.5z"/><glyph glyph-name="ibreve" unicode="ĭ" horiz-adv-x="232" d="M80 499h72V0H80v499zm-50.5 75.5c-24.333 19.667-40.501 47.834-48.501 84.501h52c15.333-41.333 43-62 83-62 38.667 0 66.334 20.667 83.001 62h52c-6.667-36.667-22.334-64.834-47.001-84.501s-54-29.5-88-29.5c-33.333 0-62.166 9.833-86.499 29.5z"/><glyph glyph-name="Iogonek" unicode="Į" horiz-adv-x="242" d="M90-42C73.333-56.667 65-71.001 65-85.001c0-22.667 11.333-34 34-34 18.667 0 37 9 55 27v-63c-21.333-12-41.333-18-60-18-27.333 0-48.833 7.333-64.5 22s-23.5 35-23.5 61C6-73.334 13.667-55.167 29-35.5S63-1 85 9v658h72V0c-28-13.333-50.333-27.333-67-42z"/><glyph glyph-name="iogonek" unicode="į" horiz-adv-x="240" d="M160 667v-79H80v79h80zM84 499l72-.001v-499c-28-13.333-50.333-27.333-67-42s-25-29-25-43c0-22.667 11.333-34 34-34 18.667 0 37 9 55 27v-63c-21.333-12-41.333-18-60-18-27.333 0-48.833 7.333-64.5 22s-23.5 35-23.5 61C5-73.334 12.5-55.167 27.5-35.5S61.333-1 84 9v490z"/><glyph glyph-name="Idotaccent" unicode="İ" horiz-adv-x="242" d="M85 667h72V0H85v667zm-4 116h79v-79H81v79z"/><glyph glyph-name="dotlessi" unicode="ı" horiz-adv-x="232" d="M80 499h72V0H80v499z"/><glyph glyph-name="IJ" unicode="Ĳ" horiz-adv-x="695" d="M85 667h72V0H85v667zM287 27v74.999c38-26.667 79-40 123-40 45.333 0 78 11.167 98 33.5s30 58.833 30 109.5v462h72v-468c0-77.333-18.5-131.166-55.5-161.499S472.333-8 419-8c-48 0-92 11.667-132 35z"/><glyph glyph-name="ij" unicode="ĳ" horiz-adv-x="508" d="M80 667h80v-79H80v79zm4-168h72V0H84v499zm264 168h80v-79h-80v79zm-98-793c28 .667 49.334 4.833 64.001 12.5s24.667 18.5 30 32.5 8 32.667 8 56v524h72V-29c0-55.333-14.333-96.5-43-123.5S308.667-193 250-193v67z"/><glyph glyph-name="Jcircumflex" unicode="Ĵ" horiz-adv-x="453" d="M45 27v74.999c38-26.667 79-40 123-40 45.333 0 78 11.167 98 33.5s30 58.833 30 109.5v462h72v-468c0-77.333-18.5-131.166-55.5-161.499S230.333-8 177-8C129-8 85 3.667 45 27zm262 811.999h61l80-120h-46l-65 70-65-70h-46z"/><glyph glyph-name="jcircumflex" unicode="ĵ" horiz-adv-x="251" d="M120 684h42l80-120h-56l-45 70-45-70H40zM3-126c28 .667 49.334 4.833 64.001 12.5s24.667 18.5 30 32.5 8 32.667 8 56v524h72V-29c0-55.333-14.333-96.5-43-123.5S61.667-193 3-193v67z"/><glyph glyph-name="Kcommaaccent" unicode="Ķ" horiz-adv-x="613" d="M229 301l-72-79V0H85v667h72V316l316 351h92L279 355 588 0H488zm38-440c16 6.667 26.667 18.166 32 34.499s8 34.833 8 55.5h60c0-43.333-10-76.666-30-99.999s-43.333-38-70-44v54z"/><glyph glyph-name="kcommaaccent" unicode="ķ" horiz-adv-x="549" d="M92 689h72V254l225 245h97L273 270 513 0h-95L226 219l-62-67V0H92v689zm120-828c16.667 6.667 27.667 18.166 33 34.499s8 34.833 8 55.5h60c0-43.333-10-76.666-30-99.999s-43.667-38-71-44v54z"/><glyph glyph-name="kgreenlandic" unicode="ĸ" horiz-adv-x="549" d="M92 499h72V254l225 245h97L273 270 513 0h-95L226 219l-62-67V0H92v499z"/><glyph glyph-name="Lacute" unicode="Ĺ" horiz-adv-x="523" d="M85 667h72V70h341V0H85v667zm79 180h74l-83-115h-48z"/><glyph glyph-name="lacute" unicode="ĺ" horiz-adv-x="232" d="M80 0v689h72V0H80zm75 869h74l-83-115H98z"/><glyph glyph-name="Lcommaaccent" unicode="Ļ" horiz-adv-x="523" d="M85 667h72V70h341V0H85v667zm134-806c16 6.667 26.667 18.166 32 34.499s8 34.833 8 55.5h60c0-43.333-10-76.666-30-99.999s-43.333-38-70-44v54z"/><glyph glyph-name="lcommaaccent" unicode="ļ" horiz-adv-x="232" d="M80 0v689h72V0H80zM66-139c16 6.667 26.667 18.166 32 34.499s8 34.833 8 55.5h60c0-43.333-10-76.666-30-99.999s-43.333-38-70-44v54z"/><glyph glyph-name="Lcaron" unicode="Ľ" horiz-adv-x="538" d="M85 667h72V70h341V0H85v667zm293-86c16 6.667 26.667 18.166 32 34.499s8 34.833 8 55.5h60c0-43.333-10-76.666-30-99.999s-43.333-38-70-44v54z"/><glyph glyph-name="lcaron" unicode="ľ" horiz-adv-x="270" d="M101 689h72V0h-72v689zm106-89c26.667 10 40 39.667 40 89h60c0-43.333-10-76.5-30-99.5S233.667 552 207 546v54z"/><glyph glyph-name="Ldot" unicode="Ŀ" horiz-adv-x="523" d="M85 667h72V70h341V0H85v667zm189-296h79v-80h-79v80z"/><glyph glyph-name="ldot" unicode="ŀ" horiz-adv-x="325" d="M80 0v689h72V0H80zm156 366h79v-80h-79v80z"/><glyph glyph-name="Lslash" unicode="Ł" horiz-adv-x="521" d="M498 70V0H85v300l-72-49v64l72 49v303h72V412l136 92v-64l-136-92V70h341z"/><glyph glyph-name="lslash" unicode="ł" horiz-adv-x="270" d="M101 339l-66-44v64l66 44v286h72V452l78 52v-64l-78-52V0h-72v339z"/><glyph glyph-name="Nacute" unicode="Ń" horiz-adv-x="722" d="M637 667V0h-81L157 562V0H85v667h82l398-562v562h72zM401 847h74l-83-115h-48z"/><glyph glyph-name="nacute" unicode="ń" d="M291 508c70 0 120.5-15.332 151.5-45.999S489 385.667 489 325V0h-72v325c0 78.667-44.667 118-134 118-41.333 0-85-6.667-131-20V0H80v459c64.667 32.667 135 49 211 49zm26 171.001h74l-83-115h-48z"/><glyph glyph-name="Ncommaaccent" unicode="Ņ" horiz-adv-x="722" d="M637 667V0h-81L157 562V0H85v667h82l398-562v562h72zM312-139c16 6.667 26.667 18.166 32 34.499s8 34.833 8 55.5h60c0-43.333-10-76.666-30-99.999s-43.333-38-70-44v54z"/><glyph glyph-name="ncommaaccent" unicode="ņ" d="M291 508c70 0 120.5-15.332 151.5-45.999S489 385.667 489 325V0h-72v325c0 78.667-44.667 118-134 118-41.333 0-85-6.667-131-20V0H80v459c64.667 32.667 135 49 211 49zm-55-646.999c16 6.667 26.667 18.166 32 34.499s8 34.833 8 55.5h60c0-43.333-10-76.666-30-99.999s-43.333-38-70-44v54z"/><glyph glyph-name="Ncaron" unicode="Ň" horiz-adv-x="722" d="M637 667V0h-81L157 562V0H85v667h82l398-562v562h72zM261 824h56l45-70 45 70h56l-80-120h-41z"/><glyph glyph-name="ncaron" unicode="ň" d="M291 508c70 0 120.5-15.332 151.5-45.999S489 385.667 489 325V0h-72v325c0 78.667-44.667 118-134 118-41.333 0-85-6.667-131-20V0H80v459c64.667 32.667 135 49 211 49zM185 684.001h56l45-70 45 70h56l-80-120h-41z"/><glyph glyph-name="napostrophe" unicode="ŉ" horiz-adv-x="581" d="M32 574c16.667 6.667 27.667 18.166 33 34.499s8 34.833 8 55.5h60c0-43.333-10.167-76.666-30.5-99.999S58.667 526 32 520v54zm50-115.001c22 11.333 51.499 22.334 88.499 33.001s77.833 16 122.5 16c62.667 0 111.334-16 146.001-48s52-77 52-135V0h-72v325c0 31.333-8.833 57.666-26.5 78.999s-53.167 32-106.5 32c-41.333 0-85.333-6.667-132-20v-416H82v459z"/><glyph glyph-name="Eng" unicode="Ŋ" horiz-adv-x="728" d="M638 667V-9c0-54.667-14.333-95.5-43-122.5S522.666-172 463.999-172v67c40 .667 66.833 8.167 80.5 22.5S565.333-44.667 566-12v4L159 562V0H87v667h82l397-562v562h72z"/><glyph glyph-name="eng" unicode="ŋ" horiz-adv-x="581" d="M82 459c22 11.333 51.5 22.335 88.5 33.002s77.833 16 122.5 16c62.667 0 111.334-16 146.001-48s52-77 52-135v-334c0-54.667-14.333-95.5-43-122.5s-72.334-40.5-131.001-40.5v67c28 0 49.333 3.833 64 11.5s24.667 18.667 30 33 8 33.166 8 56.499v329c0 31.333-8.833 57.666-26.5 78.999s-53.167 32-106.5 32c-41.333 0-85.333-6.667-132-20V0H82v459z"/><glyph glyph-name="Omacron" unicode="Ō" horiz-adv-x="719" d="M135.5 76.5C85.167 134.167 60 219.667 60 333s25.167 198.833 75.5 256.5S260.333 676 359 676c99.333 0 174.166-28.833 224.499-86.5s75.5-143.167 75.5-256.5-25.167-198.833-75.5-256.5S458.333-10 359-10c-98.667 0-173.167 28.833-223.5 86.5zM531 124c36 44 54 113.667 54 209 0 94.667-18 164.167-54 208.5S437.667 608 359 608c-78 0-135-22.167-171-66.5S134 427.667 134 333c0-95.333 18-165 54-209s93-66 171-66c78.667 0 136 22 172 66zM250 769h234v-53H250v53z"/><glyph glyph-name="omacron" unicode="ō" d="M112.5 53C74.167 98.333 55 163.333 55 248c0 86 19.5 150.833 58.5 194.5S209 508 283 508c78 0 136-23.167 174-69.5s57-109.833 57-190.5c0-82.667-20-147.167-60-193.5S357.667-15 285-15c-76.667 0-134.167 22.667-172.5 68zM442 248c0 62.667-12.333 110.667-37 144s-65 50-121 50c-104.667 0-157-64.667-157-194 0-131.333 52.333-197 157-197 105.333 0 158 65.667 158 197zM170 629h234v-53H170v53z"/><glyph glyph-name="Obreve" unicode="Ŏ" horiz-adv-x="719" d="M135.5 76.5C85.167 134.167 60 219.667 60 333s25.167 198.833 75.5 256.5S260.333 676 359 676c99.333 0 174.166-28.833 224.499-86.5s75.5-143.167 75.5-256.5-25.167-198.833-75.5-256.5S458.333-10 359-10c-98.667 0-173.167 28.833-223.5 86.5zM531 124c36 44 54 113.667 54 209 0 94.667-18 164.167-54 208.5S437.667 608 359 608c-78 0-135-22.167-171-66.5S134 427.667 134 333c0-95.333 18-165 54-209s93-66 171-66c78.667 0 136 22 172 66zM280.5 724.5c-24.333 19.667-40.501 47.834-48.501 84.501h52c15.333-41.333 43-62 83-62 38.667 0 66.334 20.667 83.001 62h52c-6.667-36.667-22.334-64.834-47.001-84.501s-54-29.5-88-29.5c-33.333 0-62.166 9.833-86.499 29.5z"/><glyph glyph-name="obreve" unicode="ŏ" d="M112.5 53C74.167 98.333 55 163.333 55 248c0 86 19.5 150.833 58.5 194.5S209 508 283 508c78 0 136-23.167 174-69.5s57-109.833 57-190.5c0-82.667-20-147.167-60-193.5S357.667-15 285-15c-76.667 0-134.167 22.667-172.5 68zM442 248c0 62.667-12.333 110.667-37 144s-65 50-121 50c-104.667 0-157-64.667-157-194 0-131.333 52.333-197 157-197 105.333 0 158 65.667 158 197zM200.5 574.5c-24.333 19.667-40.501 47.834-48.501 84.501h52c15.333-41.333 43-62 83-62 38.667 0 66.334 20.667 83.001 62h52c-6.667-36.667-22.334-64.834-47.001-84.501s-54-29.5-88-29.5c-33.333 0-62.166 9.833-86.499 29.5z"/><glyph glyph-name="Ohungarumlaut" unicode="Ő" horiz-adv-x="719" d="M135.5 76.5C85.167 134.167 60 219.667 60 333s25.167 198.833 75.5 256.5S260.333 676 359 676c99.333 0 174.166-28.833 224.499-86.5s75.5-143.167 75.5-256.5-25.167-198.833-75.5-256.5S458.333-10 359-10c-98.667 0-173.167 28.833-223.5 86.5zM531 124c36 44 54 113.667 54 209 0 94.667-18 164.167-54 208.5S437.667 608 359 608c-78 0-135-22.167-171-66.5S134 427.667 134 333c0-95.333 18-165 54-209s93-66 171-66c78.667 0 136 22 172 66zM338 819h74l-83-115h-48zm120 0h74l-83-115h-48z"/><glyph glyph-name="ohungarumlaut" unicode="ő" d="M112.5 53C74.167 98.333 55 163.333 55 248c0 86 19.5 150.833 58.5 194.5S209 508 283 508c78 0 136-23.167 174-69.5s57-109.833 57-190.5c0-82.667-20-147.167-60-193.5S357.667-15 285-15c-76.667 0-134.167 22.667-172.5 68zM442 248c0 62.667-12.333 110.667-37 144s-65 50-121 50c-104.667 0-157-64.667-157-194 0-131.333 52.333-197 157-197 105.333 0 158 65.667 158 197zM258 679h74l-83-115h-48zm120 0h74l-83-115h-48z"/><glyph glyph-name="OE" unicode="Œ" horiz-adv-x="1082" d="M658 599V369h307v-70H658V68h349V0H586v79c-50-59.333-125.667-89-227-89-98.667 0-173.167 28.833-223.5 86.5S60 219.667 60 333s25.167 198.833 75.5 256.5S260.333 676 359 676c101.333 0 177-29.667 227-89v80h421v-68H658zM531 124c36 44 54 113.667 54 209 0 94.667-18 164.167-54 208.5S437.667 608 359 608c-78 0-135-22.167-171-66.5S134 427.667 134 333c0-95.333 18-165 54-209s93-66 171-66c78.667 0 136 22 172 66z"/><glyph glyph-name="oe" unicode="œ" horiz-adv-x="936" d="M830 434c35.333-49.333 52.332-115.001 50.999-197.001h-364c0-60 14-106 42-138s68-48 120-48c66.667 0 123.667 14.333 171 43v-74c-48.667-23.333-107-35-175-35-45.333 0-84.666 8.833-117.999 26.5S497.667 55.333 479 90c-18.667-34-44.5-60-77.5-78S329.667-15 285-15c-76.667 0-134.167 22.667-172.5 68S55 163.333 55 248c0 86 19.5 150.833 58.5 194.5S209 508 283 508c92 0 157-33.333 195-100 18 33.333 42.667 58.333 74 75s68.333 25 111 25c76 0 131.667-24.667 167-74zM441.999 247.999c0 62.667-12.333 110.667-37 144s-65 50-121 50c-104.667 0-157-64.667-157-194 0-131.333 52.333-197 157-197 105.333 0 158 65.667 158 197zm121 163.5c-22.667-20.333-37-56.5-43-108.5h285c-3.333 46.667-16.5 81.5-39.5 104.5s-57.167 34.5-102.5 34.5c-44 0-77.333-10.167-100-30.5z"/><glyph glyph-name="Racute" unicode="Ŕ" horiz-adv-x="631" d="M501 0L327 268.999H157v-269H85v667h274c64.667 0 113.667-16.333 147-49s50-81 50-145c0-51.333-13.667-94.666-41-129.999s-64-57.333-110-66L586 0h-85zM157 336.999h169c54.667 0 94.667 11 120 33s38 54.667 38 98c0 42.667-10 75.167-30 97.5s-54.333 33.5-103 33.5H157v-262zm178 510h74l-83-115h-48z"/><glyph glyph-name="racute" unicode="ŕ" horiz-adv-x="377" d="M80 459c25.333 10.667 58.831 21.5 100.498 32.5S265.332 508 309.999 508c6.667 0 17.334-2 32.001-6v-64c-16 2-32 3-48 3-22 0-42.333-1.333-61-4s-45.667-7-81-13V0H80v459zm131.998 220h74l-83-115h-48z"/><glyph glyph-name="Rcommaaccent" unicode="Ŗ" horiz-adv-x="631" d="M501 0L327 268.999H157v-269H85v667h274c64.667 0 113.667-16.333 147-49s50-81 50-145c0-51.333-13.667-94.666-41-129.999s-64-57.333-110-66L586 0h-85zM157 336.999h169c54.667 0 94.667 11 120 33s38 54.667 38 98c0 42.667-10 75.167-30 97.5s-54.333 33.5-103 33.5H157v-262zm109-476c16 6.667 26.667 18.166 32 34.499s8 34.833 8 55.5h60c0-43.333-10-76.666-30-99.999s-43.333-38-70-44v54z"/><glyph glyph-name="rcommaaccent" unicode="ŗ" horiz-adv-x="377" d="M80 459c25.333 10.667 58.831 21.5 100.498 32.5S265.332 508 309.999 508c6.667 0 17.334-2 32.001-6v-64c-16 2-32 3-48 3-22 0-42.333-1.333-61-4s-45.667-7-81-13V0H80v459zM47.998-139c16 6.667 26.667 18.166 32 34.499s8 34.833 8 55.5h60c0-43.333-10-76.666-30-99.999s-43.333-38-70-44v54z"/><glyph glyph-name="Rcaron" unicode="Ř" horiz-adv-x="631" d="M501 0L327 268.999H157v-269H85v667h274c64.667 0 113.667-16.333 147-49s50-81 50-145c0-51.333-13.667-94.666-41-129.999s-64-57.333-110-66L586 0h-85zM157 336.999h169c54.667 0 94.667 11 120 33s38 54.667 38 98c0 42.667-10 75.167-30 97.5s-54.333 33.5-103 33.5H157v-262zm38 487h56l45-70 45 70h56l-80-120h-41z"/><glyph glyph-name="rcaron" unicode="ř" horiz-adv-x="377" d="M80 459c25.333 10.667 58.831 21.5 100.498 32.5S265.332 508 309.999 508c6.667 0 17.334-2 32.001-6v-64c-16 2-32 3-48 3-22 0-42.333-1.333-61-4s-45.667-7-81-13V0H80v459zm-.002 225h56l45-70 45 70h56l-80-120h-41z"/><glyph glyph-name="Sacute" unicode="Ś" horiz-adv-x="555" d="M164 3c-27.333 8.667-60.334 23.33-99.001 43.997v78c24-20 54.167-36.5 90.5-49.5s76.833-19.5 121.5-19.5c48.667 0 85 10.333 109 31s36 48.667 36 84c0 26-7 47.5-21 64.5s-30.667 30.333-50 40-48.333 21.834-87 36.501c-41.333 14-74.166 27.333-98.499 40S120.334 383.332 103.001 408s-26 57.334-26 98.001c0 27.333 6.833 54 20.5 80s35.667 47.667 66 65 69.5 26 117.5 26c35.333 0 64.166-3.333 86.499-10s51.833-19 88.5-37v-74l-37.5 21.5c-20.333 11.667-41.333 20.167-63 25.5s-45.167 8-70.5 8c-46 0-80-9.5-102-28.5s-33-42.833-33-71.5c0-26 5.833-47 17.5-63s27.334-29 47.001-39 47.5-21 83.5-33c41.333-14 75.166-27.833 101.499-41.5s48.833-33.167 67.5-58.5 28-57.666 28-96.999c0-52.667-17.5-97.334-52.5-134S351.333-10 274-10c-46 0-82.667 4.332-110 13zm153.999 843.996h74l-83-115h-48z"/><glyph glyph-name="sacute" unicode="ś" horiz-adv-x="456" d="M134-5c-24 6.667-50.335 17.331-79.002 31.998v76c34-19.333 61.833-32.833 83.5-40.5s47.5-11.5 77.5-11.5c33.333 0 60.5 7.333 81.5 22s31.5 33.667 31.5 57c0 20.667-6.333 36.167-19 46.5s-32.667 20.833-60 31.5l-26 11c-38 10.667-67.5 20.334-88.5 29.001s-39.333 22.334-55 41.001-23.5 44-23.5 76 8.333 58.667 25 80 38.334 37.166 65.001 47.499 54.667 15.5 84 15.5c26.667 0 49.167-3 67.5-9s43.5-16 75.5-30v-72c-33.333 16.667-58.833 28.334-76.5 35.001s-38.5 10-62.5 10c-29.333 0-54.333-5.833-75-17.5s-31-28.167-31-49.5c0-17.333 5.167-31.5 15.5-42.5s23.333-19.667 39-26 36.834-13.166 63.501-20.499c33.333-10.667 59.833-20.334 79.5-29.001s37-22.5 52-41.5S401 171 401 139c0-34-8.667-62.5-26-85.5S335.167 13.333 307.5 2 251-15 221-15c-34 0-63 3.333-87 10zm129.998 683.997h74l-83-115h-48z"/><glyph glyph-name="Scircumflex" unicode="Ŝ" horiz-adv-x="555" d="M164 3c-27.333 8.667-60.334 23.33-99.001 43.997v78c24-20 54.167-36.5 90.5-49.5s76.833-19.5 121.5-19.5c48.667 0 85 10.333 109 31s36 48.667 36 84c0 26-7 47.5-21 64.5s-30.667 30.333-50 40-48.333 21.834-87 36.501c-41.333 14-74.166 27.333-98.499 40S120.334 383.332 103.001 408s-26 57.334-26 98.001c0 27.333 6.833 54 20.5 80s35.667 47.667 66 65 69.5 26 117.5 26c35.333 0 64.166-3.333 86.499-10s51.833-19 88.5-37v-74l-37.5 21.5c-20.333 11.667-41.333 20.167-63 25.5s-45.167 8-70.5 8c-46 0-80-9.5-102-28.5s-33-42.833-33-71.5c0-26 5.833-47 17.5-63s27.334-29 47.001-39 47.5-21 83.5-33c41.333-14 75.166-27.833 101.499-41.5s48.833-33.167 67.5-58.5 28-57.666 28-96.999c0-52.667-17.5-97.334-52.5-134S351.333-10 274-10c-46 0-82.667 4.332-110 13zm84.999 835.996h61l80-120h-46l-65 70-65-70h-46z"/><glyph glyph-name="scircumflex" unicode="ŝ" horiz-adv-x="456" d="M134-5c-24 6.667-50.335 17.331-79.002 31.998v76c34-19.333 61.833-32.833 83.5-40.5s47.5-11.5 77.5-11.5c33.333 0 60.5 7.333 81.5 22s31.5 33.667 31.5 57c0 20.667-6.333 36.167-19 46.5s-32.667 20.833-60 31.5l-26 11c-38 10.667-67.5 20.334-88.5 29.001s-39.333 22.334-55 41.001-23.5 44-23.5 76 8.333 58.667 25 80 38.334 37.166 65.001 47.499 54.667 15.5 84 15.5c26.667 0 49.167-3 67.5-9s43.5-16 75.5-30v-72c-33.333 16.667-58.833 28.334-76.5 35.001s-38.5 10-62.5 10c-29.333 0-54.333-5.833-75-17.5s-31-28.167-31-49.5c0-17.333 5.167-31.5 15.5-42.5s23.333-19.667 39-26 36.834-13.166 63.501-20.499c33.333-10.667 59.833-20.334 79.5-29.001s37-22.5 52-41.5S401 171 401 139c0-34-8.667-62.5-26-85.5S335.167 13.333 307.5 2 251-15 221-15c-34 0-63 3.333-87 10zm68.998 688.997h61l80-120h-46l-65 70-65-70h-46z"/><glyph glyph-name="Scedilla" unicode="Ş" horiz-adv-x="555" d="M459 63.5C435 29.833 396.332 7.662 342.999-3.005l-58-107h-76l71 100h-6c-46 0-82.667 4.333-110 13s-60.333 23.334-99 44.001v78c24-20 54.167-36.5 90.5-49.5s76.833-19.5 121.5-19.5c48.667 0 85 10.333 109 31s36 48.667 36 84c0 26-7 47.5-21 64.5s-30.667 30.333-50 40-48.333 21.834-87 36.501c-41.333 14-74.166 27.333-98.499 40s-45.166 31.334-62.499 56.001-26 57.334-26 98.001c0 27.333 6.833 54 20.5 80s35.667 47.667 66 65 69.5 26 117.5 26c35.333 0 64.166-3.333 86.499-10s51.833-19 88.5-37v-74l-37.5 21.5c-20.333 11.667-41.333 20.167-63 25.5s-45.167 8-70.5 8c-46 0-80-9.5-102-28.5s-33-42.833-33-71.5c0-26 5.833-47 17.5-63s27.334-29 47.001-39 47.5-21 83.5-33c41.333-14 75.166-27.833 101.499-41.5s48.833-33.167 67.5-58.5 28-57.666 28-96.999c0-43.333-12-81.833-36-115.5z"/><glyph glyph-name="scedilla" unicode="ş" horiz-adv-x="456" d="M363.5 40c-25-25.333-56.501-42.003-94.501-50.003l-60-110h-76l75 105c-30 .667-56.333 4.334-79 11.001s-47.334 17-74.001 31v76c34-19.333 61.833-32.833 83.5-40.5s47.5-11.5 77.5-11.5c33.333 0 60.5 7.333 81.5 22s31.5 33.667 31.5 57c0 20.667-6.333 36.167-19 46.5s-32.667 20.833-60 31.5l-26 11c-38 10.667-67.5 20.334-88.5 29.001s-39.333 22.334-55 41.001-23.5 44-23.5 76 8.333 58.667 25 80 38.334 37.166 65.001 47.5 54.667 15.5 84 15.5c26.667 0 49.167-3 67.5-9s43.5-16 75.5-30v-72c-33.333 16.666-58.833 28.333-76.5 35s-38.5 10-62.5 10c-29.333 0-54.333-5.833-75-17.5s-31-28.167-31-49.5c0-17.333 5.167-31.5 15.5-42.5s23.333-19.667 39-26 36.834-13.166 63.501-20.499c33.333-10.667 59.833-20.334 79.5-29s37-22.5 52-41.5S401 171 401 139c0-40.668-12.5-73.668-37.5-99z"/><glyph glyph-name="Scaron" unicode="Š" horiz-adv-x="555" d="M164 3c-27.333 8.667-60.334 23.33-99.001 43.997v78c24-20 54.167-36.5 90.5-49.5s76.833-19.5 121.5-19.5c48.667 0 85 10.333 109 31s36 48.667 36 84c0 26-7 47.5-21 64.5s-30.667 30.333-50 40-48.333 21.834-87 36.501c-41.333 14-74.166 27.333-98.499 40S120.334 383.332 103.001 408s-26 57.334-26 98.001c0 27.333 6.833 54 20.5 80s35.667 47.667 66 65 69.5 26 117.5 26c35.333 0 64.166-3.333 86.499-10s51.833-19 88.5-37v-74l-37.5 21.5c-20.333 11.667-41.333 20.167-63 25.5s-45.167 8-70.5 8c-46 0-80-9.5-102-28.5s-33-42.833-33-71.5c0-26 5.833-47 17.5-63s27.334-29 47.001-39 47.5-21 83.5-33c41.333-14 75.166-27.833 101.499-41.5s48.833-33.167 67.5-58.5 28-57.666 28-96.999c0-52.667-17.5-97.334-52.5-134S351.333-10 274-10c-46 0-82.667 4.332-110 13zm13.999 820.996h56l45-70 45 70h56l-80-120h-41z"/><glyph glyph-name="scaron" unicode="š" horiz-adv-x="456" d="M134-5c-24 6.667-50.335 17.331-79.002 31.998v76c34-19.333 61.833-32.833 83.5-40.5s47.5-11.5 77.5-11.5c33.333 0 60.5 7.333 81.5 22s31.5 33.667 31.5 57c0 20.667-6.333 36.167-19 46.5s-32.667 20.833-60 31.5l-26 11c-38 10.667-67.5 20.334-88.5 29.001s-39.333 22.334-55 41.001-23.5 44-23.5 76 8.333 58.667 25 80 38.334 37.166 65.001 47.499 54.667 15.5 84 15.5c26.667 0 49.167-3 67.5-9s43.5-16 75.5-30v-72c-33.333 16.667-58.833 28.334-76.5 35.001s-38.5 10-62.5 10c-29.333 0-54.333-5.833-75-17.5s-31-28.167-31-49.5c0-17.333 5.167-31.5 15.5-42.5s23.333-19.667 39-26 36.834-13.166 63.501-20.499c33.333-10.667 59.833-20.334 79.5-29.001s37-22.5 52-41.5S401 171 401 139c0-34-8.667-62.5-26-85.5S335.167 13.333 307.5 2 251-15 221-15c-34 0-63 3.333-87 10zm-2.002 688.997h56l45-70 45 70h56l-80-120h-41z"/><glyph glyph-name="uni0162" unicode="Ţ" horiz-adv-x="583" d="M328 599V5h33l-63-115h-76L300 0h-44v599H20v68h543v-68H328z"/><glyph glyph-name="uni0163" unicode="ţ" horiz-adv-x="363" d="M184 433l.001-289.002c0-29.333 4.667-50.666 14-63.999s26.666-20 51.999-20c24.667 0 45.667 4 63 12v-68c-17.333-6.667-41.333-10.667-72-12l-61-112h-76l82 115h20c-28.667 6-51.5 19.833-68.5 41.5S112 86.333 112 121v312H25v66h87v141h72V499h129v-66H184z"/><glyph glyph-name="Tcaron" unicode="Ť" horiz-adv-x="568" d="M182 845h56l46-71 45 71h56l-81-121h-41zm66-248H12v70h543v-70H320V0h-72v597z"/><glyph glyph-name="tcaron" unicode="ť" horiz-adv-x="378" d="M147 25.5c-23.333 22.333-35 54.165-35 95.498v312H25v66h87v141h72v-141h129v-66H184v-289c0-29.333 4.667-50.666 14-63.999s26.666-20 51.999-20c24.667 0 45.667 4 63 12v-68C303.666.666 291.833-2.167 277.5-4.5S249.667-8 237-8c-36.667 0-66.667 11.167-90 33.5zm176 714.499h82l-84-196h-72z"/><glyph glyph-name="Tbar" unicode="Ŧ" horiz-adv-x="583" d="M328 599V360h86v-53h-86V0h-72v307h-86v53h86v239H20v68h543v-68H328z"/><glyph glyph-name="tbar" unicode="ŧ" horiz-adv-x="345" d="M154 21c-28.667 19.333-43 56.666-43 111.999v111H37v60h74v129H24v66h87v141h72v-141h129v-66H183v-129h114v-60H183v-115c0-25.333 5.333-43.166 16-53.499S228.334 60 255.001 60c22 0 41 4 57 12V4c-22-8-44-12-66-12C213.334-8 182.667 1.667 154 21z"/><glyph glyph-name="Utilde" unicode="Ũ" horiz-adv-x="692" d="M153.5 63c-45.667 48.667-68.498 118.334-68.498 209.001v395h72v-399c0-140 63-210 189-210 127.333 0 191 70 191 210v399h70v-395c0-90.667-22.833-160.334-68.5-209.001S428.668-10 346.001-10 199.167 14.333 153.5 63zm56.502 664c-2.667 10-3.998 20-3.998 30 0 24.667 7.833 44.5 23.5 59.5s33.5 22.5 53.5 22.5c16 0 30.167-3.167 42.5-9.5s26.833-15.5 43.5-27.5c10.667-8.667 19.667-15.167 27-19.5s15-6.5 23-6.5 14.333 2.667 19 8 7 13 7 23c0 3.333-.667 9-2 17h52c1.333-9.333 2-16.333 2-21 0-24.667-7.833-44.667-23.5-60s-36.5-23-62.5-23c-14.667 0-28.334 3.333-41.001 10s-26.334 15.667-41.001 27c-10.667 8.667-19.5 15-26.5 19s-13.833 6-20.5 6c-8 0-14.667-3.167-20-9.5s-8-15.5-8-27.5c0-2.667.667-8.667 2-18h-46z"/><glyph glyph-name="utilde" unicode="ũ" horiz-adv-x="578" d="M134.5 36.5C98.167 70.833 80 119.666 80 182.999v316h72v-300c0-50.667 11-87.834 33-111.501s56.667-35.5 104-35.5c46.667 0 81.167 11.833 103.5 35.5S426 148.332 426 198.999v300h72v-316c0-63.333-18.167-112.166-54.5-146.499S355.667-15 289-15 170.833 2.167 134.5 36.5zM148 544c-2.667 10-3.998 20-3.998 30 0 24.667 7.833 44.5 23.5 59.5s33.5 22.5 53.5 22.5c16 0 30.167-3.167 42.5-9.5s26.833-15.5 43.5-27.5c10.667-8.667 19.667-15.167 27-19.5s15-6.5 23-6.5 14.333 2.667 19 8 7 13 7 23c0 3.333-.667 9-2 17h52c1.333-9.333 2-16.333 2-21 0-24.667-7.833-44.667-23.5-60s-36.5-23-62.5-23c-14.667 0-28.334 3.333-41.001 10S281.667 562.667 267 574c-10.667 8.667-19.5 15-26.5 19s-13.833 6-20.5 6c-8 0-14.667-3.167-20-9.5s-8-15.5-8-27.5c0-2.667.667-8.667 2-18h-46z"/><glyph glyph-name="Umacron" unicode="Ū" horiz-adv-x="692" d="M153.5 63c-45.667 48.667-68.498 118.334-68.498 209.001v395h72v-399c0-140 63-210 189-210 127.333 0 191 70 191 210v399h70v-395c0-90.667-22.833-160.334-68.5-209.001S428.668-10 346.001-10 199.167 14.333 153.5 63zm75.502 706h234v-53h-234v53z"/><glyph glyph-name="umacron" unicode="ū" horiz-adv-x="578" d="M134.5 36.5C98.167 70.833 80 119.666 80 182.999v316h72v-300c0-50.667 11-87.834 33-111.501s56.667-35.5 104-35.5c46.667 0 81.167 11.833 103.5 35.5S426 148.332 426 198.999v300h72v-316c0-63.333-18.167-112.166-54.5-146.499S355.667-15 289-15 170.833 2.167 134.5 36.5zM172 629h234v-53H172v53z"/><glyph glyph-name="Ubreve" unicode="Ŭ" horiz-adv-x="692" d="M153.5 63c-45.667 48.667-68.498 118.334-68.498 209.001v395h72v-399c0-140 63-210 189-210 127.333 0 191 70 191 210v399h70v-395c0-90.667-22.833-160.334-68.5-209.001S428.668-10 346.001-10 199.167 14.333 153.5 63zm106.002 661.5c-24.333 19.667-40.501 47.834-48.501 84.501h52c15.333-41.333 43-62 83-62 38.667 0 66.334 20.667 83.001 62h52c-6.667-36.667-22.334-64.834-47.001-84.501s-54-29.5-88-29.5c-33.333 0-62.166 9.833-86.499 29.5z"/><glyph glyph-name="ubreve" unicode="ŭ" horiz-adv-x="578" d="M134.5 36.5C98.167 70.833 80 119.666 80 182.999v316h72v-300c0-50.667 11-87.834 33-111.501s56.667-35.5 104-35.5c46.667 0 81.167 11.833 103.5 35.5S426 148.332 426 198.999v300h72v-316c0-63.333-18.167-112.166-54.5-146.499S355.667-15 289-15 170.833 2.167 134.5 36.5zm68 538c-24.333 19.667-40.501 47.834-48.501 84.501h52c15.333-41.333 43-62 83-62 38.667 0 66.334 20.667 83.001 62h52c-6.667-36.667-22.334-64.834-47.001-84.501s-54-29.5-88-29.5c-33.333 0-62.166 9.833-86.499 29.5z"/><glyph glyph-name="Uring" unicode="Ů" horiz-adv-x="692" d="M153.5 63c-45.667 48.667-68.498 118.334-68.498 209.001v395h72v-399c0-140 63-210 189-210 127.333 0 191 70 191 210v399h70v-395c0-90.667-22.833-160.334-68.5-209.001S428.668-10 346.001-10 199.167 14.333 153.5 63zm115.002 599c-15.667 14.667-23.5 38-23.5 70s7.833 55.333 23.5 70 41.5 22 77.5 22c35.333 0 61-7.333 77-22s24-38 24-70-8-55.333-24-70-41.667-22-77-22c-36 0-61.833 7.333-77.5 22zm120 32c7.667 7.333 11.5 20 11.5 38s-3.833 30.5-11.5 37.5-21.834 10.5-42.501 10.5c-21.333 0-35.833-3.5-43.5-10.5s-11.5-19.5-11.5-37.5 3.833-30.667 11.5-38 22.167-11 43.5-11c20.667 0 34.834 3.667 42.501 11z"/><glyph glyph-name="uring" unicode="ů" horiz-adv-x="578" d="M134.5 36.5C98.167 70.833 80 119.666 80 182.999v316h72v-300c0-50.667 11-87.834 33-111.501s56.667-35.5 104-35.5c46.667 0 81.167 11.833 103.5 35.5S426 148.332 426 198.999v300h72v-316c0-63.333-18.167-112.166-54.5-146.499S355.667-15 289-15 170.833 2.167 134.5 36.5zm77 520.5c-15.667 14.667-23.5 38-23.5 70s7.833 55.333 23.5 70 41.5 22 77.5 22c35.333 0 61-7.333 77-22s24-38 24-70-8-55.333-24-70-41.667-22-77-22c-36 0-61.833 7.333-77.5 22zm120 32c7.667 7.333 11.5 20 11.5 38s-3.833 30.5-11.5 37.5-21.834 10.5-42.501 10.5c-21.333 0-35.833-3.5-43.5-10.5s-11.5-19.5-11.5-37.5 3.833-30.667 11.5-38 22.167-11 43.5-11c20.667 0 34.834 3.667 42.501 11z"/><glyph glyph-name="Uhungarumlaut" unicode="Ű" horiz-adv-x="692" d="M153.5 63c-45.667 48.667-68.498 118.334-68.498 209.001v395h72v-399c0-140 63-210 189-210 127.333 0 191 70 191 210v399h70v-395c0-90.667-22.833-160.334-68.5-209.001S428.668-10 346.001-10 199.167 14.333 153.5 63zm163.502 756h74l-83-115h-48zm120 0h74l-83-115h-48z"/><glyph glyph-name="uhungarumlaut" unicode="ű" horiz-adv-x="578" d="M134.5 36.5C98.167 70.833 80 119.666 80 182.999v316h72v-300c0-50.667 11-87.834 33-111.501s56.667-35.5 104-35.5c46.667 0 81.167 11.833 103.5 35.5S426 148.332 426 198.999v300h72v-316c0-63.333-18.167-112.166-54.5-146.499S355.667-15 289-15 170.833 2.167 134.5 36.5zM260 679h74l-83-115h-48zm120 0h74l-83-115h-48z"/><glyph glyph-name="Uogonek" unicode="Ų" horiz-adv-x="692" d="M607 667l.001-395.003c0-73.333-15.333-133.166-46-179.499S486.667 15.332 430-.001h1c-28-13.333-50.333-27.333-67-42s-25-29-25-43c0-22.667 11.333-34 34-34 18.667 0 37 9 55 27v-63c-21.333-12-41.333-18-60-18-27.333 0-48.833 7.333-64.5 22s-23.5 35-23.5 61c0 14 4.167 28.333 12.5 43s20.166 27 35.499 37c-77.333 4-137.166 30.333-179.499 79S85 185.333 85 272v395h72V268c0-140 63-210 189-210 127.333 0 191 70 191 210v399h70z"/><glyph glyph-name="uogonek" unicode="ų" horiz-adv-x="578" d="M498 499V182.999c0-46-9.833-84.667-29.5-116S420.666 13.333 383.999 0h4c-28-13.333-50.333-27.333-67-42s-25-29-25-43c0-22.667 11.333-34 34-34 18.667 0 37 9 55 27v-63c-21.333-12-41.333-18-60-18-27.333 0-48.833 7.333-64.5 22s-23.5 35-23.5 61c0 12.667 3.5 25.834 10.5 39.501s17.167 25.5 30.5 35.5c-63.333 2-112.166 20.167-146.499 54.5S80 121.667 80 183v316h72V199c0-50.667 11-87.834 33-111.501s56.667-35.5 104-35.5c46.667 0 81.167 11.833 103.5 35.5S426 148.333 426 199v300h72z"/><glyph glyph-name="Wcircumflex" unicode="Ŵ" horiz-adv-x="976" d="M951 667L736 0h-73L488 553 313 0h-74L25 667h76L281 98l171 569h72L698 98l177 569h76zM459 839h61l80-120h-46l-65 70-65-70h-46z"/><glyph glyph-name="wcircumflex" unicode="ŵ" horiz-adv-x="796" d="M761 499L595 0h-73L397 414 274 0h-73L35 499h76L241 82l122 417h69L558 81l132 418h71zM369 684h61l80-120h-46l-65 70-65-70h-46z"/><glyph glyph-name="Ycircumflex" unicode="Ŷ" horiz-adv-x="598" d="M333 306V0h-72v306L12 667h87l197-292 198 292h87zm-58 533h61l80-120h-46l-65 70-65-70h-46z"/><glyph glyph-name="ycircumflex" unicode="ŷ" horiz-adv-x="540" d="M505 499L291.003-49.001c-20.667-53.333-44.834-90.666-72.501-111.999s-55.834-32-84.501-32c-16 0-31.667 3-47 9v66c13.333-6 27.666-9 42.999-9 28.667 0 51 10.333 67 31s31 52 45 94L35 499h82L275 92l158 407h72zM245.003 683.999h61l80-120h-46l-65 70-65-70h-46z"/><glyph glyph-name="Ydieresis" unicode="Ÿ" horiz-adv-x="598" d="M333 306V0h-72v306L12 667h87l197-292 198 292h87zM191 805h79v-79h-79v79zm148 0h79v-79h-79v79z"/><glyph glyph-name="Zacute" unicode="Ź" horiz-adv-x="609" d="M539 606L153 68h386V0H64v63l390 536H74v68h465v-61zM344 847h74l-83-115h-48z"/><glyph glyph-name="zacute" unicode="ź" horiz-adv-x="455" d="M410 436L128 64h282V0H45v65l279 372H52v62h358v-63zM259 679h74l-83-115h-48z"/><glyph glyph-name="Zdotaccent" unicode="Ż" horiz-adv-x="609" d="M539 606L153 68h386V0H64v63l390 536H74v68h465v-61zM265 783h79v-79h-79v79z"/><glyph glyph-name="zdotaccent" unicode="ż" horiz-adv-x="455" d="M410 436L128 64h282V0H45v65l279 372H52v62h358v-63zM188 643h79v-79h-79v79z"/><glyph glyph-name="Zcaron" unicode="Ž" horiz-adv-x="609" d="M539 606L153 68h386V0H64v63l390 536H74v68h465v-61zM204 824h56l45-70 45 70h56l-80-120h-41z"/><glyph glyph-name="zcaron" unicode="ž" horiz-adv-x="455" d="M410 436L128 64h282V0H45v65l279 372H52v62h358v-63zM127 684h56l45-70 45 70h56l-80-120h-41z"/><glyph glyph-name="uni018F" unicode="Ə" horiz-adv-x="717" d="M575 584.5c54.667-58.333 82.003-144.166 82.003-257.499 0-111.333-26.333-195.5-79-252.5s-126-85.5-220-85.5c-102.667 0-178.334 31.667-227.001 95S58.668 232.667 60 340h524c0 87.333-21.167 153.5-63.5 198.5S418.668 606 342 606c-48.667 0-95.334-7-140.001-21s-81.667-30.333-111-49v74c34 18.667 73 33.667 117 45s90 17 138 17c98 0 174.333-29.167 229-87.5zM476.503 75c31 13.333 55.167 35.834 72.5 67.501s28.333 75.5 33 131.5h-447c3.333-74.667 23-129.834 59-165.501s90.667-53.5 164-53.5c48 0 87.5 6.667 118.5 20z"/><glyph glyph-name="florin" unicode="ƒ" horiz-adv-x="330" d="M10-120v65c3.333-.667 9.333-1 18-1 21.333 0 38.833 2 52.5 6S106-35.667 116-19s15 43 15 79v373H44v66h87v9c0 55.333 9.667 96.5 29 123.5s40.166 43.667 62.499 50 45.5 9.5 69.5 9.5c8 0 18-.667 30-2v-65l-18 1c-21.333 0-38.833-2-52.5-6s-25.5-14.333-35.5-31-15-43-15-79v-10h121v-66h-121V61c0-55.333-9.667-96.5-29-123.5s-40.166-43.667-62.499-50S64-122 40-122c-14 0-24 .667-30 2z"/><glyph glyph-name="uni019D" unicode="Ɲ" horiz-adv-x="749" d="M664 667l.001-667.001h-81l-399 562v-591c0-55.333-14.333-96.5-43-123.5s-72.334-40.5-131.001-40.5v67c28 .667 49.333 4.834 64 12.501S98.667-95 104-81s8 32.667 8 56v692h82l398-562v562h72z"/><glyph glyph-name="Ohorn" unicode="Ơ" horiz-adv-x="719" d="M659 333c0-113.333-25.167-198.833-75.5-256.5S458.334-10 359.001-10c-98.667 0-173.167 28.833-223.5 86.5s-75.5 143.167-75.5 256.5 25.167 198.833 75.5 256.5 124.833 86.5 223.5 86.5c39.333 0 75-4.667 107-14 16.667 3.333 31.167 11.333 43.5 24s18.5 27 18.5 43v26h54v-28c0-20-4.333-38.167-13-54.5S548.667 642.667 534 632c83.333-52 125-151.667 125-299zM531 124c36 44 54 113.667 54 209 0 94.667-18 164.167-54 208.5S437.667 608 359 608c-78 0-135-22.167-171-66.5S134 427.667 134 333c0-95.333 18-165 54-209s93-66 171-66c78.667 0 136 22 172 66z"/><glyph glyph-name="ohorn" unicode="ơ" d="M492 378.5c14.667-37.667 22-81.164 22-130.497 0-82.667-20-147.167-60-193.5s-96.333-69.5-169-69.5c-76.667 0-134.167 22.667-172.5 68S55 163.336 55 248.003c0 86 19.5 150.833 58.5 194.5s95.5 65.5 169.5 65.5c27.333 0 52-3 74-9 18 1.333 33.833 8.666 47.5 21.999s20.5 28.666 20.5 45.999v26h54v-28c0-21.333-4.833-40.333-14.5-57S442 477.667 426 467c29.333-21.333 51.333-50.833 66-88.5zm-50-130.497c0 62.667-12.333 110.667-37 144s-65 50-121 50c-104.667 0-157-64.667-157-194 0-131.333 52.333-197 157-197 105.333 0 158 65.667 158 197z"/><glyph glyph-name="Uhorn" unicode="Ư" horiz-adv-x="742" d="M694 760l.001-27.999c0-28.667-8.167-52.834-24.5-72.501s-37.166-33.167-62.499-40.5V272c0-90.667-22.833-160.334-68.5-209.001s-109.834-73-192.501-73-146.834 24.333-192.501 73S85 181.333 85 272v395h72V268c0-140 63-210 189-210 127.333 0 191 70 191 210v399h41c16.667 3.333 31.167 11.333 43.5 24s18.5 27 18.5 43v26h54z"/><glyph glyph-name="uhorn" unicode="ư" horiz-adv-x="578" d="M577 593v-28c0-27.333-7.333-50.5-22-69.5S521.333 463 498 455V183c0-63.333-18.167-112.166-54.5-146.499s-87.833-51.5-154.5-51.5-118.167 17.167-154.5 51.5S80 119.667 80 183v316h72V199c0-50.667 11-87.834 33-111.501s56.667-35.5 104-35.5c46.667 0 81.167 11.833 103.5 35.5S426 148.333 426 199v300h23c18.667 0 35.667 6.833 51 20.5s23 29.5 23 47.5v26h54z"/><glyph glyph-name="uni01C4" unicode="Ǆ" horiz-adv-x="1276" d="M85 667l209 .001c104 0 182.167-27.833 234.5-83.5S607 444.667 607 334C607 111.333 502.667 0 294 0H85v667zM289 68.001c84.667 0 146.5 21.333 185.5 64s58.5 110 58.5 202-19.5 159.333-58.5 202-100.833 64-185.5 64H157v-532h132zm917 538l-386-538h386v-68H731v63l390 536H741v68h465v-61zm-335 218h56l45-70 45 70h56l-80-120h-41z"/><glyph glyph-name="uni01C5" unicode="ǅ" horiz-adv-x="1122" d="M85 667l209 .001c104 0 182.167-27.833 234.5-83.5S607 444.667 607 334C607 111.333 502.667 0 294 0H85v667zM289 68.001c84.667 0 146.5 21.333 185.5 64s58.5 110 58.5 202-19.5 159.333-58.5 202-100.833 64-185.5 64H157v-532h132zm788 368l-282-372h282v-64H712v65l279 372H719v62h358v-63zm-283 248h56l45-70 45 70h56l-80-120h-41z"/><glyph glyph-name="uni01C6" unicode="ǆ" horiz-adv-x="1024" d="M489 710l-.001-624c0-34-21.5-59.333-64.5-76s-89.833-25-140.5-25C222.666-15 169.333 4.833 124 44.5S55.667 154.667 55 256c0 78.667 19.167 140.167 57.5 184.5S207.666 507 282.999 507c17.333 0 38.833-2.833 64.5-8.5S396.333 486 417 478v232h72zm-72.001-304c-20 11.333-41.832 20-65.499 26s-46.5 9-68.5 9c-52 0-90.333-16.5-115-49.5s-37-78.167-37-135.5c0-62.667 11.333-112.5 34-149.5S228.667 51 288 51c35.333 0 65.666 4 90.999 12s38 18 38 30v313zM979 436L697 64h282V0H614v65l279 372H621v62h358v-63zM696 684h56l45-70 45 70h56l-80-120h-41z"/><glyph glyph-name="uni01C7" unicode="Ǉ" horiz-adv-x="976" d="M85 667h72V70h341V0H85v667zM568 27v74.999c38-26.667 79-40 123-40 45.333 0 78 11.167 98 33.5s30 58.833 30 109.5v462h72v-468c0-77.333-18.5-131.166-55.5-161.499S753.333-8 700-8c-48 0-92 11.667-132 35z"/><glyph glyph-name="uni01C8" unicode="ǈ" horiz-adv-x="791" d="M85 667h72V70h341V0H85v667zm546 0h80v-79h-80v79zm-98-793c28 .667 49.334 4.833 64.001 12.5s24.667 18.5 30 32.5 8 32.667 8 56v524h72V-29c0-55.333-14.333-96.5-43-123.5S591.667-193 533-193v67z"/><glyph glyph-name="uni01C9" unicode="ǉ" horiz-adv-x="500" d="M80 0v689h72V0H80zm260 667h80v-79h-80v79zm-98-793c28 .667 49.334 4.833 64.001 12.5s24.667 18.5 30 32.5 8 32.667 8 56v524h72V-29c0-55.333-14.333-96.5-43-123.5S300.667-193 242-193v67z"/><glyph glyph-name="uni01CA" unicode="Ǌ" horiz-adv-x="1175" d="M637 667V0h-81L157 562V0H85v667h82l398-562v562h72zM767 27v74.999c38-26.667 79-40 123-40 45.333 0 78 11.167 98 33.5s30 58.833 30 109.5v462h72v-468c0-77.333-18.5-131.166-55.5-161.499S952.333-8 899-8c-48 0-92 11.667-132 35z"/><glyph glyph-name="uni01CB" unicode="ǋ" horiz-adv-x="990" d="M637 667V0h-81L157 562V0H85v667h82l398-562v562h72zm193 0h80v-79h-80v79zm-98-793c28 .667 49.334 4.833 64.001 12.5s24.667 18.5 30 32.5 8 32.667 8 56v524h72V-29c0-55.333-14.333-96.5-43-123.5S790.667-193 732-193v67z"/><glyph glyph-name="uni01CC" unicode="ǌ" horiz-adv-x="837" d="M291 508c70 0 120.5-15.332 151.5-45.999S489 385.667 489 325V0h-72v325c0 78.667-44.667 118-134 118-41.333 0-85-6.667-131-20V0H80v459c64.667 32.667 135 49 211 49zm386 159.001h80v-79h-80v79zm-98-793c28 .667 49.334 4.833 64.001 12.5s24.667 18.5 30 32.5 8 32.667 8 56v524h72v-528c0-55.333-14.333-96.5-43-123.5s-72.334-40.5-131.001-40.5v67z"/><glyph glyph-name="uni01CD" unicode="Ǎ" horiz-adv-x="643" d="M466 208H178L98 0H20l266 667h72L623 0h-77zm-27 69L322 582 205 277h234zM222 824h56l45-70 45 70h56l-80-120h-41z"/><glyph glyph-name="uni01CE" unicode="ǎ" horiz-adv-x="554" d="M425.5 467c32.333-27.333 48.5-67 48.5-119V106c0-48-19.667-80.167-59-96.5S321.334-15 252.001-15C199.334-15 154.167-3.333 116.5 20S60 82.333 60 137c0 59.333 16.333 102.5 49 129.5S186.667 307 244 307c64.667 0 117-11.667 157-35v59c0 74.667-43.667 112-131 112-28.667 0-57.667-4-87-12s-54-20-74-36v72c20 12.667 47.167 22.667 81.5 30S259 508 293 508c56 0 100.167-13.667 132.5-41zM370 59.5c20.667 7 30.999 21.168 30.999 42.501v112c-18 8.667-39 15.5-63 20.5s-49 7.5-75 7.5c-42 0-74.333-8-97-24s-34-39.333-34-70c0-34.667 13.333-59.834 40-75.501s59-23.5 97-23.5c46.667 0 80.334 3.5 101.001 10.5zM189.999 684.001h56l45-70 45 70h56l-80-120h-41z"/><glyph glyph-name="uni01CF" unicode="Ǐ" horiz-adv-x="242" d="M85 667h72V0H85v667zM20 824h56l45-70 45 70h56l-80-120h-41z"/><glyph glyph-name="uni01D0" unicode="ǐ" horiz-adv-x="232" d="M80 499h72V0H80v499zM15 684h56l45-70 45 70h56l-80-120H96z"/><glyph glyph-name="uni01D1" unicode="Ǒ" horiz-adv-x="719" d="M135.5 76.5C85.167 134.167 60 219.667 60 333s25.167 198.833 75.5 256.5S260.333 676 359 676c99.333 0 174.166-28.833 224.499-86.5s75.5-143.167 75.5-256.5-25.167-198.833-75.5-256.5S458.333-10 359-10c-98.667 0-173.167 28.833-223.5 86.5zM531 124c36 44 54 113.667 54 209 0 94.667-18 164.167-54 208.5S437.667 608 359 608c-78 0-135-22.167-171-66.5S134 427.667 134 333c0-95.333 18-165 54-209s93-66 171-66c78.667 0 136 22 172 66zM266 824h56l45-70 45 70h56l-80-120h-41z"/><glyph glyph-name="uni01D2" unicode="ǒ" d="M112.5 53C74.167 98.333 55 163.333 55 248c0 86 19.5 150.833 58.5 194.5S209 508 283 508c78 0 136-23.167 174-69.5s57-109.833 57-190.5c0-82.667-20-147.167-60-193.5S357.667-15 285-15c-76.667 0-134.167 22.667-172.5 68zM442 248c0 62.667-12.333 110.667-37 144s-65 50-121 50c-104.667 0-157-64.667-157-194 0-131.333 52.333-197 157-197 105.333 0 158 65.667 158 197zM186 684h56l45-70 45 70h56l-80-120h-41z"/><glyph glyph-name="uni01D3" unicode="Ǔ" horiz-adv-x="692" d="M153.5 63c-45.667 48.667-68.498 118.334-68.498 209.001v395h72v-399c0-140 63-210 189-210 127.333 0 191 70 191 210v399h70v-395c0-90.667-22.833-160.334-68.5-209.001S428.668-10 346.001-10 199.167 14.333 153.5 63zm91.502 761h56l45-70 45 70h56l-80-120h-41z"/><glyph glyph-name="uni01D4" unicode="ǔ" horiz-adv-x="578" d="M134.5 36.5C98.167 70.833 80 119.666 80 182.999v316h72v-300c0-50.667 11-87.834 33-111.501s56.667-35.5 104-35.5c46.667 0 81.167 11.833 103.5 35.5S426 148.332 426 198.999v300h72v-316c0-63.333-18.167-112.166-54.5-146.499S355.667-15 289-15 170.833 2.167 134.5 36.5zM188 684h56l45-70 45 70h56l-80-120h-41z"/><glyph glyph-name="Gcaron" unicode="Ǧ" horiz-adv-x="687" d="M137.5 77c-51.667 58-77.498 143.668-77.498 257.001S85.835 532.667 137.502 590s128.834 86 231.501 86c76 0 146-15 210-45v-75c-36.667 16-71.334 28.667-104.001 38s-65.334 14-98.001 14c-84.667 0-146.667-22.167-186-66.5s-59-113.5-59-207.5c0-94.667 19.667-164.167 59-208.5s101.333-66.5 186-66.5c53.333 0 104.333 8 153 24v190h-161v70h233V42c-72-34.667-149.667-52-233-52C266.334-10 189.167 19 137.5 77zm125.502 747.001h56l45-70 45 70h56l-80-120h-41z"/><glyph glyph-name="gcaron" unicode="ǧ" d="M433.5 476.5c37-20.333 55.499-51.503 55.499-93.503v-404c0-49.333-16-91.166-48-125.499s-88.333-51.5-169-51.5c-22.667 0-43.834 1.833-63.501 5.5s-36.667 7.334-51 11.001-23.5 5.834-27.5 6.501v68c26-7.333 48.833-13 68.5-17s41.5-6 65.5-6c60.667 0 101.334 10 122.001 30s31 45.667 31 77v37C396.332 6 373.165-.833 347.498-6.5s-47.167-8.5-64.5-8.5c-75.333 0-132.166 22.167-170.499 66.5s-57.5 105.833-57.5 184.5C55.666 338 79.333 408.667 126 448s104 59 172 59c53.333 0 98.5-10.167 135.5-30.5zM167.999 100.497c24.667-33 63-49.5 115-49.5 22 0 44.833 3 68.5 9s45.5 14.667 65.5 26v287c0 26-10.167 43.833-30.5 53.5s-47.833 14.5-82.5 14.5c-66.667 0-112.167-18.333-136.5-55s-36.5-86.667-36.5-150c0-57.333 12.333-102.5 37-135.5zm42 583.5h56l45-70 45 70h56l-80-120h-41z"/><glyph glyph-name="uni01EA" unicode="Ǫ" horiz-adv-x="719" d="M380.5-43c-16.333-14.667-24.497-28.668-24.497-42.001 0-22.667 11.333-34 34-34 18.667 0 37 9 55 27v-63c-21.333-12-41.333-18-60-18-27.333 0-48.833 7.333-64.5 22s-23.5 35-23.5 61c0 14 4.167 28.167 12.5 42.5s20.166 26.833 35.499 37.5C250.335-7.334 179.168 22.833 131.5 80.5S60 222.334 60 333.001c0 113.333 25.167 198.833 75.5 256.5s124.833 86.5 223.5 86.5c99.333 0 174.166-28.833 224.499-86.5s75.5-143.167 75.5-256.5c0-192-71.333-303.667-214-335C418.333-14.666 396.833-28.333 380.5-43zM188.003 123.999c36-44 93-66 171-66 78.667 0 136 22 172 66s54 113.667 54 209c0 94.667-18 164.167-54 208.5s-93.333 66.5-172 66.5c-78 0-135-22.167-171-66.5s-54-113.833-54-208.5c0-95.333 18-165 54-209z"/><glyph glyph-name="uni01EB" unicode="ǫ" d="M478.5 90C454.833 47.333 420.667 17.333 376 0h4c-28-13.333-50.333-27.333-67-42s-25-29-25-43c0-22.667 11.333-34 34-34 18.667 0 37 9 55 27v-63c-21.333-12-41.333-18-60-18-27.333 0-48.833 7.333-64.5 22S229-116 229-90c0 12.667 3.5 25.834 10.5 39.501s17.167 25.5 30.5 35.5c-72 2.667-125.833 26.667-161.5 72s-53.5 109-53.5 191c0 86 19.5 150.833 58.5 194.5s95.5 65.5 169.5 65.5c78 0 136-23.167 174-69.5s57-109.833 57-190.5c0-62.667-11.833-115.334-35.5-158.001zm-36.499 158c0 62.667-12.333 110.667-37 144s-65 50-121 50c-104.667 0-157-64.667-157-194 0-131.333 52.333-197 157-197 105.333 0 158 65.667 158 197z"/><glyph glyph-name="uni01F2" unicode="ǲ" horiz-adv-x="1122" d="M85 667l209 .001c104 0 182.167-27.833 234.5-83.5S607 444.667 607 334C607 111.333 502.667 0 294 0H85v667zM289 68.001c84.667 0 146.5 21.333 185.5 64s58.5 110 58.5 202-19.5 159.333-58.5 202-100.833 64-185.5 64H157v-532h132zm788 368l-282-372h282v-64H712v65l279 372H719v62h358v-63z"/><glyph glyph-name="uni01F4" unicode="Ǵ" horiz-adv-x="687" d="M137.5 77c-51.667 58-77.498 143.668-77.498 257.001S85.835 532.667 137.502 590s128.834 86 231.501 86c76 0 146-15 210-45v-75c-36.667 16-71.334 28.667-104.001 38s-65.334 14-98.001 14c-84.667 0-146.667-22.167-186-66.5s-59-113.5-59-207.5c0-94.667 19.667-164.167 59-208.5s101.333-66.5 186-66.5c53.333 0 104.333 8 153 24v190h-161v70h233V42c-72-34.667-149.667-52-233-52C266.334-10 189.167 19 137.5 77zm265.502 770.001h74l-83-115h-48z"/><glyph glyph-name="Aringacute" unicode="Ǻ" horiz-adv-x="643" d="M353 869h-48l57 115h74zm113-661H178L98 0H20l257 645c-19.333 5.333-33.333 15-42 29s-13 33.333-13 58c0 32 7.833 55.333 23.5 70s41.5 22 77.5 22c35.333 0 61-7.333 77-22s24-38 24-70c0-24.667-4.5-44.167-13.5-58.5S387 649.667 367 645L623 0h-77zM279.5 769.5c-7.667-7-11.5-19.5-11.5-37.5s3.833-30.667 11.5-38 22.167-11 43.5-11c20.667 0 34.834 3.667 42.501 11s11.5 20 11.5 38-3.833 30.5-11.5 37.5S343.667 780 323 780c-21.333 0-35.833-3.5-43.5-10.5zM439 277L322 582 205 277h234z"/><glyph glyph-name="aringacute" unicode="ǻ" horiz-adv-x="554" d="M425.5 467c32.333-27.333 48.5-67 48.5-119V106c0-48-19.667-80.167-59-96.5S321.334-15 252.001-15C199.334-15 154.167-3.333 116.5 20S60 82.333 60 137c0 59.333 16.333 102.5 49 129.5S186.667 307 244 307c64.667 0 117-11.667 157-35v59c0 74.667-43.667 112-131 112-28.667 0-57.667-4-87-12s-54-20-74-36v72c20 12.667 47.167 22.667 81.5 30S259 508 293 508c56 0 100.167-13.667 132.5-41zM370 59.5c20.667 7 30.999 21.168 30.999 42.501v112c-18 8.667-39 15.5-63 20.5s-49 7.5-75 7.5c-42 0-74.333-8-97-24s-34-39.333-34-70c0-34.667 13.333-59.834 40-75.501s59-23.5 97-23.5c46.667 0 80.334 3.5 101.001 10.5zM213.499 557.001c-15.667 14.667-23.5 38-23.5 70s7.833 55.333 23.5 70 41.5 22 77.5 22c35.333 0 61-7.333 77-22s24-38 24-70-8-55.333-24-70-41.667-22-77-22c-36 0-61.833 7.333-77.5 22zm120 32c7.667 7.333 11.5 20 11.5 38s-3.833 30.5-11.5 37.5-21.834 10.5-42.501 10.5c-21.333 0-35.833-3.5-43.5-10.5s-11.5-19.5-11.5-37.5 3.833-30.667 11.5-38 22.167-11 43.5-11c20.667 0 34.834 3.667 42.501 11zm-11.5 300h74l-83-115h-48z"/><glyph glyph-name="AEacute" unicode="Ǽ" horiz-adv-x="957" d="M545 598V368h296v-70H545V69h337V0H473v209H245L103 0H20l456 667h406v-69H545zm-72-317v265L293 281h180zm242 566h74l-83-115h-48z"/><glyph glyph-name="aeacute" unicode="ǽ" horiz-adv-x="893" d="M787 434c35.333-49.333 52.332-115 50.999-197h-364c0-60 14-106 42-138s68-48 120-48c66.667 0 123.667 14.333 171 43V20c-48.667-23.333-107-35-175-35-76.667 0-135 23.333-175 70-24.667-20.667-52.167-37.5-82.5-50.5s-65.5-19.5-105.5-19.5c-65.333 0-116.5 12.333-153.5 37s-55.5 63-55.5 115c0 60.667 19.167 104.167 57.5 130.5s89.5 39.5 153.5 39.5c52 0 95.333-9.667 130-29v53c0 74.667-43.667 112-131 112-28.667 0-57.667-4-87-12s-54-20-74-36v72c20 12.667 47.167 22.667 81.5 30s68.5 11 102.5 11c76.667 0 130-24.333 160-73 36.667 48.667 92.334 73 167.001 73 76 0 131.667-24.667 167-74zm-267.001-22.5c-22.667-20.333-37-56.5-43-108.5h285c-3.333 46.667-16.5 81.5-39.5 104.5s-57.167 34.5-102.5 34.5c-44 0-77.333-10.167-100-30.5zm-162-348c28.667 9.667 51.332 23.166 67.999 40.499-14 32.667-22 69-24 109-18 8.667-39.167 15.667-63.5 21s-49.5 8-75.5 8c-44 0-76.833-8.167-98.5-24.5s-32.5-41.166-32.5-74.499c0-32.667 13.167-56.5 39.5-71.5s58.833-22.5 97.5-22.5c30.667 0 60.334 4.833 89.001 14.5zm127.998 615.499h74l-83-115h-48z"/><glyph glyph-name="Oslashacute" unicode="Ǿ" horiz-adv-x="719" d="M601 567c38.667-55.333 57.998-133.333 57.998-234 0-113.333-25.167-198.833-75.5-256.5S458.332-10 358.999-10C277.666-10 212.333 9.667 163 49L122 0H57l71 85c-45.333 57.333-68 140-68 248 0 113.333 25.167 198.833 75.5 256.5S260.333 676 359 676c90 0 159.667-23.333 209-70l51 61h66zM175.998 141l346 411c-36.667 37.333-91 56-163 56-78 0-135-22.167-171-66.5s-54-113.833-54-208.5c0-84.667 14-148.667 42-192zm376 368l-343-406.001c34.667-30 84.667-45 150-45 78.667 0 136 22 172 66s54 113.667 54 209c0 74.667-11 133.334-33 176.001zm-153 337.999h74l-83-115h-48z"/><glyph glyph-name="oslashacute" unicode="ǿ" horiz-adv-x="574" d="M470 421c29.333-43.333 44-101 44-173 0-82.667-20-147.167-60-193.5S357.667-15 285-15C224.333-15 175.666-.667 138.999 28l-24-28h-78l61 72c-28.667 43.333-43 102-43 176 0 86 19.5 150.833 58.5 194.5s95.5 65.5 169.5 65.5c60.667 0 109.334-14.333 146.001-43l29 34h78zM147 131l238 281c-25.333 20-59 30-101 30-104.667 0-157-64.667-157-194 0-47.333 6.667-86.333 20-117zm275 233L184 82c24.667-20.667 58-31 100-31 105.333 0 158 65.667 158 197 0 48-6.667 86.667-20 116zM318 679h74l-83-115h-48z"/><glyph glyph-name="uni0200" unicode="Ȁ" horiz-adv-x="643" d="M466 208H178L98 0H20l266 667h72L623 0h-77zm-27 69L322 582 205 277h234zM161 847h74l57-115h-48zm123 0h74l57-115h-48z"/><glyph glyph-name="uni0201" unicode="ȁ" horiz-adv-x="554" d="M425.5 467c32.333-27.333 48.5-67 48.5-119V106c0-48-19.667-80.167-59-96.5S321.334-15 252.001-15C199.334-15 154.167-3.333 116.5 20S60 82.333 60 137c0 59.333 16.333 102.5 49 129.5S186.667 307 244 307c64.667 0 117-11.667 157-35v59c0 74.667-43.667 112-131 112-28.667 0-57.667-4-87-12s-54-20-74-36v72c20 12.667 47.167 22.667 81.5 30S259 508 293 508c56 0 100.167-13.667 132.5-41zM370 59.5c20.667 7 30.999 21.168 30.999 42.501v112c-18 8.667-39 15.5-63 20.5s-49 7.5-75 7.5c-42 0-74.333-8-97-24s-34-39.333-34-70c0-34.667 13.333-59.834 40-75.501s59-23.5 97-23.5c46.667 0 80.334 3.5 101.001 10.5zM145.999 679.001h73l57-115h-47zm134 0h73l57-115h-47z"/><glyph glyph-name="uni0202" unicode="Ȃ" horiz-adv-x="643" d="M466 208H178L98 0H20l266 667h72L623 0h-77zm-27 69L322 582 205 277h234zm-28 482.5c24.667-19.667 40.335-47.834 47.002-84.501h-52c-16.667 41.333-44.334 62-83.001 62-40 0-67.667-20.667-83-62h-52c8 36.667 24.167 64.834 48.5 84.501S289.667 789 323 789c34 0 63.333-9.833 88-29.5z"/><glyph glyph-name="uni0203" unicode="ȃ" horiz-adv-x="554" d="M425.5 467c32.333-27.333 48.5-67 48.5-119V106c0-48-19.667-80.167-59-96.5S321.334-15 252.001-15C199.334-15 154.167-3.333 116.5 20S60 82.333 60 137c0 59.333 16.333 102.5 49 129.5S186.667 307 244 307c64.667 0 117-11.667 157-35v59c0 74.667-43.667 112-131 112-28.667 0-57.667-4-87-12s-54-20-74-36v72c20 12.667 47.167 22.667 81.5 30S259 508 293 508c56 0 100.167-13.667 132.5-41zM370 59.5c20.667 7 30.999 21.168 30.999 42.501v112c-18 8.667-39 15.5-63 20.5s-49 7.5-75 7.5c-42 0-74.333-8-97-24s-34-39.333-34-70c0-34.667 13.333-59.834 40-75.501s59-23.5 97-23.5c46.667 0 80.334 3.5 101.001 10.5zm8.999 560.001c24.667-19.667 40.335-47.834 47.002-84.501h-52c-16.667 41.333-44.334 62-83.001 62-40 0-67.667-20.667-83-62h-52c8 36.667 24.167 64.834 48.5 84.501s53.166 29.5 86.499 29.5c34 0 63.333-9.833 88-29.5z"/><glyph glyph-name="uni0204" unicode="Ȅ" horiz-adv-x="581" d="M85 667h421v-68H157V369h307v-70H157V68h349V0H85v667zm60 180h74l57-115h-48zm123 0h74l57-115h-48z"/><glyph glyph-name="uni0205" unicode="ȅ" horiz-adv-x="547" d="M441 434c35.333-49.333 52.335-115.001 51.002-197.001h-364c0-60 14-106 42-138s68-48 120-48c66.667 0 123.667 14.333 171 43v-74c-48.667-23.333-107-35-175-35-72.667 0-129.334 22.5-170.001 67.5s-61 110.833-61 197.5c0 84.667 19.167 148.834 57.5 192.501S204.667 508 274 508c76 0 131.667-24.667 167-74zm-266.998-22.501c-22.667-20.333-37-56.5-43-108.5h285c-3.333 46.667-16.5 81.5-39.5 104.5s-57.167 34.5-102.5 34.5c-44 0-77.333-10.167-100-30.5zm-36 267.5h73l57-115h-47zm134 0h73l57-115h-47z"/><glyph glyph-name="uni0206" unicode="Ȇ" horiz-adv-x="581" d="M85 667h421v-68H157V369h307v-70H157V68h349V0H85v667zm310 92.5c24.667-19.667 40.335-47.834 47.002-84.501h-52c-16.667 41.333-44.334 62-83.001 62-40 0-67.667-20.667-83-62h-52c8 36.667 24.167 64.834 48.5 84.501S273.667 789 307 789c34 0 63.333-9.833 88-29.5z"/><glyph glyph-name="uni0207" unicode="ȇ" horiz-adv-x="547" d="M441 434c35.333-49.333 52.335-115.001 51.002-197.001h-364c0-60 14-106 42-138s68-48 120-48c66.667 0 123.667 14.333 171 43v-74c-48.667-23.333-107-35-175-35-72.667 0-129.334 22.5-170.001 67.5s-61 110.833-61 197.5c0 84.667 19.167 148.834 57.5 192.501S204.667 508 274 508c76 0 131.667-24.667 167-74zm-266.998-22.501c-22.667-20.333-37-56.5-43-108.5h285c-3.333 46.667-16.5 81.5-39.5 104.5s-57.167 34.5-102.5 34.5c-44 0-77.333-10.167-100-30.5zm197 208c24.667-19.667 40.335-47.834 47.002-84.501h-52c-16.667 41.333-44.334 62-83.001 62-40 0-67.667-20.667-83-62h-52c8 36.667 24.167 64.834 48.5 84.501s53.166 29.5 86.499 29.5c34 0 63.333-9.833 88-29.5z"/><glyph glyph-name="uni0208" unicode="Ȉ" horiz-adv-x="242" d="M85 667h72V0H85v667zM-41 847h74l57-115H42zm123 0h74l57-115h-48z"/><glyph glyph-name="uni0209" unicode="ȉ" horiz-adv-x="232" d="M80 499h72V0H80v499zM-29 679h73l57-115H54zm134 0h73l57-115h-47z"/><glyph glyph-name="uni020A" unicode="Ȋ" horiz-adv-x="242" d="M85 667h72V0H85v667zm124 92.5c24.667-19.667 40.335-47.834 47.002-84.501h-52c-16.667 41.333-44.334 62-83.001 62-40 0-67.667-20.667-83-62h-52c8 36.667 24.167 64.834 48.5 84.501S87.667 789 121 789c34 0 63.333-9.833 88-29.5z"/><glyph glyph-name="uni020B" unicode="ȋ" horiz-adv-x="232" d="M80 499h72V0H80v499zm124 120.5c24.667-19.667 40.335-47.834 47.002-84.501h-52c-16.667 41.333-44.334 62-83.001 62-40 0-67.667-20.667-83-62h-52c8 36.667 24.167 64.834 48.5 84.501S82.667 649 116 649c34 0 63.333-9.833 88-29.5z"/><glyph glyph-name="uni020C" unicode="Ȍ" horiz-adv-x="719" d="M135.5 76.5C85.167 134.167 60 219.667 60 333s25.167 198.833 75.5 256.5S260.333 676 359 676c99.333 0 174.166-28.833 224.499-86.5s75.5-143.167 75.5-256.5-25.167-198.833-75.5-256.5S458.333-10 359-10c-98.667 0-173.167 28.833-223.5 86.5zM531 124c36 44 54 113.667 54 209 0 94.667-18 164.167-54 208.5S437.667 608 359 608c-78 0-135-22.167-171-66.5S134 427.667 134 333c0-95.333 18-165 54-209s93-66 171-66c78.667 0 136 22 172 66zM205 847h74l57-115h-48zm123 0h74l57-115h-48z"/><glyph glyph-name="uni020D" unicode="ȍ" d="M112.5 53C74.167 98.333 55 163.333 55 248c0 86 19.5 150.833 58.5 194.5S209 508 283 508c78 0 136-23.167 174-69.5s57-109.833 57-190.5c0-82.667-20-147.167-60-193.5S357.667-15 285-15c-76.667 0-134.167 22.667-172.5 68zM442 248c0 62.667-12.333 110.667-37 144s-65 50-121 50c-104.667 0-157-64.667-157-194 0-131.333 52.333-197 157-197 105.333 0 158 65.667 158 197zM142 679h73l57-115h-47zm134 0h73l57-115h-47z"/><glyph glyph-name="uni020E" unicode="Ȏ" horiz-adv-x="719" d="M135.5 76.5C85.167 134.167 60 219.667 60 333s25.167 198.833 75.5 256.5S260.333 676 359 676c99.333 0 174.166-28.833 224.499-86.5s75.5-143.167 75.5-256.5-25.167-198.833-75.5-256.5S458.333-10 359-10c-98.667 0-173.167 28.833-223.5 86.5zM531 124c36 44 54 113.667 54 209 0 94.667-18 164.167-54 208.5S437.667 608 359 608c-78 0-135-22.167-171-66.5S134 427.667 134 333c0-95.333 18-165 54-209s93-66 171-66c78.667 0 136 22 172 66zm-76 635.5c24.667-19.667 40.335-47.834 47.002-84.501h-52c-16.667 41.333-44.334 62-83.001 62-40 0-67.667-20.667-83-62h-52c8 36.667 24.167 64.834 48.5 84.501S333.667 789 367 789c34 0 63.333-9.833 88-29.5z"/><glyph glyph-name="uni020F" unicode="ȏ" d="M112.5 53C74.167 98.333 55 163.333 55 248c0 86 19.5 150.833 58.5 194.5S209 508 283 508c78 0 136-23.167 174-69.5s57-109.833 57-190.5c0-82.667-20-147.167-60-193.5S357.667-15 285-15c-76.667 0-134.167 22.667-172.5 68zM442 248c0 62.667-12.333 110.667-37 144s-65 50-121 50c-104.667 0-157-64.667-157-194 0-131.333 52.333-197 157-197 105.333 0 158 65.667 158 197zm-67 371.5c24.667-19.667 40.335-47.834 47.002-84.501h-52c-16.667 41.333-44.334 62-83.001 62-40 0-67.667-20.667-83-62h-52c8 36.667 24.167 64.834 48.5 84.501S253.667 649 287 649c34 0 63.333-9.833 88-29.5z"/><glyph glyph-name="uni0210" unicode="Ȑ" horiz-adv-x="631" d="M501 0L327 268.999H157v-269H85v667h274c64.667 0 113.667-16.333 147-49s50-81 50-145c0-51.333-13.667-94.666-41-129.999s-64-57.333-110-66L586 0h-85zM157 336.999h169c54.667 0 94.667 11 120 33s38 54.667 38 98c0 42.667-10 75.167-30 97.5s-54.333 33.5-103 33.5H157v-262zm-23 510h74l57-115h-48zm123 0h74l57-115h-48z"/><glyph glyph-name="uni0211" unicode="ȑ" horiz-adv-x="377" d="M80 459c25.333 10.667 58.831 21.5 100.498 32.5S265.332 508 309.999 508c6.667 0 17.334-2 32.001-6v-64c-16 2-32 3-48 3-22 0-42.333-1.333-61-4s-45.667-7-81-13V0H80v459zM35.998 679h73l57-115h-47zm134 0h73l57-115h-47z"/><glyph glyph-name="uni0212" unicode="Ȓ" horiz-adv-x="631" d="M501 0L327 268.999H157v-269H85v667h274c64.667 0 113.667-16.333 147-49s50-81 50-145c0-51.333-13.667-94.666-41-129.999s-64-57.333-110-66L586 0h-85zM157 336.999h169c54.667 0 94.667 11 120 33s38 54.667 38 98c0 42.667-10 75.167-30 97.5s-54.333 33.5-103 33.5H157v-262zm227 422.5c24.667-19.667 40.335-47.834 47.002-84.501h-52c-16.667 41.333-44.334 62-83.001 62-40 0-67.667-20.667-83-62h-52c8 36.667 24.167 64.834 48.5 84.501s53.166 29.5 86.499 29.5c34 0 63.333-9.833 88-29.5z"/><glyph glyph-name="uni0213" unicode="ȓ" horiz-adv-x="377" d="M80 459c25.333 10.667 58.831 21.5 100.498 32.5S265.332 508 309.999 508c6.667 0 17.334-2 32.001-6v-64c-16 2-32 3-48 3-22 0-42.333-1.333-61-4s-45.667-7-81-13V0H80v459zm188.998 160.5c24.667-19.667 40.335-47.834 47.002-84.501h-52c-16.667 41.333-44.334 62-83.001 62-40 0-67.667-20.667-83-62h-52c8 36.667 24.167 64.834 48.5 84.501s53.166 29.5 86.499 29.5c34 0 63.333-9.833 88-29.5z"/><glyph glyph-name="uni0214" unicode="Ȕ" horiz-adv-x="692" d="M153.5 63c-45.667 48.667-68.498 118.334-68.498 209.001v395h72v-399c0-140 63-210 189-210 127.333 0 191 70 191 210v399h70v-395c0-90.667-22.833-160.334-68.5-209.001S428.668-10 346.001-10 199.167 14.333 153.5 63zm30.502 784h74l57-115h-48zm123 0h74l57-115h-48z"/><glyph glyph-name="uni0215" unicode="ȕ" horiz-adv-x="578" d="M134.5 36.5C98.167 70.833 80 119.666 80 182.999v316h72v-300c0-50.667 11-87.834 33-111.501s56.667-35.5 104-35.5c46.667 0 81.167 11.833 103.5 35.5S426 148.332 426 198.999v300h72v-316c0-63.333-18.167-112.166-54.5-146.499S355.667-15 289-15 170.833 2.167 134.5 36.5zM144 679h73l57-115h-47zm134 0h73l57-115h-47z"/><glyph glyph-name="uni0216" unicode="Ȗ" horiz-adv-x="692" d="M153.5 63c-45.667 48.667-68.498 118.334-68.498 209.001v395h72v-399c0-140 63-210 189-210 127.333 0 191 70 191 210v399h70v-395c0-90.667-22.833-160.334-68.5-209.001S428.668-10 346.001-10 199.167 14.333 153.5 63zm280.502 696.5c24.667-19.667 40.335-47.834 47.002-84.501h-52c-16.667 41.333-44.334 62-83.001 62-40 0-67.667-20.667-83-62h-52c8 36.667 24.167 64.834 48.5 84.501s53.166 29.5 86.499 29.5c34 0 63.333-9.833 88-29.5z"/><glyph glyph-name="uni0217" unicode="ȗ" horiz-adv-x="578" d="M134.5 36.5C98.167 70.833 80 119.666 80 182.999v316h72v-300c0-50.667 11-87.834 33-111.501s56.667-35.5 104-35.5c46.667 0 81.167 11.833 103.5 35.5S426 148.332 426 198.999v300h72v-316c0-63.333-18.167-112.166-54.5-146.499S355.667-15 289-15 170.833 2.167 134.5 36.5zm242.5 583c24.667-19.667 40.335-47.834 47.002-84.501h-52c-16.667 41.333-44.334 62-83.001 62-40 0-67.667-20.667-83-62h-52c8 36.667 24.167 64.834 48.5 84.501S255.667 649 289 649c34 0 63.333-9.833 88-29.5z"/><glyph glyph-name="Scommaaccent" unicode="Ș" horiz-adv-x="555" d="M164 3c-27.333 8.667-60.334 23.33-99.001 43.997v78c24-20 54.167-36.5 90.5-49.5s76.833-19.5 121.5-19.5c48.667 0 85 10.333 109 31s36 48.667 36 84c0 26-7 47.5-21 64.5s-30.667 30.333-50 40-48.333 21.834-87 36.501c-41.333 14-74.166 27.333-98.499 40S120.334 383.332 103.001 408s-26 57.334-26 98.001c0 27.333 6.833 54 20.5 80s35.667 47.667 66 65 69.5 26 117.5 26c35.333 0 64.166-3.333 86.499-10s51.833-19 88.5-37v-74l-37.5 21.5c-20.333 11.667-41.333 20.167-63 25.5s-45.167 8-70.5 8c-46 0-80-9.5-102-28.5s-33-42.833-33-71.5c0-26 5.833-47 17.5-63s27.334-29 47.001-39 47.5-21 83.5-33c41.333-14 75.166-27.833 101.499-41.5s48.833-33.167 67.5-58.5 28-57.666 28-96.999c0-52.667-17.5-97.334-52.5-134S351.333-10 274-10c-46 0-82.667 4.332-110 13zm64.999-142.004c16 6.667 26.667 18.166 32 34.499s8 34.833 8 55.5h60c0-43.333-10-76.666-30-99.999s-43.333-38-70-44v54z"/><glyph glyph-name="scommaaccent" unicode="ș" horiz-adv-x="456" d="M134-5c-24 6.667-50.335 17.331-79.002 31.998v76c34-19.333 61.833-32.833 83.5-40.5s47.5-11.5 77.5-11.5c33.333 0 60.5 7.333 81.5 22s31.5 33.667 31.5 57c0 20.667-6.333 36.167-19 46.5s-32.667 20.833-60 31.5l-26 11c-38 10.667-67.5 20.334-88.5 29.001s-39.333 22.334-55 41.001-23.5 44-23.5 76 8.333 58.667 25 80 38.334 37.166 65.001 47.499 54.667 15.5 84 15.5c26.667 0 49.167-3 67.5-9s43.5-16 75.5-30v-72c-33.333 16.667-58.833 28.334-76.5 35.001s-38.5 10-62.5 10c-29.333 0-54.333-5.833-75-17.5s-31-28.167-31-49.5c0-17.333 5.167-31.5 15.5-42.5s23.333-19.667 39-26 36.834-13.166 63.501-20.499c33.333-10.667 59.833-20.334 79.5-29.001s37-22.5 52-41.5S401 171 401 139c0-34-8.667-62.5-26-85.5S335.167 13.333 307.5 2 251-15 221-15c-34 0-63 3.333-87 10zm18.998-134.003c16 6.667 26.667 18.166 32 34.499s8 34.833 8 55.5h60c0-43.333-10-76.666-30-99.999s-43.333-38-70-44v54z"/><glyph glyph-name="uni021B" unicode="ț" horiz-adv-x="345" d="M154 21c-28.667 19.333-43 56.666-43 111.999v300H24v66h87v141h72v-141h129v-66H183v-304c0-25.333 5.333-43.166 16-53.499S228.334 60 255.001 60c22 0 41 4 57 12V4c-22-8-44-12-66-12C213.334-8 182.667 1.667 154 21zm1-160c27.333 11.333 41 41.332 41 89.999h59c0-43.333-10-76.666-30-99.999s-43.333-38-70-44v54z"/><glyph glyph-name="uni0226" unicode="Ȧ" horiz-adv-x="643" d="M466 208H178L98 0H20l266 667h72L623 0h-77zm-27 69L322 582 205 277h234zM283 783h79v-79h-79v79z"/><glyph glyph-name="uni022A" unicode="Ȫ" horiz-adv-x="719" d="M135.5 76.5C85.167 134.167 60 219.667 60 333s25.167 198.833 75.5 256.5S260.333 676 359 676c99.333 0 174.166-28.833 224.499-86.5s75.5-143.167 75.5-256.5-25.167-198.833-75.5-256.5S458.333-10 359-10c-98.667 0-173.167 28.833-223.5 86.5zM531 124c36 44 54 113.667 54 209 0 94.667-18 164.167-54 208.5S437.667 608 359 608c-78 0-135-22.167-171-66.5S134 427.667 134 333c0-95.333 18-165 54-209s93-66 171-66c78.667 0 136 22 172 66zM253 805h79v-79h-79v79zm148 0h79v-79h-79v79zM250 937h234v-53H250v53z"/><glyph glyph-name="uni022B" unicode="ȫ" d="M112.5 53C74.167 98.333 55 163.333 55 248c0 86 19.5 150.833 58.5 194.5S209 508 283 508c78 0 136-23.167 174-69.5s57-109.833 57-190.5c0-82.667-20-147.167-60-193.5S357.667-15 285-15c-76.667 0-134.167 22.667-172.5 68zM442 248c0 62.667-12.333 110.667-37 144s-65 50-121 50c-104.667 0-157-64.667-157-194 0-131.333 52.333-197 157-197 105.333 0 158 65.667 158 197zM173 643h79v-79h-79v79zm148 0h79v-79h-79v79zM170 773h234v-53H170v53z"/><glyph glyph-name="uni022C" unicode="Ȭ" horiz-adv-x="719" d="M135.5 76.5C85.167 134.167 60 219.667 60 333s25.167 198.833 75.5 256.5S260.333 676 359 676c99.333 0 174.166-28.833 224.499-86.5s75.5-143.167 75.5-256.5-25.167-198.833-75.5-256.5S458.333-10 359-10c-98.667 0-173.167 28.833-223.5 86.5zM531 124c36 44 54 113.667 54 209 0 94.667-18 164.167-54 208.5S437.667 608 359 608c-78 0-135-22.167-171-66.5S134 427.667 134 333c0-95.333 18-165 54-209s93-66 171-66c78.667 0 136 22 172 66zM231 727c-2.667 10-3.998 20-3.998 30 0 24.667 7.833 44.5 23.5 59.5s33.5 22.5 53.5 22.5c16 0 30.167-3.167 42.5-9.5s26.833-15.5 43.5-27.5c10.667-8.667 19.667-15.167 27-19.5s15-6.5 23-6.5 14.333 2.667 19 8 7 13 7 23c0 3.333-.667 9-2 17h52c1.333-9.333 2-16.333 2-21 0-24.667-7.833-44.667-23.5-60s-36.5-23-62.5-23c-14.667 0-28.334 3.333-41.001 10S364.667 745.667 350 757c-10.667 8.667-19.5 15-26.5 19s-13.833 6-20.5 6c-8 0-14.667-3.167-20-9.5s-8-15.5-8-27.5c0-2.667.667-8.667 2-18h-46zm19.002 225h234v-53h-234v53z"/><glyph glyph-name="uni022D" unicode="ȭ" d="M112.5 53C74.167 98.333 55 163.333 55 248c0 86 19.5 150.833 58.5 194.5S209 508 283 508c78 0 136-23.167 174-69.5s57-109.833 57-190.5c0-82.667-20-147.167-60-193.5S357.667-15 285-15c-76.667 0-134.167 22.667-172.5 68zM442 248c0 62.667-12.333 110.667-37 144s-65 50-121 50c-104.667 0-157-64.667-157-194 0-131.333 52.333-197 157-197 105.333 0 158 65.667 158 197zM146 544c-2.667 10-3.998 20-3.998 30 0 24.667 7.833 44.5 23.5 59.5s33.5 22.5 53.5 22.5c16 0 30.167-3.167 42.5-9.5s26.833-15.5 43.5-27.5c10.667-8.667 19.667-15.167 27-19.5s15-6.5 23-6.5 14.333 2.667 19 8 7 13 7 23c0 3.333-.667 9-2 17h52c1.333-9.333 2-16.333 2-21 0-24.667-7.833-44.667-23.5-60s-36.5-23-62.5-23c-14.667 0-28.334 3.333-41.001 10S279.667 562.667 265 574c-10.667 8.667-19.5 15-26.5 19s-13.833 6-20.5 6c-8 0-14.667-3.167-20-9.5s-8-15.5-8-27.5c0-2.667.667-8.667 2-18h-46zm24.002 244h234v-53h-234v53z"/><glyph glyph-name="uni0230" unicode="Ȱ" horiz-adv-x="719" d="M135.5 76.5C85.167 134.167 60 219.667 60 333s25.167 198.833 75.5 256.5S260.333 676 359 676c99.333 0 174.166-28.833 224.499-86.5s75.5-143.167 75.5-256.5-25.167-198.833-75.5-256.5S458.333-10 359-10c-98.667 0-173.167 28.833-223.5 86.5zM531 124c36 44 54 113.667 54 209 0 94.667-18 164.167-54 208.5S437.667 608 359 608c-78 0-135-22.167-171-66.5S134 427.667 134 333c0-95.333 18-165 54-209s93-66 171-66c78.667 0 136 22 172 66zM327 783h79v-79h-79v79zm-77 102h234v-53H250v53z"/><glyph glyph-name="uni0231" unicode="ȱ" d="M112.5 53C74.167 98.333 55 163.333 55 248c0 86 19.5 150.833 58.5 194.5S209 508 283 508c78 0 136-23.167 174-69.5s57-109.833 57-190.5c0-82.667-20-147.167-60-193.5S357.667-15 285-15c-76.667 0-134.167 22.667-172.5 68zM442 248c0 62.667-12.333 110.667-37 144s-65 50-121 50c-104.667 0-157-64.667-157-194 0-131.333 52.333-197 157-197 105.333 0 158 65.667 158 197zM247 643h79v-79h-79v79zm-77 130h234v-53H170v53z"/><glyph glyph-name="uni0232" unicode="Ȳ" horiz-adv-x="598" d="M333 306V0h-72v306L12 667h87l197-292 198 292h87zM188 769h234v-53H188v53z"/><glyph glyph-name="uni0233" unicode="ȳ" horiz-adv-x="540" d="M505 499L291.003-49.001c-20.667-53.333-44.834-90.666-72.501-111.999s-55.834-32-84.501-32c-16 0-31.667 3-47 9v66c13.333-6 27.666-9 42.999-9 28.667 0 51 10.333 67 31s31 52 45 94L35 499h82L275 92l158 407h72zM158.003 628.999h234v-53h-234v53z"/><glyph glyph-name="uni0237" unicode="ȷ" horiz-adv-x="251" d="M3-126c28 .667 49.334 4.833 64.001 12.5s24.667 18.5 30 32.5 8 32.667 8 56v524h72V-29c0-55.333-14.333-96.5-43-123.5S61.667-193 3-193v67z"/><glyph glyph-name="uni0259" unicode="ə" horiz-adv-x="547" d="M431 446.5c40.667-45 60.998-110.832 60.998-197.499 0-84.667-19.167-148.834-57.5-192.501S342.332-9 272.999-9c-76 0-131.667 24.667-167 74s-52.333 115-51 197h364c0 60-14 106-42 138s-68 48-120 48c-66.667 0-123.667-14.333-171-43v74c48.667 23.333 107 35 175 35 72.667 0 129.334-22.5 170.001-67.5zM372.998 87.501c22.667 20.333 37 56.5 43 108.5h-285c3.333-46.667 16.5-81.5 39.5-104.5s57.167-34.5 102.5-34.5c44 0 77.333 10.167 100 30.5z"/><glyph glyph-name="uni0272" unicode="ɲ" d="M80 459c64.667 32.667 135.001 49 211.001 49 70 0 120.5-15.333 151.5-46s46.5-76.334 46.5-137.001v-325h-72v325c0 78.667-44.667 118-134 118-41.333 0-85-6.667-131-20v-423c0-55.333-14.333-96.5-43-123.5s-72.334-40.5-131.001-40.5v67c28 .667 49.333 4.834 64 12.501S66.667-66 72-52s8 32.667 8 56v455z"/><glyph glyph-name="circumflex" unicode="ˆ" horiz-adv-x="402" d="M172 684h61l80-120h-46l-65 70-65-70H91z"/><glyph glyph-name="caron" unicode="ˇ" horiz-adv-x="406" d="M101 684h56l45-70 45 70h56l-80-120h-41z"/><glyph glyph-name="uni02C9" unicode="ˉ" horiz-adv-x="403" d="M86 629h234v-53H86v53z"/><glyph glyph-name="breve" unicode="˘" horiz-adv-x="428" d="M129.5 574.5c-24.333 19.667-40.501 47.834-48.501 84.501h52c15.333-41.333 43-62 83-62 38.667 0 66.334 20.667 83.001 62h52c-6.667-36.667-22.334-64.834-47.001-84.501s-54-29.5-88-29.5c-33.333 0-62.166 9.833-86.499 29.5z"/><glyph glyph-name="dotaccent" unicode="˙" horiz-adv-x="323" d="M125 643h79v-79h-79v79z"/><glyph glyph-name="ring" unicode="˚" horiz-adv-x="409" d="M119.5 557C103.833 571.667 96 595 96 627s7.833 55.333 23.5 70 41.5 22 77.5 22c35.333 0 61-7.333 77-22s24-38 24-70-8-55.333-24-70-41.667-22-77-22c-36 0-61.833 7.333-77.5 22zm120 32c7.667 7.333 11.5 20 11.5 38s-3.833 30.5-11.5 37.5-21.834 10.5-42.501 10.5c-21.333 0-35.833-3.5-43.5-10.5s-11.5-19.5-11.5-37.5 3.833-30.667 11.5-38 22.167-11 43.5-11c20.667 0 34.834 3.667 42.501 11z"/><glyph glyph-name="ogonek" unicode="˛" horiz-adv-x="347" d="M111.5-151C95.833-136.333 88-116 88-90c0 17.333 6.5 35 19.5 53S138.333-5.333 161 4l78-4c-28-13.333-50.333-27.333-67-42s-25-29-25-43c0-22.667 11.333-34 34-34 18.667 0 37 9 55 27v-63c-21.333-12-41.333-18-60-18-27.333 0-48.833 7.333-64.5 22z"/><glyph glyph-name="tilde" unicode="˜" horiz-adv-x="391" d="M54 544c-2.667 10-3.998 20-3.998 30 0 24.667 7.833 44.5 23.5 59.5s33.5 22.5 53.5 22.5c16 0 30.167-3.167 42.5-9.5s26.833-15.5 43.5-27.5c10.667-8.667 19.667-15.167 27-19.5s15-6.5 23-6.5 14.333 2.667 19 8 7 13 7 23c0 3.333-.667 9-2 17h52c1.333-9.333 2-16.333 2-21 0-24.667-7.833-44.667-23.5-60s-36.5-23-62.5-23c-14.667 0-28.334 3.333-41.001 10S187.667 562.667 173 574c-10.667 8.667-19.5 15-26.5 19s-13.833 6-20.5 6c-8 0-14.667-3.167-20-9.5S98 574 98 562c0-2.667.667-8.667 2-18H54z"/><glyph glyph-name="hungarumlaut" unicode="˝" horiz-adv-x="370" d="M117 679h74l-83-115H60zm120 0h74l-83-115h-48z"/><glyph glyph-name="gravecomb" unicode="̀" horiz-adv-x="0" d="M-173 679h73l57-115h-47z"/><glyph glyph-name="acutecomb" unicode="́" horiz-adv-x="0" d="M-119 679h74l-83-115h-48z"/><glyph glyph-name="uni0302" unicode="̂" horiz-adv-x="0" d="M-230 684h61l80-120h-46l-65 70-65-70h-46z"/><glyph glyph-name="tildecomb" unicode="̃" horiz-adv-x="0" d="M-337 544c-2.667 10-3.998 20-3.998 30 0 24.667 7.833 44.5 23.5 59.5s33.5 22.5 53.5 22.5c16 0 30.167-3.167 42.5-9.5s26.833-15.5 43.5-27.5c10.667-8.667 19.667-15.167 27-19.5s15-6.5 23-6.5 14.333 2.667 19 8 7 13 7 23c0 3.333-.667 9-2 17h52c1.333-9.333 2-16.333 2-21 0-24.667-7.833-44.667-23.5-60s-36.5-23-62.5-23c-14.667 0-28.334 3.333-41.001 10s-26.334 15.667-41.001 27c-10.667 8.667-19.5 15-26.5 19s-13.833 6-20.5 6c-8 0-14.667-3.167-20-9.5s-8-15.5-8-27.5c0-2.667.667-8.667 2-18h-46z"/><glyph glyph-name="uni0304" unicode="̄" horiz-adv-x="0" d="M-317 629h234v-53h-234v53z"/><glyph glyph-name="uni0306" unicode="̆" horiz-adv-x="0" d="M-298.5 574.5c-24.333 19.667-40.501 47.834-48.501 84.501h52c15.333-41.333 43-62 83-62 38.667 0 66.334 20.667 83.001 62h52c-6.667-36.667-22.334-64.834-47.001-84.501s-54-29.5-88-29.5c-33.333 0-62.166 9.833-86.499 29.5z"/><glyph glyph-name="uni0307" unicode="̇" horiz-adv-x="0" d="M-198 643h79v-79h-79v79z"/><glyph glyph-name="uni0308" unicode="̈" horiz-adv-x="0" d="M-306 643h79v-79h-79v79zm148 0h79v-79h-79v79z"/><glyph glyph-name="hookabovecomb" unicode="̉" horiz-adv-x="0" d="M-142 614c12.667.667 22.166 3.333 28.499 8s9.5 10 9.5 16c0 8.667-4.167 15.167-12.5 19.5S-136.667 664-152 664c-7.333 0-16.333-.667-27-2v43c10 2 20.333 3 31 3 25.333 0 47-5.333 65-16s27-28 27-52c0-13.333-4.333-24.833-13-34.5s-22-16.167-40-19.5v-24h-33v52z"/><glyph glyph-name="uni030A" unicode="̊" horiz-adv-x="0" d="M-289.5 557c-15.667 14.667-23.5 38-23.5 70s7.833 55.333 23.5 70 41.5 22 77.5 22c35.333 0 61-7.333 77-22s24-38 24-70-8-55.333-24-70-41.667-22-77-22c-36 0-61.833 7.333-77.5 22zm120 32c7.667 7.333 11.5 20 11.5 38s-3.833 30.5-11.5 37.5-21.834 10.5-42.501 10.5c-21.333 0-35.833-3.5-43.5-10.5s-11.5-19.5-11.5-37.5 3.833-30.667 11.5-38 22.167-11 43.5-11c20.667 0 34.834 3.667 42.501 11z"/><glyph glyph-name="uni030B" unicode="̋" horiz-adv-x="0" d="M-253 679h74l-83-115h-48zm120 0h74l-83-115h-48z"/><glyph glyph-name="uni030C" unicode="̌" horiz-adv-x="0" d="M-305 684h56l45-70 45 70h56l-80-120h-41z"/><glyph glyph-name="uni030F" unicode="̏" horiz-adv-x="0" d="M-293 679h73l57-115h-47zm134 0h73l57-115h-47z"/><glyph glyph-name="uni0311" unicode="̑" horiz-adv-x="0" d="M-124 619.5c24.667-19.667 40.335-47.834 47.002-84.501h-52c-16.667 41.333-44.334 62-83.001 62-40 0-67.667-20.667-83-62h-52c8 36.667 24.167 64.834 48.5 84.501S-245.333 649-212 649c34 0 63.333-9.833 88-29.5z"/><glyph glyph-name="uni031B" unicode="̛" horiz-adv-x="0" d="M-234 476c18.667 0 35.668 6.833 51.001 20.5s23 29.5 23 47.5v26h54v-28c0-36-12.333-64.667-37-86s-54.334-32-89.001-32z"/><glyph glyph-name="dotbelowcmb" unicode="̣" horiz-adv-x="0" d="M-129-50h79v-79h-79v79z"/><glyph glyph-name="uni0324" unicode="̤" horiz-adv-x="0" d="M-306-42h79v-79h-79v79zm148 0h79v-79h-79v79z"/><glyph glyph-name="uni0326" unicode="̦" horiz-adv-x="0" d="M-185-139c16 6.667 26.667 18.166 32 34.499s8 34.833 8 55.5h60c0-43.333-10-76.666-30-99.999s-43.333-38-70-44v54z"/><glyph glyph-name="uni0327" unicode="̧" horiz-adv-x="0" d="M-115-5h57l-63-115h-76z"/><glyph glyph-name="uni0328" unicode="̨" horiz-adv-x="0" d="M-235.5-151c-15.667 14.667-23.5 35-23.5 61 0 17.333 6.5 35 19.5 53S-208.667-5.333-186 4l78-4c-28-13.333-50.333-27.333-67-42s-25-29-25-43c0-22.667 11.333-34 34-34 18.667 0 37 9 55 27v-63c-21.333-12-41.333-18-60-18-27.333 0-48.833 7.333-64.5 22z"/><glyph glyph-name="uni032E" unicode="̮" horiz-adv-x="0" d="M-298.5-110.5c-24.333 19.667-40.501 47.834-48.501 84.501h52c15.333-41.333 43-62 83-62 38.667 0 66.334 20.667 83.001 62h52c-6.667-36.667-22.334-64.834-47.001-84.501s-54-29.5-88-29.5c-33.333 0-62.166 9.833-86.499 29.5z"/><glyph glyph-name="uni0331" unicode="̱" horiz-adv-x="0" d="M-317-66h234v-53h-234v53z"/><glyph glyph-name="uni0335" unicode="̵" horiz-adv-x="0" d="M-304 288h244v-53h-244v53z"/><glyph glyph-name="pi" unicode="π" horiz-adv-x="622" d="M142 433H33v66h556v-66H480V0h-66v433H208V0h-66v433z"/><glyph glyph-name="uni1E09" unicode="ḉ" horiz-adv-x="492" d="M288 564h-48l57 115h74zM167.5 394c-27-30-40.5-77.999-40.5-143.999 0-66.667 13.5-114.834 40.5-144.501S237.667 61 297 61c50 0 96.667 9.333 140 28V19C397 3.667 356-5 314-7l-62-113h-76L257-7c-58.667 5.333-107 27.5-145 66.5S55 162 55 250c0 96 22.5 163 67.5 201S223 508 289 508c50 0 99.333-9.333 148-28v-69c-45.333 18.667-92 28-140 28-59.333 0-102.5-15-129.5-45z"/><glyph glyph-name="uni1E0F" unicode="ḏ" d="M489 710l-.001-624c0-34-21.5-59.333-64.5-76s-89.833-25-140.5-25C222.666-15 169.333 4.833 124 44.5S55.667 154.667 55 256c0 78.667 19.167 140.167 57.5 184.5S207.666 507 282.999 507c17.333 0 38.833-2.833 64.5-8.5S396.333 486 417 478v232h72zm-72.001-304c-20 11.333-41.832 20-65.499 26s-46.5 9-68.5 9c-52 0-90.333-16.5-115-49.5s-37-78.167-37-135.5c0-62.667 11.333-112.5 34-149.5S228.667 51 288 51c35.333 0 65.666 4 90.999 12s38 18 38 30v313zM179-66h234v-53H179v53z"/><glyph glyph-name="uni1E14" unicode="Ḕ" horiz-adv-x="581" d="M85 667h421v-68H157V369h307v-70H157V68h349V0H85v667zm105 102h234v-53H190v53zm15 169h74l57-115h-48z"/><glyph glyph-name="uni1E15" unicode="ḕ" horiz-adv-x="547" d="M441 434c35.333-49.333 52.335-115.001 51.002-197.001h-364c0-60 14-106 42-138s68-48 120-48c66.667 0 123.667 14.333 171 43v-74c-48.667-23.333-107-35-175-35-72.667 0-129.334 22.5-170.001 67.5s-61 110.833-61 197.5c0 84.667 19.167 148.834 57.5 192.501S204.667 508 274 508c76 0 131.667-24.667 167-74zm-266.998-22.501c-22.667-20.333-37-56.5-43-108.5h285c-3.333 46.667-16.5 81.5-39.5 104.5s-57.167 34.5-102.5 34.5c-44 0-77.333-10.167-100-30.5zm-8 217.5h234v-53h-234v53zm12 180h73l57-115h-47z"/><glyph glyph-name="uni1E16" unicode="Ḗ" horiz-adv-x="581" d="M85 667h421v-68H157V369h307v-70H157V68h349V0H85v667zm105 102h234v-53H190v53zm156 180h74l-83-115h-48z"/><glyph glyph-name="uni1E17" unicode="ḗ" horiz-adv-x="547" d="M441 434c35.333-49.333 52.335-115.001 51.002-197.001h-364c0-60 14-106 42-138s68-48 120-48c66.667 0 123.667 14.333 171 43v-74c-48.667-23.333-107-35-175-35-72.667 0-129.334 22.5-170.001 67.5s-61 110.833-61 197.5c0 84.667 19.167 148.834 57.5 192.501S204.667 508 274 508c76 0 131.667-24.667 167-74zm-266.998-22.501c-22.667-20.333-37-56.5-43-108.5h285c-3.333 46.667-16.5 81.5-39.5 104.5s-57.167 34.5-102.5 34.5c-44 0-77.333-10.167-100-30.5zm-8 217.5h234v-53h-234v53zm148 180h74l-83-115h-48z"/><glyph glyph-name="uni1E1C" unicode="Ḝ" horiz-adv-x="581" d="M220.5 724.5c-24.333 19.667-40.501 47.834-48.501 84.501h52c15.333-41.333 43-62 83-62 38.667 0 66.334 20.667 83.001 62h52c-6.667-36.667-22.334-64.834-47.001-84.501s-54-29.5-88-29.5c-33.333 0-62.166 9.833-86.499 29.5zM156.999 599V369h307v-70h-307V68h349V0h-159l-60-110h-76l78 110h-204v667h421v-68h-349z"/><glyph glyph-name="uni1E1D" unicode="ḝ" horiz-adv-x="547" d="M196.5 574.5c-24.333 19.667-40.501 47.834-48.501 84.501h52c15.333-41.333 43-62 83-62 38.667 0 66.334 20.667 83.001 62h52c-6.667-36.667-22.334-64.834-47.001-84.501s-54-29.5-88-29.5c-33.333 0-62.166 9.833-86.499 29.5zM440.999 434c35.333-49.333 52.335-115.002 51.002-197.002h-364c0-60 14-106 42-138s68-48 120-48c66.667 0 123.667 14.333 171 43v-74c-32-15.333-69.667-25.666-113-30.999l-59-109h-76l75 105h-2c-72.667 0-129.334 22.5-170.001 67.5s-61 110.833-61 197.5c0 84.667 19.167 148.834 57.5 192.501S204.666 508 273.999 508c76 0 131.667-24.667 167-74zm-266.998-22.502c-22.667-20.333-37-56.5-43-108.5h285c-3.333 46.667-16.5 81.5-39.5 104.5s-57.167 34.5-102.5 34.5c-44 0-77.333-10.167-100-30.5z"/><glyph glyph-name="uni1E1E" unicode="Ḟ" horiz-adv-x="536" d="M85 667h409v-68H157V369h296v-70H157V0H85v667zm157 116h79v-79h-79v79z"/><glyph glyph-name="uni1E20" unicode="Ḡ" horiz-adv-x="687" d="M137.5 77c-51.667 58-77.498 143.668-77.498 257.001S85.835 532.667 137.502 590s128.834 86 231.501 86c76 0 146-15 210-45v-75c-36.667 16-71.334 28.667-104.001 38s-65.334 14-98.001 14c-84.667 0-146.667-22.167-186-66.5s-59-113.5-59-207.5c0-94.667 19.667-164.167 59-208.5s101.333-66.5 186-66.5c53.333 0 104.333 8 153 24v190h-161v70h233V42c-72-34.667-149.667-52-233-52C266.334-10 189.167 19 137.5 77zm109.502 692.001h234v-53h-234v53z"/><glyph glyph-name="uni1E21" unicode="ḡ" d="M433.5 476.5c37-20.333 55.499-51.503 55.499-93.503v-404c0-49.333-16-91.166-48-125.499s-88.333-51.5-169-51.5c-22.667 0-43.834 1.833-63.501 5.5s-36.667 7.334-51 11.001-23.5 5.834-27.5 6.501v68c26-7.333 48.833-13 68.5-17s41.5-6 65.5-6c60.667 0 101.334 10 122.001 30s31 45.667 31 77v37C396.332 6 373.165-.833 347.498-6.5s-47.167-8.5-64.5-8.5c-75.333 0-132.166 22.167-170.499 66.5s-57.5 105.833-57.5 184.5C55.666 338 79.333 408.667 126 448s104 59 172 59c53.333 0 98.5-10.167 135.5-30.5zM167.999 100.497c24.667-33 63-49.5 115-49.5 22 0 44.833 3 68.5 9s45.5 14.667 65.5 26v287c0 26-10.167 43.833-30.5 53.5s-47.833 14.5-82.5 14.5c-66.667 0-112.167-18.333-136.5-55s-36.5-86.667-36.5-150c0-57.333 12.333-102.5 37-135.5zm26 528.5h234v-53h-234v53z"/><glyph glyph-name="uni1E2A" unicode="Ḫ" horiz-adv-x="669" d="M85 667h72V367h355v300h72V0h-72v299H157V0H85v667zm163.5-778.5c-24.333 19.667-40.501 47.834-48.501 84.501h52c15.333-41.333 43-62 83-62 38.667 0 66.334 20.667 83.001 62h52c-6.667-36.667-22.334-64.834-47.001-84.501s-54-29.5-88-29.5c-33.333 0-62.166 9.833-86.499 29.5z"/><glyph glyph-name="uni1E2B" unicode="ḫ" horiz-adv-x="575" d="M446 455.5c32.667-35 49.001-88.166 49.001-159.499v-296h-72v296c0 46.667-10.833 82.667-32.5 108s-53.5 38-95.5 38c-46.667 0-94.334-13.333-143.001-40v-402H80v720h72v-254c24.667 13.333 50.167 23.666 76.5 30.999s51.166 11 74.499 11c62.667 0 110.334-17.5 143.001-52.5zM197.501-110.499C173.168-90.832 157-62.665 149-25.998h52c15.333-41.333 43-62 83-62 38.667 0 66.334 20.667 83.001 62h52c-6.667-36.667-22.334-64.834-47.001-84.501s-54-29.5-88-29.5c-33.333 0-62.166 9.833-86.499 29.5z"/><glyph glyph-name="uni1E2E" unicode="Ḯ" horiz-adv-x="242" d="M85 667h72V0H85v667zM7 805h79v-79H7v79zm148 0h79v-79h-79v79zm5 210h74l-83-115h-48z"/><glyph glyph-name="uni1E2F" unicode="ḯ" horiz-adv-x="232" d="M80 499h72V0H80v499zM2 643h79v-79H2v79zm148 0h79v-79h-79v79zm-3 180h74l-83-115H90z"/><glyph glyph-name="uni1E36" unicode="Ḷ" horiz-adv-x="523" d="M85 667h72V70h341V0H85v667zM229-50h79v-79h-79v79z"/><glyph glyph-name="uni1E37" unicode="ḷ" horiz-adv-x="232" d="M80 0v689h72V0H80zm-4-50h79v-79H76v79z"/><glyph glyph-name="uni1E3A" unicode="Ḻ" horiz-adv-x="523" d="M85 667h72V70h341V0H85v667zm67-733h234v-53H152v53z"/><glyph glyph-name="uni1E3B" unicode="ḻ" horiz-adv-x="232" d="M80 0v689h72V0H80zM-1-66h234v-53H-1v53z"/><glyph glyph-name="uni1E42" unicode="Ṃ" horiz-adv-x="785" d="M700 667V0h-72v550L385 209 157 548V0H85v667h78l226-347 233 347h78zM353-50h79v-79h-79v79z"/><glyph glyph-name="uni1E43" unicode="ṃ" horiz-adv-x="883" d="M756.5 462c31-30.667 46.499-76.333 46.499-137V0h-72v325c0 78.667-44.667 118-134 118-42.667 0-83-11.333-121-34 8.667-23.333 13-51.333 13-84V0h-72v325c0 78.667-44.667 118-134 118-41.333 0-85-6.667-131-20V0h-72v459c64.667 32.667 135 49 211 49 64.667 0 113.334-13.667 146.001-41 50 27.333 106 41 168 41 70 0 120.5-15.333 151.5-46zM401.999-49.999h79v-79h-79v79z"/><glyph glyph-name="uni1E45" unicode="ṅ" d="M291 508c70 0 120.5-15.332 151.5-45.999S489 385.667 489 325V0h-72v325c0 78.667-44.667 118-134 118-41.333 0-85-6.667-131-20V0H80v459c64.667 32.667 135 49 211 49zm-45 135.001h79v-79h-79v79z"/><glyph glyph-name="uni1E46" unicode="Ṇ" horiz-adv-x="722" d="M637 667V0h-81L157 562V0H85v667h82l398-562v562h72zM322-50h79v-79h-79v79z"/><glyph glyph-name="uni1E47" unicode="ṇ" d="M291 508c70 0 120.5-15.332 151.5-45.999S489 385.667 489 325V0h-72v325c0 78.667-44.667 118-134 118-41.333 0-85-6.667-131-20V0H80v459c64.667 32.667 135 49 211 49zM246-49.999h79v-79h-79v79z"/><glyph glyph-name="uni1E48" unicode="Ṉ" horiz-adv-x="722" d="M637 667V0h-81L157 562V0H85v667h82l398-562v562h72zM245-66h234v-53H245v53z"/><glyph glyph-name="uni1E49" unicode="ṉ" d="M291 508c70 0 120.5-15.332 151.5-45.999S489 385.667 489 325V0h-72v325c0 78.667-44.667 118-134 118-41.333 0-85-6.667-131-20V0H80v459c64.667 32.667 135 49 211 49zM169-65.999h234v-53H169v53z"/><glyph glyph-name="uni1E4C" unicode="Ṍ" horiz-adv-x="719" d="M135.5 76.5C85.167 134.167 60 219.667 60 333s25.167 198.833 75.5 256.5S260.333 676 359 676c99.333 0 174.166-28.833 224.499-86.5s75.5-143.167 75.5-256.5-25.167-198.833-75.5-256.5S458.333-10 359-10c-98.667 0-173.167 28.833-223.5 86.5zM531 124c36 44 54 113.667 54 209 0 94.667-18 164.167-54 208.5S437.667 608 359 608c-78 0-135-22.167-171-66.5S134 427.667 134 333c0-95.333 18-165 54-209s93-66 171-66c78.667 0 136 22 172 66zM231 727c-2.667 10-3.998 20-3.998 30 0 24.667 7.833 44.5 23.5 59.5s33.5 22.5 53.5 22.5c16 0 30.167-3.167 42.5-9.5s26.833-15.5 43.5-27.5c10.667-8.667 19.667-15.167 27-19.5s15-6.5 23-6.5 14.333 2.667 19 8 7 13 7 23c0 3.333-.667 9-2 17h52c1.333-9.333 2-16.333 2-21 0-24.667-7.833-44.667-23.5-60s-36.5-23-62.5-23c-14.667 0-28.334 3.333-41.001 10S364.667 745.667 350 757c-10.667 8.667-19.5 15-26.5 19s-13.833 6-20.5 6c-8 0-14.667-3.167-20-9.5s-8-15.5-8-27.5c0-2.667.667-8.667 2-18h-46zm175.002 303h74l-83-115h-48z"/><glyph glyph-name="uni1E4D" unicode="ṍ" d="M112.5 53C74.167 98.333 55 163.333 55 248c0 86 19.5 150.833 58.5 194.5S209 508 283 508c78 0 136-23.167 174-69.5s57-109.833 57-190.5c0-82.667-20-147.167-60-193.5S357.667-15 285-15c-76.667 0-134.167 22.667-172.5 68zM442 248c0 62.667-12.333 110.667-37 144s-65 50-121 50c-104.667 0-157-64.667-157-194 0-131.333 52.333-197 157-197 105.333 0 158 65.667 158 197zM146 544c-2.667 10-3.998 20-3.998 30 0 24.667 7.833 44.5 23.5 59.5s33.5 22.5 53.5 22.5c16 0 30.167-3.167 42.5-9.5s26.833-15.5 43.5-27.5c10.667-8.667 19.667-15.167 27-19.5s15-6.5 23-6.5 14.333 2.667 19 8 7 13 7 23c0 3.333-.667 9-2 17h52c1.333-9.333 2-16.333 2-21 0-24.667-7.833-44.667-23.5-60s-36.5-23-62.5-23c-14.667 0-28.334 3.333-41.001 10S279.667 562.667 265 574c-10.667 8.667-19.5 15-26.5 19s-13.833 6-20.5 6c-8 0-14.667-3.167-20-9.5s-8-15.5-8-27.5c0-2.667.667-8.667 2-18h-46zm172.002 294h74l-83-115h-48z"/><glyph glyph-name="uni1E4E" unicode="Ṏ" horiz-adv-x="719" d="M135.5 76.5C85.167 134.167 60 219.667 60 333s25.167 198.833 75.5 256.5S260.333 676 359 676c99.333 0 174.166-28.833 224.499-86.5s75.5-143.167 75.5-256.5-25.167-198.833-75.5-256.5S458.333-10 359-10c-98.667 0-173.167 28.833-223.5 86.5zM531 124c36 44 54 113.667 54 209 0 94.667-18 164.167-54 208.5S437.667 608 359 608c-78 0-135-22.167-171-66.5S134 427.667 134 333c0-95.333 18-165 54-209s93-66 171-66c78.667 0 136 22 172 66zM231 727c-2.667 10-3.998 20-3.998 30 0 24.667 7.833 44.5 23.5 59.5s33.5 22.5 53.5 22.5c16 0 30.167-3.167 42.5-9.5s26.833-15.5 43.5-27.5c10.667-8.667 19.667-15.167 27-19.5s15-6.5 23-6.5 14.333 2.667 19 8 7 13 7 23c0 3.333-.667 9-2 17h52c1.333-9.333 2-16.333 2-21 0-24.667-7.833-44.667-23.5-60s-36.5-23-62.5-23c-14.667 0-28.334 3.333-41.001 10S364.667 745.667 350 757c-10.667 8.667-19.5 15-26.5 19s-13.833 6-20.5 6c-8 0-14.667-3.167-20-9.5s-8-15.5-8-27.5c0-2.667.667-8.667 2-18h-46zm22.002 261h79v-79h-79v79zm148 0h79v-79h-79v79z"/><glyph glyph-name="uni1E4F" unicode="ṏ" d="M112.5 53C74.167 98.333 55 163.333 55 248c0 86 19.5 150.833 58.5 194.5S209 508 283 508c78 0 136-23.167 174-69.5s57-109.833 57-190.5c0-82.667-20-147.167-60-193.5S357.667-15 285-15c-76.667 0-134.167 22.667-172.5 68zM442 248c0 62.667-12.333 110.667-37 144s-65 50-121 50c-104.667 0-157-64.667-157-194 0-131.333 52.333-197 157-197 105.333 0 158 65.667 158 197zM146 544c-2.667 10-3.998 20-3.998 30 0 24.667 7.833 44.5 23.5 59.5s33.5 22.5 53.5 22.5c16 0 30.167-3.167 42.5-9.5s26.833-15.5 43.5-27.5c10.667-8.667 19.667-15.167 27-19.5s15-6.5 23-6.5 14.333 2.667 19 8 7 13 7 23c0 3.333-.667 9-2 17h52c1.333-9.333 2-16.333 2-21 0-24.667-7.833-44.667-23.5-60s-36.5-23-62.5-23c-14.667 0-28.334 3.333-41.001 10S279.667 562.667 265 574c-10.667 8.667-19.5 15-26.5 19s-13.833 6-20.5 6c-8 0-14.667-3.167-20-9.5s-8-15.5-8-27.5c0-2.667.667-8.667 2-18h-46zm27.002 258h79v-79h-79v79zm148 0h79v-79h-79v79z"/><glyph glyph-name="uni1E50" unicode="Ṑ" horiz-adv-x="719" d="M135.5 76.5C85.167 134.167 60 219.667 60 333s25.167 198.833 75.5 256.5S260.333 676 359 676c99.333 0 174.166-28.833 224.499-86.5s75.5-143.167 75.5-256.5-25.167-198.833-75.5-256.5S458.333-10 359-10c-98.667 0-173.167 28.833-223.5 86.5zM531 124c36 44 54 113.667 54 209 0 94.667-18 164.167-54 208.5S437.667 608 359 608c-78 0-135-22.167-171-66.5S134 427.667 134 333c0-95.333 18-165 54-209s93-66 171-66c78.667 0 136 22 172 66zM250 769h234v-53H250v53zm15 169h74l57-115h-48z"/><glyph glyph-name="uni1E51" unicode="ṑ" d="M112.5 53C74.167 98.333 55 163.333 55 248c0 86 19.5 150.833 58.5 194.5S209 508 283 508c78 0 136-23.167 174-69.5s57-109.833 57-190.5c0-82.667-20-147.167-60-193.5S357.667-15 285-15c-76.667 0-134.167 22.667-172.5 68zM442 248c0 62.667-12.333 110.667-37 144s-65 50-121 50c-104.667 0-157-64.667-157-194 0-131.333 52.333-197 157-197 105.333 0 158 65.667 158 197zM170 629h234v-53H170v53zm12 180h73l57-115h-47z"/><glyph glyph-name="uni1E52" unicode="Ṓ" horiz-adv-x="719" d="M135.5 76.5C85.167 134.167 60 219.667 60 333s25.167 198.833 75.5 256.5S260.333 676 359 676c99.333 0 174.166-28.833 224.499-86.5s75.5-143.167 75.5-256.5-25.167-198.833-75.5-256.5S458.333-10 359-10c-98.667 0-173.167 28.833-223.5 86.5zM531 124c36 44 54 113.667 54 209 0 94.667-18 164.167-54 208.5S437.667 608 359 608c-78 0-135-22.167-171-66.5S134 427.667 134 333c0-95.333 18-165 54-209s93-66 171-66c78.667 0 136 22 172 66zM250 769h234v-53H250v53zm156 180h74l-83-115h-48z"/><glyph glyph-name="uni1E53" unicode="ṓ" d="M112.5 53C74.167 98.333 55 163.333 55 248c0 86 19.5 150.833 58.5 194.5S209 508 283 508c78 0 136-23.167 174-69.5s57-109.833 57-190.5c0-82.667-20-147.167-60-193.5S357.667-15 285-15c-76.667 0-134.167 22.667-172.5 68zM442 248c0 62.667-12.333 110.667-37 144s-65 50-121 50c-104.667 0-157-64.667-157-194 0-131.333 52.333-197 157-197 105.333 0 158 65.667 158 197zM170 629h234v-53H170v53zm148 180h74l-83-115h-48z"/><glyph glyph-name="uni1E5E" unicode="Ṟ" horiz-adv-x="631" d="M501 0L327 268.999H157v-269H85v667h274c64.667 0 113.667-16.333 147-49s50-81 50-145c0-51.333-13.667-94.666-41-129.999s-64-57.333-110-66L586 0h-85zM157 336.999h169c54.667 0 94.667 11 120 33s38 54.667 38 98c0 42.667-10 75.167-30 97.5s-54.333 33.5-103 33.5H157v-262zm42-403h234v-53H199v53z"/><glyph glyph-name="uni1E5F" unicode="ṟ" horiz-adv-x="377" d="M80 459c25.333 10.667 58.831 21.5 100.498 32.5S265.332 508 309.999 508c6.667 0 17.334-2 32.001-6v-64c-16 2-32 3-48 3-22 0-42.333-1.333-61-4s-45.667-7-81-13V0H80v459zM-19.002-66h234v-53h-234v53z"/><glyph glyph-name="uni1E60" unicode="Ṡ" horiz-adv-x="555" d="M164 3c-27.333 8.667-60.334 23.33-99.001 43.997v78c24-20 54.167-36.5 90.5-49.5s76.833-19.5 121.5-19.5c48.667 0 85 10.333 109 31s36 48.667 36 84c0 26-7 47.5-21 64.5s-30.667 30.333-50 40-48.333 21.834-87 36.501c-41.333 14-74.166 27.333-98.499 40S120.334 383.332 103.001 408s-26 57.334-26 98.001c0 27.333 6.833 54 20.5 80s35.667 47.667 66 65 69.5 26 117.5 26c35.333 0 64.166-3.333 86.499-10s51.833-19 88.5-37v-74l-37.5 21.5c-20.333 11.667-41.333 20.167-63 25.5s-45.167 8-70.5 8c-46 0-80-9.5-102-28.5s-33-42.833-33-71.5c0-26 5.833-47 17.5-63s27.334-29 47.001-39 47.5-21 83.5-33c41.333-14 75.166-27.833 101.499-41.5s48.833-33.167 67.5-58.5 28-57.666 28-96.999c0-52.667-17.5-97.334-52.5-134S351.333-10 274-10c-46 0-82.667 4.332-110 13zm74.999 779.996h79v-79h-79v79z"/><glyph glyph-name="uni1E61" unicode="ṡ" horiz-adv-x="456" d="M134-5c-24 6.667-50.335 17.331-79.002 31.998v76c34-19.333 61.833-32.833 83.5-40.5s47.5-11.5 77.5-11.5c33.333 0 60.5 7.333 81.5 22s31.5 33.667 31.5 57c0 20.667-6.333 36.167-19 46.5s-32.667 20.833-60 31.5l-26 11c-38 10.667-67.5 20.334-88.5 29.001s-39.333 22.334-55 41.001-23.5 44-23.5 76 8.333 58.667 25 80 38.334 37.166 65.001 47.499 54.667 15.5 84 15.5c26.667 0 49.167-3 67.5-9s43.5-16 75.5-30v-72c-33.333 16.667-58.833 28.334-76.5 35.001s-38.5 10-62.5 10c-29.333 0-54.333-5.833-75-17.5s-31-28.167-31-49.5c0-17.333 5.167-31.5 15.5-42.5s23.333-19.667 39-26 36.834-13.166 63.501-20.499c33.333-10.667 59.833-20.334 79.5-29.001s37-22.5 52-41.5S401 171 401 139c0-34-8.667-62.5-26-85.5S335.167 13.333 307.5 2 251-15 221-15c-34 0-63 3.333-87 10zm58.998 647.997h79v-79h-79v79z"/><glyph glyph-name="uni1E62" unicode="Ṣ" horiz-adv-x="555" d="M164 3c-27.333 8.667-60.334 23.33-99.001 43.997v78c24-20 54.167-36.5 90.5-49.5s76.833-19.5 121.5-19.5c48.667 0 85 10.333 109 31s36 48.667 36 84c0 26-7 47.5-21 64.5s-30.667 30.333-50 40-48.333 21.834-87 36.501c-41.333 14-74.166 27.333-98.499 40S120.334 383.332 103.001 408s-26 57.334-26 98.001c0 27.333 6.833 54 20.5 80s35.667 47.667 66 65 69.5 26 117.5 26c35.333 0 64.166-3.333 86.499-10s51.833-19 88.5-37v-74l-37.5 21.5c-20.333 11.667-41.333 20.167-63 25.5s-45.167 8-70.5 8c-46 0-80-9.5-102-28.5s-33-42.833-33-71.5c0-26 5.833-47 17.5-63s27.334-29 47.001-39 47.5-21 83.5-33c41.333-14 75.166-27.833 101.499-41.5s48.833-33.167 67.5-58.5 28-57.666 28-96.999c0-52.667-17.5-97.334-52.5-134S351.333-10 274-10c-46 0-82.667 4.332-110 13zm74.999-53.004h79v-79h-79v79z"/><glyph glyph-name="uni1E63" unicode="ṣ" horiz-adv-x="456" d="M134-5c-24 6.667-50.335 17.331-79.002 31.998v76c34-19.333 61.833-32.833 83.5-40.5s47.5-11.5 77.5-11.5c33.333 0 60.5 7.333 81.5 22s31.5 33.667 31.5 57c0 20.667-6.333 36.167-19 46.5s-32.667 20.833-60 31.5l-26 11c-38 10.667-67.5 20.334-88.5 29.001s-39.333 22.334-55 41.001-23.5 44-23.5 76 8.333 58.667 25 80 38.334 37.166 65.001 47.499 54.667 15.5 84 15.5c26.667 0 49.167-3 67.5-9s43.5-16 75.5-30v-72c-33.333 16.667-58.833 28.334-76.5 35.001s-38.5 10-62.5 10c-29.333 0-54.333-5.833-75-17.5s-31-28.167-31-49.5c0-17.333 5.167-31.5 15.5-42.5s23.333-19.667 39-26 36.834-13.166 63.501-20.499c33.333-10.667 59.833-20.334 79.5-29.001s37-22.5 52-41.5S401 171 401 139c0-34-8.667-62.5-26-85.5S335.167 13.333 307.5 2 251-15 221-15c-34 0-63 3.333-87 10zm28.998-45.003h79v-79h-79v79z"/><glyph glyph-name="uni1E64" unicode="Ṥ" horiz-adv-x="555" d="M164 3c-27.333 8.667-60.334 23.33-99.001 43.997v78c24-20 54.167-36.5 90.5-49.5s76.833-19.5 121.5-19.5c48.667 0 85 10.333 109 31s36 48.667 36 84c0 26-7 47.5-21 64.5s-30.667 30.333-50 40-48.333 21.834-87 36.501c-41.333 14-74.166 27.333-98.499 40S120.334 383.332 103.001 408s-26 57.334-26 98.001c0 27.333 6.833 54 20.5 80s35.667 47.667 66 65 69.5 26 117.5 26c35.333 0 64.166-3.333 86.499-10s51.833-19 88.5-37v-74l-37.5 21.5c-20.333 11.667-41.333 20.167-63 25.5s-45.167 8-70.5 8c-46 0-80-9.5-102-28.5s-33-42.833-33-71.5c0-26 5.833-47 17.5-63s27.334-29 47.001-39 47.5-21 83.5-33c41.333-14 75.166-27.833 101.499-41.5s48.833-33.167 67.5-58.5 28-57.666 28-96.999c0-52.667-17.5-97.334-52.5-134S351.333-10 274-10c-46 0-82.667 4.332-110 13zm183.999 843.996h74l-83-115h-48zm-152-33h79v-79h-79v79z"/><glyph glyph-name="uni1E65" unicode="ṥ" horiz-adv-x="456" d="M134-5c-24 6.667-50.335 17.331-79.002 31.998v76c34-19.333 61.833-32.833 83.5-40.5s47.5-11.5 77.5-11.5c33.333 0 60.5 7.333 81.5 22s31.5 33.667 31.5 57c0 20.667-6.333 36.167-19 46.5s-32.667 20.833-60 31.5l-26 11c-38 10.667-67.5 20.334-88.5 29.001s-39.333 22.334-55 41.001-23.5 44-23.5 76 8.333 58.667 25 80 38.334 37.166 65.001 47.499 54.667 15.5 84 15.5c26.667 0 49.167-3 67.5-9s43.5-16 75.5-30v-72c-33.333 16.667-58.833 28.334-76.5 35.001s-38.5 10-62.5 10c-29.333 0-54.333-5.833-75-17.5s-31-28.167-31-49.5c0-17.333 5.167-31.5 15.5-42.5s23.333-19.667 39-26 36.834-13.166 63.501-20.499c33.333-10.667 59.833-20.334 79.5-29.001s37-22.5 52-41.5S401 171 401 139c0-34-8.667-62.5-26-85.5S335.167 13.333 307.5 2 251-15 221-15c-34 0-63 3.333-87 10zm129.998 683.997h74l-83-115h-48zm-31 144h79v-79h-79v79z"/><glyph glyph-name="uni1E66" unicode="Ṧ" horiz-adv-x="555" d="M164 3c-27.333 8.667-60.334 23.33-99.001 43.997v78c24-20 54.167-36.5 90.5-49.5s76.833-19.5 121.5-19.5c48.667 0 85 10.333 109 31s36 48.667 36 84c0 26-7 47.5-21 64.5s-30.667 30.333-50 40-48.333 21.834-87 36.501c-41.333 14-74.166 27.333-98.499 40S120.334 383.332 103.001 408s-26 57.334-26 98.001c0 27.333 6.833 54 20.5 80s35.667 47.667 66 65 69.5 26 117.5 26c35.333 0 64.166-3.333 86.499-10s51.833-19 88.5-37v-74l-37.5 21.5c-20.333 11.667-41.333 20.167-63 25.5s-45.167 8-70.5 8c-46 0-80-9.5-102-28.5s-33-42.833-33-71.5c0-26 5.833-47 17.5-63s27.334-29 47.001-39 47.5-21 83.5-33c41.333-14 75.166-27.833 101.499-41.5s48.833-33.167 67.5-58.5 28-57.666 28-96.999c0-52.667-17.5-97.334-52.5-134S351.333-10 274-10c-46 0-82.667 4.332-110 13zm13.999 820.996h56l45-70 45 70h56l-80-120h-41zm61 116h79v-79h-79v79z"/><glyph glyph-name="uni1E67" unicode="ṧ" horiz-adv-x="456" d="M134-5c-24 6.667-50.335 17.331-79.002 31.998v76c34-19.333 61.833-32.833 83.5-40.5s47.5-11.5 77.5-11.5c33.333 0 60.5 7.333 81.5 22s31.5 33.667 31.5 57c0 20.667-6.333 36.167-19 46.5s-32.667 20.833-60 31.5l-26 11c-38 10.667-67.5 20.334-88.5 29.001s-39.333 22.334-55 41.001-23.5 44-23.5 76 8.333 58.667 25 80 38.334 37.166 65.001 47.499 54.667 15.5 84 15.5c26.667 0 49.167-3 67.5-9s43.5-16 75.5-30v-72c-33.333 16.667-58.833 28.334-76.5 35.001s-38.5 10-62.5 10c-29.333 0-54.333-5.833-75-17.5s-31-28.167-31-49.5c0-17.333 5.167-31.5 15.5-42.5s23.333-19.667 39-26 36.834-13.166 63.501-20.499c33.333-10.667 59.833-20.334 79.5-29.001s37-22.5 52-41.5S401 171 401 139c0-34-8.667-62.5-26-85.5S335.167 13.333 307.5 2 251-15 221-15c-34 0-63 3.333-87 10zm-2.002 688.997h56l45-70 45 70h56l-80-120h-41zm61 144h79v-79h-79v79z"/><glyph glyph-name="uni1E68" unicode="Ṩ" horiz-adv-x="555" d="M164 3c-27.333 8.667-60.334 23.33-99.001 43.997v78c24-20 54.167-36.5 90.5-49.5s76.833-19.5 121.5-19.5c48.667 0 85 10.333 109 31s36 48.667 36 84c0 26-7 47.5-21 64.5s-30.667 30.333-50 40-48.333 21.834-87 36.501c-41.333 14-74.166 27.333-98.499 40S120.334 383.332 103.001 408s-26 57.334-26 98.001c0 27.333 6.833 54 20.5 80s35.667 47.667 66 65 69.5 26 117.5 26c35.333 0 64.166-3.333 86.499-10s51.833-19 88.5-37v-74l-37.5 21.5c-20.333 11.667-41.333 20.167-63 25.5s-45.167 8-70.5 8c-46 0-80-9.5-102-28.5s-33-42.833-33-71.5c0-26 5.833-47 17.5-63s27.334-29 47.001-39 47.5-21 83.5-33c41.333-14 75.166-27.833 101.499-41.5s48.833-33.167 67.5-58.5 28-57.666 28-96.999c0-52.667-17.5-97.334-52.5-134S351.333-10 274-10c-46 0-82.667 4.332-110 13zm74.999-53.004h79v-79h-79v79zm0 833h79v-79h-79v79z"/><glyph glyph-name="uni1E69" unicode="ṩ" horiz-adv-x="456" d="M134-5c-24 6.667-50.335 17.331-79.002 31.998v76c34-19.333 61.833-32.833 83.5-40.5s47.5-11.5 77.5-11.5c33.333 0 60.5 7.333 81.5 22s31.5 33.667 31.5 57c0 20.667-6.333 36.167-19 46.5s-32.667 20.833-60 31.5l-26 11c-38 10.667-67.5 20.334-88.5 29.001s-39.333 22.334-55 41.001-23.5 44-23.5 76 8.333 58.667 25 80 38.334 37.166 65.001 47.499 54.667 15.5 84 15.5c26.667 0 49.167-3 67.5-9s43.5-16 75.5-30v-72c-33.333 16.667-58.833 28.334-76.5 35.001s-38.5 10-62.5 10c-29.333 0-54.333-5.833-75-17.5s-31-28.167-31-49.5c0-17.333 5.167-31.5 15.5-42.5s23.333-19.667 39-26 36.834-13.166 63.501-20.499c33.333-10.667 59.833-20.334 79.5-29.001s37-22.5 52-41.5S401 171 401 139c0-34-8.667-62.5-26-85.5S335.167 13.333 307.5 2 251-15 221-15c-34 0-63 3.333-87 10zm28.998-45.003h79v-79h-79v79zm30 693h79v-79h-79v79z"/><glyph glyph-name="uni1E6D" unicode="ṭ" horiz-adv-x="363" d="M147 25.5c-23.333 22.333-35 54.165-35 95.498v312H25v66h87v141h72v-141h129v-66H184v-289c0-29.333 4.667-50.666 14-63.999s26.666-20 51.999-20c24.667 0 45.667 4 63 12v-68C303.666.666 291.833-2.167 277.5-4.5S249.667-8 237-8c-36.667 0-66.667 11.167-90 33.5zm-13-75.501h79v-79h-79v79z"/><glyph glyph-name="uni1E6E" unicode="Ṯ" horiz-adv-x="583" d="M256 599H20v68h543v-68H328V0h-72v599zM175-66h234v-53H175v53z"/><glyph glyph-name="uni1E6F" unicode="ṯ" horiz-adv-x="363" d="M147 25.5c-23.333 22.333-35 54.165-35 95.498v312H25v66h87v141h72v-141h129v-66H184v-289c0-29.333 4.667-50.666 14-63.999s26.666-20 51.999-20c24.667 0 45.667 4 63 12v-68C303.666.666 291.833-2.167 277.5-4.5S249.667-8 237-8c-36.667 0-66.667 11.167-90 33.5zM57-66.001h234v-53H57v53z"/><glyph glyph-name="uni1E78" unicode="Ṹ" horiz-adv-x="692" d="M153.5 63c-45.667 48.667-68.498 118.334-68.498 209.001v395h72v-399c0-140 63-210 189-210 127.333 0 191 70 191 210v399h70v-395c0-90.667-22.833-160.334-68.5-209.001S428.668-10 346.001-10 199.167 14.333 153.5 63zm56.502 664c-2.667 10-3.998 20-3.998 30 0 24.667 7.833 44.5 23.5 59.5s33.5 22.5 53.5 22.5c16 0 30.167-3.167 42.5-9.5s26.833-15.5 43.5-27.5c10.667-8.667 19.667-15.167 27-19.5s15-6.5 23-6.5 14.333 2.667 19 8 7 13 7 23c0 3.333-.667 9-2 17h52c1.333-9.333 2-16.333 2-21 0-24.667-7.833-44.667-23.5-60s-36.5-23-62.5-23c-14.667 0-28.334 3.333-41.001 10s-26.334 15.667-41.001 27c-10.667 8.667-19.5 15-26.5 19s-13.833 6-20.5 6c-8 0-14.667-3.167-20-9.5s-8-15.5-8-27.5c0-2.667.667-8.667 2-18h-46zm175.002 303h74l-83-115h-48z"/><glyph glyph-name="uni1E79" unicode="ṹ" horiz-adv-x="578" d="M134.5 36.5C98.167 70.833 80 119.666 80 182.999v316h72v-300c0-50.667 11-87.834 33-111.501s56.667-35.5 104-35.5c46.667 0 81.167 11.833 103.5 35.5S426 148.332 426 198.999v300h72v-316c0-63.333-18.167-112.166-54.5-146.499S355.667-15 289-15 170.833 2.167 134.5 36.5zM148 544c-2.667 10-3.998 20-3.998 30 0 24.667 7.833 44.5 23.5 59.5s33.5 22.5 53.5 22.5c16 0 30.167-3.167 42.5-9.5s26.833-15.5 43.5-27.5c10.667-8.667 19.667-15.167 27-19.5s15-6.5 23-6.5 14.333 2.667 19 8 7 13 7 23c0 3.333-.667 9-2 17h52c1.333-9.333 2-16.333 2-21 0-24.667-7.833-44.667-23.5-60s-36.5-23-62.5-23c-14.667 0-28.334 3.333-41.001 10S281.667 562.667 267 574c-10.667 8.667-19.5 15-26.5 19s-13.833 6-20.5 6c-8 0-14.667-3.167-20-9.5s-8-15.5-8-27.5c0-2.667.667-8.667 2-18h-46zm172.002 294h74l-83-115h-48z"/><glyph glyph-name="uni1E7A" unicode="Ṻ" horiz-adv-x="692" d="M153.5 63c-45.667 48.667-68.498 118.334-68.498 209.001v395h72v-399c0-140 63-210 189-210 127.333 0 191 70 191 210v399h70v-395c0-90.667-22.833-160.334-68.5-209.001S428.668-10 346.001-10 199.167 14.333 153.5 63zm75.502 706h234v-53h-234v53zm3 138h79v-79h-79v79zm148 0h79v-79h-79v79z"/><glyph glyph-name="uni1E7B" unicode="ṻ" horiz-adv-x="578" d="M134.5 36.5C98.167 70.833 80 119.666 80 182.999v316h72v-300c0-50.667 11-87.834 33-111.501s56.667-35.5 104-35.5c46.667 0 81.167 11.833 103.5 35.5S426 148.332 426 198.999v300h72v-316c0-63.333-18.167-112.166-54.5-146.499S355.667-15 289-15 170.833 2.167 134.5 36.5zM172 629h234v-53H172v53zm3 144h79v-79h-79v79zm148 0h79v-79h-79v79z"/><glyph glyph-name="Wgrave" unicode="Ẁ" horiz-adv-x="976" d="M951 667L736 0h-73L488 553 313 0h-74L25 667h76L281 98l171 569h72L698 98l177 569h76zM387 836h74l57-115h-48z"/><glyph glyph-name="wgrave" unicode="ẁ" horiz-adv-x="796" d="M761 499L595 0h-73L397 414 274 0h-73L35 499h76L241 82l122 417h69L558 81l132 418h71zM294 679h73l57-115h-47z"/><glyph glyph-name="Wacute" unicode="Ẃ" horiz-adv-x="976" d="M951 667L736 0h-73L488 553 313 0h-74L25 667h76L281 98l171 569h72L698 98l177 569h76zM528 847h74l-83-115h-48z"/><glyph glyph-name="wacute" unicode="ẃ" horiz-adv-x="796" d="M761 499L595 0h-73L397 414 274 0h-73L35 499h76L241 82l122 417h69L558 81l132 418h71zM430 679h74l-83-115h-48z"/><glyph glyph-name="Wdieresis" unicode="Ẅ" horiz-adv-x="976" d="M951 667L736 0h-73L488 553 313 0h-74L25 667h76L281 98l171 569h72L698 98l177 569h76zM375 805h79v-79h-79v79zm148 0h79v-79h-79v79z"/><glyph glyph-name="wdieresis" unicode="ẅ" horiz-adv-x="796" d="M761 499L595 0h-73L397 414 274 0h-73L35 499h76L241 82l122 417h69L558 81l132 418h71zM285 643h79v-79h-79v79zm148 0h79v-79h-79v79z"/><glyph glyph-name="uni1E8E" unicode="Ẏ" horiz-adv-x="598" d="M333 306V0h-72v306L12 667h87l197-292 198 292h87zm-68 477h79v-79h-79v79z"/><glyph glyph-name="uni1E8F" unicode="ẏ" horiz-adv-x="540" d="M505 499L291.003-49.001c-20.667-53.333-44.834-90.666-72.501-111.999s-55.834-32-84.501-32c-16 0-31.667 3-47 9v66c13.333-6 27.666-9 42.999-9 28.667 0 51 10.333 67 31s31 52 45 94L35 499h82L275 92l158 407h72zM235.003 642.999h79v-79h-79v79z"/><glyph glyph-name="uni1E97" unicode="ẗ" horiz-adv-x="363" d="M147 25.5c-23.333 22.333-35 54.165-35 95.498v312H25v66h87v141h72v-141h129v-66H184v-289c0-29.333 4.667-50.666 14-63.999s26.666-20 51.999-20c24.667 0 45.667 4 63 12v-68C303.666.666 291.833-2.167 277.5-4.5S249.667-8 237-8c-36.667 0-66.667 11.167-90 33.5zM30 782.999h79v-79H30v79zm148 0h79v-79h-79v79z"/><glyph glyph-name="uni1E9E" unicode="ẞ" horiz-adv-x="706" d="M596.5 350c33-36.667 49.501-83.665 49.501-140.998 0-60.667-17.5-112.334-52.5-155.001s-91.167-64-168.5-64c-52 0-105 19-159 57v78c18-20 41-36.5 69-49.5s59-19.5 93-19.5c48.667 0 85 13 109 39s36 61.333 36 106c0 55.333-17.833 98.166-53.5 128.499s-89.5 52.5-161.5 66.5v54l162 77c-14.667 26.667-38 48.667-70 66s-72 26-120 26c-56 0-98.833-14.333-128.5-43s-44.5-67-44.5-115V0h-72v454c0 42 9 79.833 27 113.5s45 60.334 81 80.001 80.333 29.5 133 29.5c53.333 0 96.5-6.167 129.5-18.5s59.167-29.333 78.5-51S572.667 556.667 592 520v-21l-135-62c60-21.333 106.5-50.333 139.5-87z"/><glyph glyph-name="uni1EA0" unicode="Ạ" horiz-adv-x="643" d="M466 208H178L98 0H20l266 667h72L623 0h-77zm-27 69L322 582 205 277h234zM283-50h79v-79h-79v79z"/><glyph glyph-name="uni1EA1" unicode="ạ" horiz-adv-x="534" d="M425.5 467c32.333-27.333 48.5-67 48.5-119V106c0-48-19.667-80.167-59-96.5S321.334-15 252.001-15C199.334-15 154.167-3.333 116.5 20S60 82.333 60 137c0 59.333 16.333 102.5 49 129.5S186.667 307 244 307c64.667 0 117-11.667 157-35v59c0 74.667-43.667 112-131 112-28.667 0-57.667-4-87-12s-54-20-74-36v72c20 12.667 47.167 22.667 81.5 30S259 508 293 508c56 0 100.167-13.667 132.5-41zM370 59.5c20.667 7 30.999 21.168 30.999 42.501v112c-18 8.667-39 15.5-63 20.5s-49 7.5-75 7.5c-42 0-74.333-8-97-24s-34-39.333-34-70c0-34.667 13.333-59.834 40-75.501s59-23.5 97-23.5c46.667 0 80.334 3.5 101.001 10.5zM240.999-49.999h79v-79h-79v79z"/><glyph glyph-name="uni1EA2" unicode="Ả" horiz-adv-x="643" d="M466 208H178L98 0H20l266 667h72L623 0h-77zm-27 69L322 582 205 277h234zM298 754c12.667.667 22.166 3.333 28.499 8s9.5 10 9.5 16c0 8.667-4.167 15.167-12.5 19.5S303.333 804 288 804c-7.333 0-16.333-.667-27-2v43c10 2 20.333 3 31 3 25.333 0 47-5.333 65-16s27-28 27-52c0-13.333-4.333-24.833-13-34.5s-22-16.167-40-19.5v-24h-33v52z"/><glyph glyph-name="uni1EA3" unicode="ả" horiz-adv-x="554" d="M425.5 467c32.333-27.333 48.5-67 48.5-119V106c0-48-19.667-80.167-59-96.5S321.334-15 252.001-15C199.334-15 154.167-3.333 116.5 20S60 82.333 60 137c0 59.333 16.333 102.5 49 129.5S186.667 307 244 307c64.667 0 117-11.667 157-35v59c0 74.667-43.667 112-131 112-28.667 0-57.667-4-87-12s-54-20-74-36v72c20 12.667 47.167 22.667 81.5 30S259 508 293 508c56 0 100.167-13.667 132.5-41zM370 59.5c20.667 7 30.999 21.168 30.999 42.501v112c-18 8.667-39 15.5-63 20.5s-49 7.5-75 7.5c-42 0-74.333-8-97-24s-34-39.333-34-70c0-34.667 13.333-59.834 40-75.501s59-23.5 97-23.5c46.667 0 80.334 3.5 101.001 10.5zM265.999 614.001c12.667.667 22.166 3.333 28.499 8s9.5 10 9.5 16c0 8.667-4.167 15.167-12.5 19.5s-20.166 6.5-35.499 6.5c-7.333 0-16.333-.667-27-2v43c10 2 20.333 3 31 3 25.333 0 47-5.333 65-16s27-28 27-52c0-13.333-4.333-24.833-13-34.5s-22-16.167-40-19.5v-24h-33v52z"/><glyph glyph-name="uni1EA4" unicode="Ấ" horiz-adv-x="643" d="M466 208H178L98 0H20l266 667h72L623 0h-77zm-27 69L322 582 205 277h234zM296 852h61l80-120h-46l-65 70-65-70h-46zm170 67h74l-83-115h-48z"/><glyph glyph-name="uni1EA5" unicode="ấ" horiz-adv-x="554" d="M425.5 467c32.333-27.333 48.5-67 48.5-119V106c0-48-19.667-80.167-59-96.5S321.334-15 252.001-15C199.334-15 154.167-3.333 116.5 20S60 82.333 60 137c0 59.333 16.333 102.5 49 129.5S186.667 307 244 307c64.667 0 117-11.667 157-35v59c0 74.667-43.667 112-131 112-28.667 0-57.667-4-87-12s-54-20-74-36v72c20 12.667 47.167 22.667 81.5 30S259 508 293 508c56 0 100.167-13.667 132.5-41zM370 59.5c20.667 7 30.999 21.168 30.999 42.501v112c-18 8.667-39 15.5-63 20.5s-49 7.5-75 7.5c-42 0-74.333-8-97-24s-34-39.333-34-70c0-34.667 13.333-59.834 40-75.501s59-23.5 97-23.5c46.667 0 80.334 3.5 101.001 10.5zM263.999 684.001h61l80-120h-46l-65 70-65-70h-46zm170 67h74l-83-115h-48z"/><glyph glyph-name="uni1EA6" unicode="Ầ" horiz-adv-x="643" d="M466 208H178L98 0H20l266 667h72L623 0h-77zm-27 69L322 582 205 277h234zM293 852h61l80-120h-46l-65 70-65-70h-46zM84 913h74l57-115h-48z"/><glyph glyph-name="uni1EA7" unicode="ầ" horiz-adv-x="554" d="M425.5 467c32.333-27.333 48.5-67 48.5-119V106c0-48-19.667-80.167-59-96.5S321.334-15 252.001-15C199.334-15 154.167-3.333 116.5 20S60 82.333 60 137c0 59.333 16.333 102.5 49 129.5S186.667 307 244 307c64.667 0 117-11.667 157-35v59c0 74.667-43.667 112-131 112-28.667 0-57.667-4-87-12s-54-20-74-36v72c20 12.667 47.167 22.667 81.5 30S259 508 293 508c56 0 100.167-13.667 132.5-41zM370 59.5c20.667 7 30.999 21.168 30.999 42.501v112c-18 8.667-39 15.5-63 20.5s-49 7.5-75 7.5c-42 0-74.333-8-97-24s-34-39.333-34-70c0-34.667 13.333-59.834 40-75.501s59-23.5 97-23.5c46.667 0 80.334 3.5 101.001 10.5zM260.999 684.001h61l80-120h-46l-65 70-65-70h-46zm-209 61h74l57-115h-48z"/><glyph glyph-name="uni1EA8" unicode="Ẩ" horiz-adv-x="643" d="M466 208H178L98 0H20l266 667h72L623 0h-77zm-27 69L322 582 205 277h234zM287 847h61l80-120h-46l-65 70-65-70h-46zm146-16c12.667.667 22.166 3.333 28.499 8s9.5 10 9.5 16c0 8.667-4.167 15.167-12.5 19.5S438.333 881 423 881c-7.333 0-16.333-.667-27-2v43c10 2 20.333 3 31 3 25.333 0 47-5.333 65-16s27-28 27-52c0-13.333-4.333-24.833-13-34.5s-22-16.167-40-19.5v-24h-33v52z"/><glyph glyph-name="uni1EA9" unicode="ẩ" horiz-adv-x="554" d="M425.5 467c32.333-27.333 48.5-67 48.5-119V106c0-48-19.667-80.167-59-96.5S321.334-15 252.001-15C199.334-15 154.167-3.333 116.5 20S60 82.333 60 137c0 59.333 16.333 102.5 49 129.5S186.667 307 244 307c64.667 0 117-11.667 157-35v59c0 74.667-43.667 112-131 112-28.667 0-57.667-4-87-12s-54-20-74-36v72c20 12.667 47.167 22.667 81.5 30S259 508 293 508c56 0 100.167-13.667 132.5-41zM370 59.5c20.667 7 30.999 21.168 30.999 42.501v112c-18 8.667-39 15.5-63 20.5s-49 7.5-75 7.5c-42 0-74.333-8-97-24s-34-39.333-34-70c0-34.667 13.333-59.834 40-75.501s59-23.5 97-23.5c46.667 0 80.334 3.5 101.001 10.5zM254.999 679.001h61l80-120h-46l-65 70-65-70h-46zm146-16c12.667.667 22.166 3.333 28.499 8s9.5 10 9.5 16c0 8.667-4.167 15.167-12.5 19.5s-20.166 6.5-35.499 6.5c-7.333 0-16.333-.667-27-2v43c10 2 20.333 3 31 3 25.333 0 47-5.333 65-16s27-28 27-52c0-13.333-4.333-24.833-13-34.5s-22-16.167-40-19.5v-24h-33v52z"/><glyph glyph-name="uni1EAA" unicode="Ẫ" horiz-adv-x="643" d="M466 208H178L98 0H20l266 667h72L623 0h-77zm-27 69L322 582 205 277h234zM293 832h61l80-120h-46l-65 70-65-70h-46zm-112 35c-2.667 10-3.998 20-3.998 30 0 24.667 7.833 44.5 23.5 59.5s33.5 22.5 53.5 22.5c16 0 30.167-3.167 42.5-9.5s26.833-15.5 43.5-27.5c10.667-8.667 19.667-15.167 27-19.5s15-6.5 23-6.5 14.333 2.667 19 8 7 13 7 23c0 3.333-.667 9-2 17h52c1.333-9.333 2-16.333 2-21 0-24.667-7.833-44.667-23.5-60s-36.5-23-62.5-23c-14.667 0-28.334 3.333-41.001 10S314.667 885.667 300 897c-10.667 8.667-19.5 15-26.5 19s-13.833 6-20.5 6c-8 0-14.667-3.167-20-9.5s-8-15.5-8-27.5c0-2.667.667-8.667 2-18h-46z"/><glyph glyph-name="uni1EAB" unicode="ẫ" horiz-adv-x="554" d="M425.5 467c32.333-27.333 48.5-67 48.5-119V106c0-48-19.667-80.167-59-96.5S321.334-15 252.001-15C199.334-15 154.167-3.333 116.5 20S60 82.333 60 137c0 59.333 16.333 102.5 49 129.5S186.667 307 244 307c64.667 0 117-11.667 157-35v59c0 74.667-43.667 112-131 112-28.667 0-57.667-4-87-12s-54-20-74-36v72c20 12.667 47.167 22.667 81.5 30S259 508 293 508c56 0 100.167-13.667 132.5-41zM370 59.5c20.667 7 30.999 21.168 30.999 42.501v112c-18 8.667-39 15.5-63 20.5s-49 7.5-75 7.5c-42 0-74.333-8-97-24s-34-39.333-34-70c0-34.667 13.333-59.834 40-75.501s59-23.5 97-23.5c46.667 0 80.334 3.5 101.001 10.5zM260.999 664.001h61l80-120h-46l-65 70-65-70h-46zm-112 35c-2.667 10-3.998 20-3.998 30 0 24.667 7.833 44.5 23.5 59.5s33.5 22.5 53.5 22.5c16 0 30.167-3.167 42.5-9.5s26.833-15.5 43.5-27.5c10.667-8.667 19.667-15.167 27-19.5s15-6.5 23-6.5 14.333 2.667 19 8 7 13 7 23c0 3.333-.667 9-2 17h52c1.333-9.333 2-16.333 2-21 0-24.667-7.833-44.667-23.5-60s-36.5-23-62.5-23c-14.667 0-28.334 3.333-41.001 10s-26.334 15.667-41.001 27c-10.667 8.667-19.5 15-26.5 19s-13.833 6-20.5 6c-8 0-14.667-3.167-20-9.5s-8-15.5-8-27.5c0-2.667.667-8.667 2-18h-46z"/><glyph glyph-name="uni1EAC" unicode="Ậ" horiz-adv-x="643" d="M466 208H178L98 0H20l266 667h72L623 0h-77zm-27 69L322 582 205 277h234zM283-50h79v-79h-79v79zm10 889h61l80-120h-46l-65 70-65-70h-46z"/><glyph glyph-name="uni1EAD" unicode="ậ" horiz-adv-x="534" d="M425.5 467c32.333-27.333 48.5-67 48.5-119V106c0-48-19.667-80.167-59-96.5S321.334-15 252.001-15C199.334-15 154.167-3.333 116.5 20S60 82.333 60 137c0 59.333 16.333 102.5 49 129.5S186.667 307 244 307c64.667 0 117-11.667 157-35v59c0 74.667-43.667 112-131 112-28.667 0-57.667-4-87-12s-54-20-74-36v72c20 12.667 47.167 22.667 81.5 30S259 508 293 508c56 0 100.167-13.667 132.5-41zM370 59.5c20.667 7 30.999 21.168 30.999 42.501v112c-18 8.667-39 15.5-63 20.5s-49 7.5-75 7.5c-42 0-74.333-8-97-24s-34-39.333-34-70c0-34.667 13.333-59.834 40-75.501s59-23.5 97-23.5c46.667 0 80.334 3.5 101.001 10.5zM240.999-49.999h79v-79h-79v79zm20 734h61l80-120h-46l-65 70-65-70h-46z"/><glyph glyph-name="uni1EAE" unicode="Ắ" horiz-adv-x="643" d="M466 208H178L98 0H20l266 667h72L623 0h-77zm-27 69L322 582 205 277h234zM236.5 742.5c-24.333 19.667-40.501 47.834-48.501 84.501h52c15.333-41.333 43-62 83-62 38.667 0 66.334 20.667 83.001 62h52c-6.667-36.667-22.334-64.834-47.001-84.501s-54-29.5-88-29.5c-33.333 0-62.166 9.833-86.499 29.5zM347.999 953h74l-83-115h-48z"/><glyph glyph-name="uni1EAF" unicode="ắ" horiz-adv-x="554" d="M425.5 467c32.333-27.333 48.5-67 48.5-119V106c0-48-19.667-80.167-59-96.5S321.334-15 252.001-15C199.334-15 154.167-3.333 116.5 20S60 82.333 60 137c0 59.333 16.333 102.5 49 129.5S186.667 307 244 307c64.667 0 117-11.667 157-35v59c0 74.667-43.667 112-131 112-28.667 0-57.667-4-87-12s-54-20-74-36v72c20 12.667 47.167 22.667 81.5 30S259 508 293 508c56 0 100.167-13.667 132.5-41zM370 59.5c20.667 7 30.999 21.168 30.999 42.501v112c-18 8.667-39 15.5-63 20.5s-49 7.5-75 7.5c-42 0-74.333-8-97-24s-34-39.333-34-70c0-34.667 13.333-59.834 40-75.501s59-23.5 97-23.5c46.667 0 80.334 3.5 101.001 10.5zM204.499 574.501c-24.333 19.667-40.501 47.834-48.501 84.501h52c15.333-41.333 43-62 83-62 38.667 0 66.334 20.667 83.001 62h52c-6.667-36.667-22.334-64.834-47.001-84.501s-54-29.5-88-29.5c-33.333 0-62.166 9.833-86.499 29.5zm111.499 210.5h74l-83-115h-48z"/><glyph glyph-name="uni1EB0" unicode="Ằ" horiz-adv-x="643" d="M466 208H178L98 0H20l266 667h72L623 0h-77zm-27 69L322 582 205 277h234zM236.5 742.5c-24.333 19.667-40.501 47.834-48.501 84.501h52c15.333-41.333 43-62 83-62 38.667 0 66.334 20.667 83.001 62h52c-6.667-36.667-22.334-64.834-47.001-84.501s-54-29.5-88-29.5c-33.333 0-62.166 9.833-86.499 29.5zM217.999 947h73l57-115h-47z"/><glyph glyph-name="uni1EB1" unicode="ằ" horiz-adv-x="554" d="M425.5 467c32.333-27.333 48.5-67 48.5-119V106c0-48-19.667-80.167-59-96.5S321.334-15 252.001-15C199.334-15 154.167-3.333 116.5 20S60 82.333 60 137c0 59.333 16.333 102.5 49 129.5S186.667 307 244 307c64.667 0 117-11.667 157-35v59c0 74.667-43.667 112-131 112-28.667 0-57.667-4-87-12s-54-20-74-36v72c20 12.667 47.167 22.667 81.5 30S259 508 293 508c56 0 100.167-13.667 132.5-41zM370 59.5c20.667 7 30.999 21.168 30.999 42.501v112c-18 8.667-39 15.5-63 20.5s-49 7.5-75 7.5c-42 0-74.333-8-97-24s-34-39.333-34-70c0-34.667 13.333-59.834 40-75.501s59-23.5 97-23.5c46.667 0 80.334 3.5 101.001 10.5zM204.499 574.501c-24.333 19.667-40.501 47.834-48.501 84.501h52c15.333-41.333 43-62 83-62 38.667 0 66.334 20.667 83.001 62h52c-6.667-36.667-22.334-64.834-47.001-84.501s-54-29.5-88-29.5c-33.333 0-62.166 9.833-86.499 29.5zm-18.501 204.5h73l57-115h-47z"/><glyph glyph-name="uni1EB2" unicode="Ẳ" horiz-adv-x="643" d="M466 208H178L98 0H20l266 667h72L623 0h-77zm-27 69L322 582 205 277h234zM227.5 742.5c-24.333 19.667-40.501 47.834-48.501 84.501h52c15.333-41.333 43-62 83-62 38.667 0 66.334 20.667 83.001 62h52c-6.667-36.667-22.334-64.834-47.001-84.501s-54-29.5-88-29.5c-33.333 0-62.166 9.833-86.499 29.5zM288.999 884c12.667.667 22.166 3.333 28.499 8s9.5 10 9.5 16c0 8.667-4.167 15.167-12.5 19.5s-20.166 6.5-35.499 6.5c-7.333 0-16.333-.667-27-2v43c10 2 20.333 3 31 3 25.333 0 47-5.333 65-16s27-28 27-52c0-13.333-4.333-24.833-13-34.5s-22-16.167-40-19.5v-24h-33v52z"/><glyph glyph-name="uni1EB3" unicode="ẳ" horiz-adv-x="554" d="M425.5 467c32.333-27.333 48.5-67 48.5-119V106c0-48-19.667-80.167-59-96.5S321.334-15 252.001-15C199.334-15 154.167-3.333 116.5 20S60 82.333 60 137c0 59.333 16.333 102.5 49 129.5S186.667 307 244 307c64.667 0 117-11.667 157-35v59c0 74.667-43.667 112-131 112-28.667 0-57.667-4-87-12s-54-20-74-36v72c20 12.667 47.167 22.667 81.5 30S259 508 293 508c56 0 100.167-13.667 132.5-41zM370 59.5c20.667 7 30.999 21.168 30.999 42.501v112c-18 8.667-39 15.5-63 20.5s-49 7.5-75 7.5c-42 0-74.333-8-97-24s-34-39.333-34-70c0-34.667 13.333-59.834 40-75.501s59-23.5 97-23.5c46.667 0 80.334 3.5 101.001 10.5zM195.499 574.501c-24.333 19.667-40.501 47.834-48.501 84.501h52c15.333-41.333 43-62 83-62 38.667 0 66.334 20.667 83.001 62h52c-6.667-36.667-22.334-64.834-47.001-84.501s-54-29.5-88-29.5c-33.333 0-62.166 9.833-86.499 29.5zm61.499 141.5c12.667.667 22.166 3.333 28.499 8s9.5 10 9.5 16c0 8.667-4.167 15.167-12.5 19.5s-20.166 6.5-35.499 6.5c-7.333 0-16.333-.667-27-2v43c10 2 20.333 3 31 3 25.333 0 47-5.333 65-16s27-28 27-52c0-13.333-4.333-24.833-13-34.5s-22-16.167-40-19.5v-24h-33v52z"/></font>
</defs>
</svg>
